<svg width="115" height="88" viewBox="0 0 115 88" fill="none" xmlns="http://www.w3.org/2000/svg">
<path d="M71.8664 2.00278C85.5428 2.13386 94.6771 6.24295 100.426 10.4266C103.289 12.5103 105.291 14.5961 106.587 16.1812C107.236 16.9737 107.708 17.6419 108.025 18.1233C108.184 18.364 108.303 18.5582 108.386 18.6982C108.428 18.7679 108.46 18.8244 108.484 18.8663C108.485 18.8681 108.486 18.8704 108.487 18.8722C111.095 23.163 113.409 30.2136 111.711 39.0119C110.01 47.8289 104.326 58.1681 91.3509 69.116C82.5147 76.5713 65.0498 86.3425 43.5336 85.9389C16.6303 85.4351 2.70676 70.4392 2.04492 57.042C1.21045 40.1514 12.1968 26.283 26.2999 16.8054C40.4246 7.31341 58.1575 1.87101 71.8664 2.00278Z" fill="none" stroke="white" stroke-width="4"/>
</svg>
