<svg width="144" height="17" viewBox="0 0 144 17" fill="none" xmlns="http://www.w3.org/2000/svg">
<path d="M3.07638 0.312155V12.9744H9.02851V15.917H2.55994e-07V0.312155H3.07638ZM17.3087 7.53497H25.1334V8.73877C25.1334 10.968 24.42 12.7737 22.9933 14.1559C21.5665 15.538 19.7237 16.2291 17.4647 16.2291C15.0571 16.2291 13.0582 15.4488 11.468 13.8884C9.89264 12.313 9.10497 10.3959 9.10497 8.13687C9.10497 5.86302 9.88521 3.93842 11.4457 2.36308C13.021 0.787731 14.9679 5.79632e-05 17.2864 5.79632e-05C18.728 5.79632e-05 20.0506 0.327017 21.2544 0.980934C22.4583 1.63485 23.402 2.51912 24.0856 3.63376L21.4551 5.14965C21.0835 4.5106 20.5188 3.99044 19.7608 3.58917C19.0029 3.1879 18.1706 2.98727 17.2641 2.98727C15.763 2.98727 14.5369 3.47771 13.5858 4.45858C12.6346 5.40974 12.1591 6.63583 12.1591 8.13687C12.1591 9.60818 12.6421 10.8268 13.6081 11.7929C14.5741 12.744 15.8671 13.2196 17.487 13.2196C18.6611 13.2196 19.642 12.9595 20.4296 12.4393C21.2173 11.9192 21.7523 11.191 22.0347 10.2547H17.3087V7.53497ZM39.4264 0.312155H42.592V15.917H39.5379V5.79614L35.1462 13.0412H34.7896L30.3979 5.81843V15.917H27.3215V0.312155H30.4871L34.9679 7.69101L39.4264 0.312155ZM62.9547 15.917H59.6331L56.4899 10.4999H54.1491V15.917H51.0728V0.312155H57.3147C58.7563 0.312155 59.9824 0.817454 60.993 1.82805C62.0036 2.83865 62.5089 4.05732 62.5089 5.48404C62.5089 6.45006 62.2339 7.34919 61.684 8.18145C61.1342 8.99885 60.4059 9.61561 59.4994 10.0317L62.9547 15.917ZM57.3147 3.1879H54.1491V7.80248H57.3147C57.8943 7.80248 58.3922 7.57955 58.8083 7.1337C59.2244 6.67298 59.4325 6.1231 59.4325 5.48404C59.4325 4.84499 59.2244 4.30253 58.8083 3.85668C58.3922 3.41083 57.8943 3.1879 57.3147 3.1879ZM67.8425 9.47442V12.9744H74.4189V15.917H64.7662V0.312155H74.3074V3.25478H67.8425V6.57638H73.7501V9.47442H67.8425ZM81.9153 16.2291C80.3845 16.2291 79.0916 15.8873 78.0364 15.2036C76.9812 14.52 76.2307 13.5763 75.7848 12.3725L78.4154 10.8343C79.0247 12.4245 80.2211 13.2196 82.0045 13.2196C82.8367 13.2196 83.4609 13.071 83.877 12.7737C84.2932 12.4765 84.5012 12.0752 84.5012 11.5699C84.5012 11.02 84.256 10.5965 83.7656 10.2993C83.2751 9.98715 82.3983 9.65276 81.1351 9.29608C79.7678 8.87995 78.6903 8.39695 77.9026 7.84706C76.9217 7.11884 76.4313 6.04879 76.4313 4.63692C76.4313 3.2102 76.9292 2.08813 77.9249 1.27074C78.9207 0.423618 80.1319 5.79632e-05 81.5586 5.79632e-05C82.807 5.79632e-05 83.9142 0.304724 84.8802 0.914056C85.8462 1.52339 86.5967 2.38537 87.1318 3.5L84.5458 4.99361C83.9216 3.65605 82.9259 2.98727 81.5586 2.98727C80.9344 2.98727 80.4365 3.13589 80.065 3.43312C79.6935 3.7155 79.5077 4.08704 79.5077 4.54775C79.5077 5.03819 79.7083 5.43946 80.1096 5.75156C80.5554 6.06365 81.3431 6.39061 82.4726 6.73243L83.5427 7.08911C83.7359 7.14856 84.0702 7.27488 84.5458 7.46809C84.9917 7.63157 85.3186 7.78761 85.5267 7.93623C86.2549 8.38209 86.7454 8.8428 86.998 9.31838C87.3844 9.94257 87.5776 10.6782 87.5776 11.5253C87.5776 12.9669 87.05 14.1113 85.9948 14.9584C84.9397 15.8055 83.5798 16.2291 81.9153 16.2291ZM102.606 13.8884C101.03 15.4488 99.1131 16.2291 96.8541 16.2291C94.5951 16.2291 92.678 15.4488 91.1026 13.8884C89.5422 12.2982 88.7619 10.3736 88.7619 8.11457C88.7619 5.84073 89.5422 3.92356 91.1026 2.36308C92.678 0.787731 94.5951 5.79632e-05 96.8541 5.79632e-05C99.1131 5.79632e-05 101.03 0.787731 102.606 2.36308C104.181 3.92356 104.969 5.84073 104.969 8.11457C104.969 10.3884 104.181 12.313 102.606 13.8884ZM93.265 11.7929C94.2162 12.744 95.4125 13.2196 96.8541 13.2196C98.2957 13.2196 99.4921 12.744 100.443 11.7929C101.409 10.8268 101.892 9.60075 101.892 8.11457C101.892 6.6284 101.409 5.4023 100.443 4.43629C99.4772 3.47028 98.2809 2.98727 96.8541 2.98727C95.4274 2.98727 94.231 3.47028 93.265 4.43629C92.299 5.4023 91.816 6.6284 91.816 8.11457C91.816 9.60075 92.299 10.8268 93.265 11.7929ZM119.013 15.917H115.691L112.548 10.4999H110.207V15.917H107.131V0.312155H113.373C114.814 0.312155 116.04 0.817454 117.051 1.82805C118.062 2.83865 118.567 4.05732 118.567 5.48404C118.567 6.45006 118.292 7.34919 117.742 8.18145C117.192 8.99885 116.464 9.61561 115.557 10.0317L119.013 15.917ZM113.373 3.1879H110.207V7.80248H113.373C113.952 7.80248 114.45 7.57955 114.866 7.1337C115.283 6.67298 115.491 6.1231 115.491 5.48404C115.491 4.84499 115.283 4.30253 114.866 3.85668C114.45 3.41083 113.952 3.1879 113.373 3.1879ZM119.339 0.312155H130.819V3.25478H126.606V15.917H123.53V3.25478H119.339V0.312155ZM137.429 16.2291C135.898 16.2291 134.605 15.8873 133.55 15.2036C132.495 14.52 131.745 13.5763 131.299 12.3725L133.929 10.8343C134.539 12.4245 135.735 13.2196 137.518 13.2196C138.351 13.2196 138.975 13.071 139.391 12.7737C139.807 12.4765 140.015 12.0752 140.015 11.5699C140.015 11.02 139.77 10.5965 139.279 10.2993C138.789 9.98715 137.912 9.65276 136.649 9.29608C135.282 8.87995 134.204 8.39695 133.416 7.84706C132.436 7.11884 131.945 6.04879 131.945 4.63692C131.945 3.2102 132.443 2.08813 133.439 1.27074C134.435 0.423618 135.646 5.79632e-05 137.072 5.79632e-05C138.321 5.79632e-05 139.428 0.304724 140.394 0.914056C141.36 1.52339 142.111 2.38537 142.646 3.5L140.06 4.99361C139.435 3.65605 138.44 2.98727 137.072 2.98727C136.448 2.98727 135.95 3.13589 135.579 3.43312C135.207 3.7155 135.022 4.08704 135.022 4.54775C135.022 5.03819 135.222 5.43946 135.623 5.75156C136.069 6.06365 136.857 6.39061 137.986 6.73243L139.057 7.08911C139.25 7.14856 139.584 7.27488 140.06 7.46809C140.506 7.63157 140.832 7.78761 141.041 7.93623C141.769 8.38209 142.259 8.8428 142.512 9.31838C142.898 9.94257 143.091 10.6782 143.091 11.5253C143.091 12.9669 142.564 14.1113 141.509 14.9584C140.454 15.8055 139.094 16.2291 137.429 16.2291Z" fill="black"/>
</svg>
