<svg preserveAspectRatio="none" width="100%" height="100%" overflow="visible" style="display: block;" viewBox="0 0 32 32" fill="none" xmlns="http://www.w3.org/2000/svg">
<g id="award_star">
<mask id="mask0_0_8" style="mask-type:alpha" maskUnits="userSpaceOnUse" x="0" y="0" width="32" height="32">
<rect id="Bounding box" width="32" height="32" fill="var(--fill-0, #D9D9D9)"/>
</mask>
<g mask="url(#mask0_0_8)">
<path id="award_star_2" d="M12.099 21.6667L15.999 19.3L19.899 21.6667L18.8656 17.2333L22.3323 14.2333L17.7656 13.8667L15.999 9.66668L14.2323 13.8667L9.66562 14.2333L13.1323 17.2333L12.099 21.6667ZM15.999 31.0667L11.5323 26.6667H5.33229V20.4667L0.932292 16L5.33229 11.5333V5.33335H11.5323L15.999 0.93335L20.4656 5.33335H26.6656V11.5333L31.0656 16L26.6656 20.4667V26.6667H20.4656L15.999 31.0667ZM15.999 27.3333L19.3323 24H23.999V19.3333L27.3323 16L23.999 12.6667V8.00002H19.3323L15.999 4.66668L12.6656 8.00002H7.99896V12.6667L4.66562 16L7.99896 19.3333V24H12.6656L15.999 27.3333Z" fill="var(--fill-0, black)"/>
</g>
</g>
</svg>
