<svg xmlns="http://www.w3.org/2000/svg" viewBox="0 0 30 27" fill="currentColor" width="30" height="27">
  <path d="M0 14.85V12.15H2.73375C3.04875 9.29249 4.2075 6.86249 6.21 4.86C8.21249 2.8575 10.6425 1.69875 13.5 1.38375V0H16.2V1.38375C19.0575 1.69875 21.4875 2.8575 23.49 4.86C25.4925 6.86249 26.6512 9.29249 26.9662 12.15H29.7V14.85H0ZM5.50125 12.15H24.1987C23.8837 9.83249 22.8431 7.90312 21.0769 6.36187C19.3106 4.82062 17.235 4.05 14.85 4.05C12.465 4.05 10.3894 4.82062 8.62312 6.36187C6.85687 7.90312 5.81625 9.83249 5.50125 12.15ZM18.0562 14.85H9.44999V22.95H16.9425C17.415 22.95 17.8706 22.8712 18.3094 22.7137C18.7481 22.5562 19.1475 22.32 19.5075 22.005L25.11 17.3812C24.93 17.2012 24.7275 17.0662 24.5025 16.9762C24.2775 16.8862 24.0412 16.8187 23.7937 16.7737C23.4112 16.7062 23.04 16.7175 22.68 16.8075C22.32 16.8975 21.9825 17.0662 21.6675 17.3137L18.0225 20.25H12.15V17.55H17.0775L18.5625 16.335C18.675 16.2675 18.7594 16.1775 18.8156 16.065C18.8719 15.9525 18.9 15.8287 18.9 15.6937C18.9 15.4687 18.8156 15.2719 18.6469 15.1031C18.4781 14.9344 18.2812 14.85 18.0562 14.85ZM6.75 14.85H4.05V24.3H6.75V14.85ZM6.75 27H4.05C3.3075 27 2.67187 26.7356 2.14312 26.2069C1.61437 25.6781 1.35 25.0425 1.35 24.3V14.85C1.35 14.1075 1.61437 13.4719 2.14312 12.9431C2.67187 12.4144 3.3075 12.15 4.05 12.15H18.0562C19.9687 12.15 21.8137 12.4762 23.5912 13.1287C25.3687 13.7812 26.7975 14.8837 27.8775 16.4362L28.7887 17.82L21.2625 24.0975C20.655 24.615 19.98 25.0031 19.2375 25.2619C18.495 25.5206 17.73 25.65 16.9425 25.65H9.07874C8.83124 26.055 8.50499 26.3812 8.09999 26.6287C7.69499 26.8762 7.24499 27 6.75 27Z"/>
</svg>
