<svg preserveAspectRatio="none" width="100%" height="100%" overflow="visible" style="display: block;" viewBox="0 0 31.6988 31.6988" fill="none" xmlns="http://www.w3.org/2000/svg">
<path id="Vector" fill-rule="evenodd" clip-rule="evenodd" d="M15.8494 0.0160687C18.6325 0.0160687 21.4556 -0.0966529 24.22 0.27501C26.2202 0.543935 27.9044 1.11925 29.242 2.45685C30.5796 3.79444 31.1549 5.47861 31.4238 7.47885C31.7955 10.2432 31.6827 13.0663 31.6827 15.8494C31.6827 18.6325 31.7955 21.4556 31.4238 24.22C31.1549 26.2202 30.5796 27.9044 29.242 29.242C27.9044 30.5796 26.2202 31.1549 24.22 31.4238C21.4556 31.7955 18.6325 31.6827 15.8494 31.6827C13.0663 31.6827 10.2432 31.7955 7.47884 31.4238C5.4786 31.1549 3.79444 30.5796 2.45685 29.242C1.11925 27.9044 0.543935 26.2202 0.27501 24.22C-0.096653 21.4556 0.0160686 18.6325 0.0160686 15.8494C0.0160686 13.0663 -0.096653 10.2432 0.27501 7.47884C0.543935 5.4786 1.11925 3.79444 2.45685 2.45685C3.79444 1.11925 5.4786 0.543935 7.47884 0.27501C10.2432 -0.096653 13.0663 0.0160687 15.8494 0.0160687ZM7.51607 9.18274C7.51607 8.26226 8.26226 7.51607 9.18274 7.51607H9.18599C10.1065 7.51607 10.8527 8.26226 10.8527 9.18274C10.8527 10.1032 10.1065 10.8494 9.18599 10.8494H9.18274C8.26226 10.8494 7.51607 10.1032 7.51607 9.18274ZM20.0205 14.5019C19.4291 14.1465 18.6044 13.9988 17.8429 14.1511C17.4332 14.233 16.8987 14.5727 16.4184 15.1132C16.1934 15.3665 16.0251 15.615 15.9222 15.8092C15.8837 15.8816 15.8616 15.9326 15.8494 15.9634V22.5161C15.8494 23.4365 15.1032 24.1827 14.1827 24.1827C13.2623 24.1827 12.5161 23.4365 12.5161 22.5161V12.5161C12.5161 11.5956 13.2623 10.8494 14.1827 10.8494C14.7396 10.8494 15.2327 11.1225 15.5354 11.5421C16.0301 11.2425 16.5849 11.0033 17.1892 10.8825C18.7289 10.5745 20.4041 10.8435 21.7375 11.6448C23.1093 12.4691 24.1827 13.9151 24.1827 15.85V22.5166C24.1827 23.4371 23.4365 24.1833 22.5161 24.1833C21.5956 24.1833 20.8494 23.4371 20.8494 22.5166V15.85C20.8494 15.2849 20.5734 14.8342 20.0205 14.5019ZM9.18274 12.5161C10.1032 12.5161 10.8494 13.2623 10.8494 14.1827V22.5161C10.8494 23.4365 10.1032 24.1827 9.18274 24.1827C8.26226 24.1827 7.51607 23.4365 7.51607 22.5161V14.1827C7.51607 13.2623 8.26226 12.5161 9.18274 12.5161Z" fill="var(--fill-0, #0A66C2)"/>
</svg>
