<svg preserveAspectRatio="none" width="100%" height="100%" overflow="visible" style="display: block;" viewBox="0 0 30.8333 30.8333" fill="none" xmlns="http://www.w3.org/2000/svg">
<path id="Vector (Stroke)" d="M28.3333 14.5833C28.3333 11.4054 28.3308 9.14765 28.1006 7.4349C27.8751 5.75808 27.4518 4.79226 26.7464 4.08692C26.0411 3.38157 25.0753 2.95819 23.3984 2.73275C21.6857 2.50249 19.4279 2.5 16.25 2.5H14.5833C11.4054 2.5 9.14765 2.50249 7.4349 2.73275C5.75808 2.95819 4.79226 3.38157 4.08692 4.08692C3.38157 4.79226 2.95819 5.75808 2.73275 7.4349C2.50249 9.14765 2.5 11.4054 2.5 14.5833V16.25C2.5 19.4279 2.50249 21.6857 2.73275 23.3984C2.95819 25.0753 3.38157 26.0411 4.08692 26.7464C4.79226 27.4518 5.75808 27.8751 7.4349 28.1006C9.14765 28.3308 11.4054 28.3333 14.5833 28.3333H16.25C19.4279 28.3333 21.6857 28.3308 23.3984 28.1006C25.0753 27.8751 26.0411 27.4518 26.7464 26.7464C27.4518 26.0411 27.8751 25.0753 28.1006 23.3984C28.3308 21.6857 28.3333 19.4279 28.3333 16.25V14.5833ZM7.5 22.0833V13.75C7.5 13.0596 8.05965 12.5 8.75 12.5C9.44036 12.5 10 13.0596 10 13.75V22.0833C10 22.7737 9.44036 23.3333 8.75 23.3333C8.05965 23.3333 7.5 22.7737 7.5 22.0833ZM20.8333 22.0833V15.4167C20.8331 14.681 20.4577 14.1063 19.8031 13.7126C19.1191 13.3015 18.1877 13.139 17.3291 13.3105C16.7962 13.4171 16.1859 13.8279 15.6738 14.4043C15.4296 14.6793 15.2421 14.9545 15.1221 15.1807C15.007 15.3976 14.999 15.485 15 15.4557V22.0833C15 22.7737 14.4404 23.3333 13.75 23.3333C13.0596 23.3333 12.5 22.7737 12.5 22.0833V12.0833C12.5 11.393 13.0596 10.8333 13.75 10.8333C14.3134 10.8333 14.7837 11.208 14.9398 11.7204C15.4906 11.3257 16.1297 10.9994 16.8376 10.8577C18.28 10.5693 19.8499 10.8235 21.0905 11.569C22.3597 12.3318 23.3331 13.6534 23.3333 15.4167V22.0833C23.3333 22.7737 22.7737 23.3333 22.0833 23.3333C21.393 23.3333 20.8333 22.7737 20.8333 22.0833ZM8.75326 7.5C9.44361 7.5 10.0033 8.05965 10.0033 8.75C10.0033 9.44036 9.44361 10 8.75326 10H8.75C8.05965 10 7.5 9.44036 7.5 8.75C7.5 8.05965 8.05965 7.5 8.75 7.5H8.75326ZM30.8333 16.25C30.8333 19.3574 30.8357 21.814 30.5778 23.7321C30.3151 25.6859 29.7612 27.2668 28.514 28.514C27.2668 29.7612 25.6859 30.3151 23.7321 30.5778C21.814 30.8357 19.3574 30.8333 16.25 30.8333H14.5833C11.476 30.8333 9.01932 30.8357 7.10124 30.5778C5.1474 30.3151 3.56652 29.7612 2.31934 28.514C1.07216 27.2668 0.518271 25.6859 0.255535 23.7321C-0.0023443 21.814 7.48219e-07 19.3574 7.48219e-07 16.25V14.5833C7.48219e-07 11.476 -0.0023443 9.01932 0.255535 7.10124C0.518271 5.1474 1.07216 3.56652 2.31934 2.31934C3.56652 1.07216 5.1474 0.518271 7.10124 0.255535C9.01932 -0.0023443 11.476 7.48219e-07 14.5833 7.48219e-07H16.25C19.3574 7.48219e-07 21.814 -0.0023443 23.7321 0.255535C25.6859 0.518271 27.2668 1.07216 28.514 2.31934C29.7612 3.56652 30.3151 5.1474 30.5778 7.10124C30.8357 9.01932 30.8333 11.476 30.8333 14.5833V16.25Z" fill="var(--fill-0, #10161F)"/>
</svg>
