<svg preserveAspectRatio="none" width="100%" height="100%" overflow="visible" style="display: block;" viewBox="0 0 32 32" fill="none" xmlns="http://www.w3.org/2000/svg">
<g id="format_shapes">
<mask id="mask0_0_4" style="mask-type:alpha" maskUnits="userSpaceOnUse" x="0" y="0" width="32" height="32">
<rect id="Bounding box" width="32" height="32" fill="var(--fill-0, #D9D9D9)"/>
</mask>
<g mask="url(#mask0_0_4)">
<path id="format_shapes_2" d="M1.33333 30.6667V22.6667H4V9.33333H1.33333V1.33333H9.33333V4H22.6667V1.33333H30.6667V9.33333H28V22.6667H30.6667V30.6667H22.6667V28H9.33333V30.6667H1.33333ZM9.33333 25.3333H22.6667V22.6667H25.3333V9.33333H22.6667V6.66667H9.33333V9.33333H6.66667V22.6667H9.33333V25.3333ZM10.4 21.3333L14.9333 9.33333H17.0667L21.6 21.3333H19.5333L18.4667 18.2667H13.6L12.5333 21.3333H10.4ZM14.2 16.5333H17.8L16.0667 11.5333H15.9333L14.2 16.5333ZM4 6.66667H6.66667V4H4V6.66667ZM25.3333 6.66667H28V4H25.3333V6.66667ZM25.3333 28H28V25.3333H25.3333V28ZM4 28H6.66667V25.3333H4V28Z" fill="var(--fill-0, black)"/>
</g>
</g>
</svg>
