<svg width="56" height="56" viewBox="0 0 56 56" fill="none" xmlns="http://www.w3.org/2000/svg">
<g filter="url(#filter0_d_6784_181896)">
<path d="M4 25.9985C4 12.7445 14.7445 2 27.9985 2C41.2525 2 51.997 12.7445 51.997 25.9985C51.997 39.2525 41.2525 49.997 27.9985 49.997C14.7445 49.997 4 39.2525 4 25.9985Z" fill="white" shape-rendering="crispEdges"/>
<path d="M27.998 2.5C40.9758 2.5 51.4968 13.0204 51.4971 25.998C51.4971 38.9759 40.9759 49.4971 27.998 49.4971C15.0204 49.4968 4.5 38.9758 4.5 25.998C4.50025 13.0205 15.0205 2.50025 27.998 2.5Z" stroke="#E0DFDF" shape-rendering="crispEdges"/>
<path d="M40.9979 22.4148C40.9871 22.0447 40.8218 21.3618 40.3518 21.244C39.9008 21.1297 37.4045 20.7954 37.4319 21.5819C37.4366 21.7247 37.6853 21.99 37.8495 21.9888L39.6438 21.9817C39.8092 21.9805 40.1293 22.1804 40.1519 22.3327C40.1721 22.4636 40.1007 22.7693 40.0138 22.8717C39.6057 23.3512 39.0334 23.3559 38.3945 23.2786C37.9887 23.2286 37.4771 22.8395 37.2843 22.3136C36.8441 21.1178 36.4788 20.0148 35.966 18.8381C35.6507 18.1123 34.882 17.2948 34.0087 17.2925L22.3612 17.2627C21.2511 17.2591 20.1981 17.7387 19.7959 18.8464L18.3669 22.7836C18.1943 23.2596 17.7113 23.3167 17.2436 23.3155C16.7058 23.3143 16.1288 23.1144 15.9741 22.5873C15.7421 21.7913 16.7975 22.0233 18.004 21.9127C18.2181 21.8924 18.111 21.1357 17.879 21.1309C17.2317 21.1166 16.6975 21.0928 16.143 21.1392C15.3649 21.2047 14.8639 21.9567 15.0305 22.6658C15.2257 23.494 15.8717 23.9461 16.7772 24.1258C16.0728 24.9527 15.6814 25.8998 15.6778 26.9921L15.6635 30.9222C15.6588 32.3608 16.588 31.773 16.4572 33.1925C16.4131 33.666 16.5428 34.5667 17.1651 34.6417C18.3216 34.7797 19.4734 34.7345 20.6657 34.6893C20.9976 34.6774 21.3308 34.1574 21.3439 33.8683L21.401 32.5999H34.7119L34.7202 33.7719C34.725 34.3407 35.1021 34.7345 35.6709 34.7321L38.5384 34.7178C38.893 34.7167 39.432 34.3668 39.4463 34.0218L39.5058 32.4976C39.808 32.1799 40.3137 31.7634 40.3161 31.2827L40.3375 26.9957C40.3423 25.976 39.9877 25.0681 39.3166 24.2222C40.2221 23.8783 41.0252 23.4737 40.9979 22.4148ZM20.4753 19.5175C20.7192 18.8464 21.3403 18.1849 22.1209 18.1849L33.2936 18.1753C34.2443 18.1741 34.9665 18.6548 35.308 19.5544L36.4824 22.6373L19.3414 22.6397L20.4753 19.5175ZM20.5253 33.8635L17.434 33.8897C17.3591 33.4364 17.346 33.0901 17.3602 32.5464L20.5717 32.5714L20.5253 33.8635ZM38.6598 33.8826H35.6281L35.5686 32.5963L38.661 32.5987V33.8826H38.6598ZM39.4856 26.4043L39.4689 30.9151C39.4665 31.4565 38.8918 31.7206 38.3385 31.7194L17.4983 31.6766C17.1496 31.6754 16.5619 31.3767 16.5583 31.0353L16.5178 27.2349C16.4976 25.3989 17.6803 23.883 19.5127 23.5487L36.505 23.5511C38.0435 23.7926 39.1441 24.9111 39.4856 26.4043Z" fill="#0F9D58"/>
<path d="M34.0091 17.1426C34.4929 17.144 34.9364 17.3706 35.2942 17.6807C35.6525 17.9913 35.9375 18.3957 36.1038 18.7783C36.3613 19.3692 36.5821 19.9424 36.7932 20.5166L37.4251 22.2617L37.5022 22.4326C37.5919 22.5974 37.7165 22.7432 37.8557 22.8594C38.0426 23.0154 38.2455 23.1093 38.4124 23.1299L38.6448 23.1533C39.1722 23.196 39.5908 23.1373 39.8997 22.7744C39.9067 22.766 39.9199 22.7438 39.9358 22.7051C39.951 22.6683 39.9652 22.624 39.9768 22.5772C40.0017 22.4768 40.0086 22.3908 40.0032 22.3555C40.0038 22.3596 40.0016 22.3446 39.9739 22.3135C39.9487 22.2853 39.9123 22.2538 39.8684 22.2246C39.8248 22.1956 39.7774 22.171 39.7346 22.1543C39.69 22.1369 39.6594 22.1318 39.6448 22.1319L37.8499 22.1387C37.7713 22.1391 37.6977 22.1087 37.6399 22.0752C37.5799 22.0404 37.5227 21.9946 37.4739 21.9453C37.4249 21.8959 37.3807 21.8393 37.3469 21.7822C37.3231 21.742 37.2995 21.693 37.2883 21.6406L37.2815 21.5869C37.2766 21.4436 37.3314 21.3234 37.4251 21.2305C37.5145 21.1419 37.6359 21.0816 37.7659 21.0391C38.026 20.9541 38.3692 20.9251 38.7122 20.9248C39.4 20.9244 40.1489 21.0382 40.388 21.0987C40.6892 21.1742 40.8756 21.4257 40.9846 21.6748C41.095 21.927 41.1419 22.2096 41.1477 22.4102C41.1625 22.9857 40.9483 23.394 40.6067 23.6983C40.3185 23.9548 39.9413 24.1337 39.552 24.2891C40.1629 25.1134 40.4921 26.0013 40.4876 26.9961L40.4661 31.2832C40.4646 31.5754 40.311 31.8338 40.1399 32.0459C39.9857 32.237 39.7916 32.4184 39.6526 32.5606L39.596 34.0274C39.5858 34.2701 39.3995 34.4812 39.2073 34.6201C39.0101 34.7626 38.7566 34.8665 38.5383 34.8672L35.6712 34.8819C35.3508 34.8832 35.0736 34.7725 34.8762 34.5713C34.6796 34.3707 34.5723 34.0909 34.5696 33.7735L34.5628 32.75H21.5442L21.4934 33.875C21.485 34.0608 21.3801 34.2915 21.2434 34.4727C21.11 34.6496 20.9073 34.8302 20.6712 34.8389C19.4811 34.884 18.317 34.9307 17.1467 34.791C16.7526 34.7435 16.5329 34.4331 16.4202 34.1172C16.3067 33.7989 16.2843 33.4325 16.3079 33.1787C16.3393 32.8381 16.3046 32.635 16.2483 32.4981C16.1924 32.3623 16.1091 32.2762 16.0022 32.1719C15.8963 32.0685 15.7664 31.9461 15.6692 31.751C15.596 31.6041 15.5446 31.4225 15.5237 31.1826L15.513 30.9219L15.5276 26.9912C15.5311 25.9422 15.8804 25.0223 16.5091 24.2158C15.7452 24.0129 15.1634 23.5907 14.93 22.8653L14.8841 22.7002C14.6974 21.9055 15.2572 21.0637 16.1301 20.9903C16.6947 20.943 17.2397 20.9663 17.8821 20.9805L17.9329 20.9873C18.0469 21.0123 18.1185 21.1093 18.1575 21.1807C18.2075 21.2722 18.2408 21.3855 18.2571 21.4932C18.2733 21.6005 18.275 21.7177 18.2532 21.8155C18.2347 21.8981 18.1782 22.0464 18.0178 22.0615C17.7104 22.0897 17.4127 22.0963 17.1487 22.1026C16.8813 22.1089 16.6531 22.1155 16.471 22.1416C16.2827 22.1686 16.1805 22.2125 16.1331 22.2637C16.0986 22.3011 16.0672 22.3723 16.1175 22.5449C16.2424 22.9708 16.7227 23.1638 17.2434 23.1651C17.4748 23.1656 17.6904 23.1518 17.8645 23.0879C18.0306 23.027 18.1571 22.9221 18.2258 22.7324L19.6546 18.7949C20.0855 17.6083 21.212 17.1086 22.3616 17.1123L34.0091 17.1426ZM22.3606 17.4131C21.29 17.4097 20.3103 17.8689 19.9368 18.8975L18.5081 22.835C18.4043 23.1211 18.2024 23.2829 17.9671 23.3692C17.7398 23.4525 17.4795 23.4664 17.2434 23.4658C16.6888 23.4646 16.0149 23.2578 15.8303 22.6299L15.8294 22.6289C15.764 22.4045 15.7777 22.206 15.9133 22.0596C16.0362 21.927 16.2307 21.8731 16.428 21.8447C16.6315 21.8156 16.8795 21.8089 17.1419 21.8028C17.3972 21.7967 17.6721 21.7901 17.9553 21.7656C17.9566 21.7613 17.9598 21.7564 17.9612 21.75C17.9723 21.7001 17.973 21.623 17.9602 21.5381C17.9475 21.4538 17.9233 21.3764 17.8948 21.3242C17.879 21.2954 17.8673 21.2843 17.8626 21.2803C17.2165 21.2659 16.6962 21.2438 16.1555 21.2891C15.4723 21.3465 15.0296 22.0083 15.176 22.6319C15.3531 23.3825 15.935 23.8057 16.8059 23.9785L17.0569 24.0283L16.8909 24.2227C16.207 25.0255 15.831 25.9394 15.8274 26.9922L15.8137 30.9229C15.8126 31.2663 15.8667 31.4745 15.9378 31.6172C16.0093 31.7607 16.1028 31.8502 16.2122 31.9571C16.3206 32.0629 16.4452 32.1859 16.5266 32.3838C16.6076 32.5808 16.6407 32.8371 16.6067 33.2061C16.5863 33.4258 16.6065 33.7475 16.7024 34.0166C16.7992 34.2878 16.9551 34.4657 17.1829 34.4932C18.3255 34.6295 19.4652 34.5844 20.6594 34.5391C20.755 34.5355 20.885 34.45 21.0042 34.292C21.1203 34.138 21.1889 33.9647 21.1936 33.8613L21.2512 32.5928L21.2571 32.4502H34.8606L34.8704 33.7705C34.8725 34.0216 34.956 34.2236 35.0911 34.3613C35.2257 34.4985 35.4219 34.5831 35.6702 34.5821L38.5374 34.5674C38.6736 34.5669 38.867 34.4958 39.0315 34.377C39.2009 34.2545 39.2919 34.1178 39.2962 34.0156L39.3557 32.4922L39.3577 32.4356L39.3967 32.3946C39.5589 32.2241 39.7467 32.0555 39.9065 31.8574C40.0644 31.6618 40.1653 31.4707 40.1663 31.2822L40.1868 26.9951C40.1914 26.0146 39.8518 25.139 39.1985 24.3155L39.0716 24.1543L39.263 24.0821C39.7157 23.9101 40.1196 23.7309 40.4075 23.4746C40.6517 23.2571 40.8153 22.9817 40.844 22.5928L40.8479 22.419C40.843 22.2496 40.8016 22.0059 40.7092 21.7949C40.6154 21.5806 40.4834 21.432 40.3147 21.3897C40.1025 21.3359 39.378 21.2252 38.7122 21.2256C38.3782 21.2258 38.0739 21.2543 37.8596 21.3242C37.7526 21.3592 37.6795 21.4003 37.636 21.4434C37.5969 21.4822 37.5795 21.5241 37.5813 21.5772C37.5818 21.5794 37.5854 21.5972 37.6048 21.6299C37.624 21.6625 37.6528 21.699 37.6868 21.7334C37.7211 21.768 37.7575 21.7974 37.7903 21.8164C37.8254 21.8368 37.8456 21.8389 37.8489 21.8389L39.6428 21.8321L39.7454 21.8438C39.7795 21.8516 39.8128 21.8628 39.844 21.875C39.9085 21.9002 39.9746 21.9348 40.0344 21.9746C40.0938 22.0141 40.1513 22.0615 40.1975 22.1133C40.2411 22.1622 40.2879 22.2298 40.3001 22.3096L40.305 22.3877C40.3046 22.4706 40.2894 22.5664 40.2688 22.6494C40.2543 22.7078 40.2351 22.7672 40.2132 22.8203C40.2026 22.8458 40.1902 22.8721 40.176 22.8975L40.1282 22.9688C39.6649 23.5131 39.0159 23.5052 38.3762 23.4278C38.1375 23.3984 37.8818 23.2722 37.6633 23.0899C37.4435 22.9063 37.2496 22.6564 37.1428 22.3653C36.7008 21.1645 36.3386 20.0693 35.8284 18.8985C35.6793 18.5554 35.421 18.1873 35.0979 17.9072C34.7744 17.6268 34.3974 17.4435 34.0081 17.4424L22.3606 17.4131ZM20.5725 32.4209L20.7268 32.4229L20.721 32.5772L20.6751 33.8692L20.6702 34.0127L20.5266 34.0137L17.3069 34.041L17.2854 33.9141C17.2084 33.4483 17.1958 33.0914 17.2102 32.542L17.2141 32.3955L20.5725 32.4209ZM38.6604 32.4483L38.8108 32.4492V34.0322H35.4846L35.4778 33.8897L35.4182 32.6035L35.4114 32.4463L38.6604 32.4483ZM17.5081 32.6973C17.501 33.103 17.5132 33.3959 17.5628 33.7373L20.3801 33.7149L20.4153 32.7197L17.5081 32.6973ZM35.7708 33.7324H38.511V32.7481L35.7249 32.7461L35.7708 33.7324ZM36.5169 23.4014L36.5276 23.4033C38.1316 23.6552 39.2771 24.8231 39.6311 26.3711L39.635 26.3877V26.4053L39.6184 30.916C39.6169 31.2487 39.4363 31.4929 39.1897 31.6475C38.9472 31.7995 38.6358 31.8698 38.3382 31.8692L17.4973 31.8262C17.2889 31.8254 17.0277 31.7394 16.8196 31.6113C16.7142 31.5464 16.615 31.466 16.5403 31.3731C16.4659 31.2803 16.4099 31.1662 16.4085 31.0371L16.3675 27.2363C16.3465 25.3309 17.5781 23.7495 19.4856 23.4014L19.4993 23.3985L36.5169 23.4014ZM19.5305 23.6983C17.7785 24.0222 16.6478 25.4701 16.6673 27.2334L16.7083 31.0332C16.7087 31.0747 16.7271 31.1264 16.7747 31.1856C16.822 31.2444 16.8917 31.3031 16.9768 31.3555C17.1505 31.4623 17.3581 31.5258 17.4983 31.5264L38.3382 31.5694C38.5938 31.5699 38.8468 31.5087 39.0305 31.3936C39.21 31.281 39.3177 31.1225 39.3186 30.9141L39.3342 26.4219C39.0018 24.9948 37.9538 23.9338 36.4915 23.7002L19.5305 23.6983ZM33.2932 18.0254C33.7943 18.0248 34.2432 18.1517 34.6135 18.4033C34.9839 18.6551 35.2673 19.0263 35.4475 19.501L36.6223 22.584L36.6995 22.7871L19.1272 22.7901L20.3342 19.4658C20.5899 18.763 21.2523 18.0353 22.1204 18.0352L33.2932 18.0254ZM22.1204 18.335C21.428 18.3351 20.8488 18.9295 20.6165 19.5684L19.554 22.4883L36.2639 22.4873L35.1673 19.6074C35.0061 19.183 34.7581 18.8645 34.4446 18.6514C34.1308 18.4381 33.7428 18.3247 33.2932 18.3252L22.1204 18.335Z" fill="#0F9D58"/>
<path d="M34.1422 30.6998L21.7523 30.7045C21.4512 30.7045 21.4143 29.8918 21.694 29.8895L34.1815 29.8823C34.3171 29.8823 34.5313 30.1572 34.561 30.2738C34.5896 30.3892 34.3004 30.6998 34.1422 30.6998Z" fill="#0F9D58"/>
<path d="M34.1813 29.7319C34.2612 29.732 34.3314 29.7706 34.3796 29.8042C34.4314 29.8404 34.4802 29.887 34.5222 29.9341C34.5647 29.9818 34.6045 30.034 34.6354 30.0835C34.6501 30.1069 34.664 30.1328 34.6764 30.1587L34.7057 30.2368L34.7067 30.2378C34.7188 30.2869 34.7111 30.3327 34.7018 30.3657C34.6922 30.4002 34.6764 30.433 34.6598 30.4624C34.6266 30.5214 34.5805 30.5817 34.53 30.6343C34.4792 30.6871 34.4192 30.7372 34.3581 30.7759C34.3014 30.8117 34.2245 30.85 34.1423 30.8501L21.7516 30.855C21.5979 30.8548 21.4989 30.7482 21.445 30.6489C21.3901 30.5479 21.362 30.4228 21.3552 30.3062C21.3484 30.19 21.362 30.0646 21.404 29.9614C21.4448 29.8611 21.5333 29.7412 21.6921 29.7397L34.1813 29.7319ZM21.7018 30.0386C21.698 30.0422 21.6905 30.0521 21.6813 30.0747C21.6612 30.1244 21.6499 30.2026 21.655 30.2896C21.6601 30.3762 21.6808 30.455 21.7087 30.5063C21.7222 30.531 21.7341 30.5444 21.7419 30.5503C21.7475 30.5546 21.7502 30.5542 21.7516 30.5542L34.1423 30.5493C34.1462 30.5483 34.1646 30.544 34.1979 30.5229C34.2346 30.4998 34.2755 30.4654 34.3132 30.4263C34.3511 30.3869 34.3812 30.3466 34.3991 30.3149C34.4033 30.3074 34.4047 30.3004 34.4069 30.2954C34.4016 30.2836 34.3945 30.2649 34.3805 30.2427C34.3588 30.208 34.3301 30.1697 34.2985 30.1343C34.2665 30.0983 34.2348 30.0692 34.2077 30.0503C34.1767 30.0287 34.1692 30.0327 34.1813 30.0327L21.7018 30.0386Z" fill="#0F9D58"/>
<path d="M38.2432 25.2672C37.5971 24.3688 36.4656 24.2011 35.5708 24.6889C34.6998 25.1649 34.2679 26.1858 34.5939 27.1662C34.9069 28.1038 35.81 28.7225 36.8475 28.5893C37.8018 28.4667 38.6549 27.7219 38.6394 26.5713C38.6323 26.1132 38.4681 25.5777 38.2432 25.2672ZM36.6905 27.7492C35.9587 27.7861 35.3923 27.3256 35.3507 26.5713C35.315 25.918 35.8135 25.2981 36.5453 25.2708C37.2461 25.2458 37.7649 25.7812 37.8137 26.3535C37.8803 27.121 37.3675 27.7135 36.6905 27.7492Z" fill="#0F9D58"/>
<path d="M35.499 24.5572C36.4529 24.0371 37.6703 24.2132 38.3652 25.1792H38.3642C38.6101 25.5189 38.7815 26.0856 38.789 26.5689C38.8057 27.8084 37.8827 28.6073 36.8662 28.7378C35.7542 28.8805 34.7856 28.2155 34.4511 27.2134C34.1017 26.1623 34.5663 25.0669 35.499 24.5572ZM38.121 25.355C37.5238 24.5246 36.4781 24.3653 35.6425 24.8208C34.8336 25.263 34.4339 26.2092 34.7363 27.1187C35.0276 27.9916 35.8652 28.5645 36.8281 28.441C37.7199 28.3264 38.5033 27.6352 38.4892 26.5738C38.4825 26.1409 38.3258 25.6365 38.122 25.355H38.121ZM36.54 25.1207C37.3234 25.0928 37.9073 25.6916 37.9628 26.3404C38.0316 27.1318 37.5362 27.7739 36.8398 27.8843L36.6982 27.899C36.2988 27.9191 35.935 27.8037 35.664 27.5708C35.3922 27.3372 35.224 26.9941 35.2011 26.5796C35.1611 25.8475 35.7197 25.1513 36.54 25.1207ZM36.4326 25.4312C35.8546 25.513 35.4706 26.0247 35.5 26.563C35.5187 26.9029 35.6546 27.1673 35.8593 27.3433C36.0648 27.5199 36.3503 27.6159 36.6826 27.5992L36.791 27.5884C37.3224 27.5042 37.7201 27.0142 37.664 26.3667C37.6218 25.8712 37.1686 25.3985 36.5507 25.4205L36.4326 25.4312Z" fill="#0F9D58"/>
<path d="M20.9309 25.1385C20.1111 24.2783 18.7868 24.1938 17.955 25.0862C17.121 25.9797 17.1519 27.3778 18.1169 28.1477C18.8284 28.7164 19.9552 28.7545 20.7108 28.1607C21.7305 27.3588 21.6995 25.9452 20.9309 25.1385ZM19.973 27.642C19.3293 27.9168 18.6023 27.68 18.3049 27.0827C18.0062 26.4831 18.2811 25.6835 18.9605 25.3931C19.6197 25.1112 20.3371 25.4455 20.5656 26.0999C20.7667 26.6758 20.5382 27.4004 19.973 27.642Z" fill="#0F9D58"/>
<path d="M17.8458 24.9835C18.7437 24.0206 20.1676 24.1208 21.0392 25.0352C21.8628 25.8996 21.8994 27.4165 20.8038 28.2784C19.9916 28.9166 18.7876 28.8754 18.0236 28.2647C17.0485 27.4868 16.9648 26.1194 17.6896 25.168L17.8458 24.9835ZM20.8224 25.2422C20.1026 24.4869 18.9821 24.3789 18.214 25.045L18.0646 25.1885C17.2842 26.0247 17.3206 27.3204 18.2101 28.0303H18.2111C18.8701 28.557 19.9195 28.5922 20.6183 28.043C21.5617 27.301 21.5359 25.9912 20.8224 25.2422ZM18.9015 25.2549C19.6422 24.9381 20.4507 25.3161 20.7072 26.0508C20.9278 26.683 20.6864 27.5008 20.0324 27.7803C19.3238 28.0829 18.5077 27.8256 18.171 27.1495C17.8333 26.4712 18.1442 25.5786 18.9015 25.2549ZM20.424 26.1495C20.2236 25.5754 19.5973 25.2842 19.0197 25.5313C18.4182 25.7883 18.1801 26.4946 18.4396 27.0157C18.6978 27.5342 19.3354 27.7511 19.9142 27.504C20.3903 27.3005 20.6054 26.6691 20.424 26.1495Z" fill="#0F9D58"/>
<path d="M33.0435 26.346C33.0483 26.5256 32.8008 26.7172 32.5676 26.7172L23.6734 26.7113C23.4854 26.7113 23.2391 26.4864 23.2284 26.3364C23.2165 26.183 23.4866 25.876 23.6639 25.876L32.5997 25.8807C32.84 25.8807 33.0387 26.1247 33.0435 26.346Z" fill="#0F9D58"/>
<path d="M32.6001 25.7305C32.7723 25.7306 32.9197 25.8179 33.021 25.9297C33.1217 26.0408 33.1903 26.1902 33.1938 26.3418L33.1899 26.4004C33.1715 26.5328 33.0813 26.6443 32.9868 26.7178C32.8745 26.8051 32.7227 26.8671 32.5679 26.8672L23.6733 26.8613C23.5276 26.8613 23.3854 26.779 23.2866 26.6934C23.2346 26.6482 23.1871 26.5955 23.1509 26.54C23.1159 26.4865 23.0838 26.4193 23.0786 26.3467L23.0796 26.3457C23.0741 26.2664 23.1023 26.189 23.1333 26.1299C23.1668 26.0661 23.2138 26.0031 23.2651 25.9473C23.3164 25.8915 23.3762 25.8385 23.4399 25.7988C23.501 25.7608 23.5794 25.7257 23.6636 25.7256L32.6001 25.7305ZM23.5991 26.0537C23.5628 26.0764 23.5227 26.1103 23.4858 26.1504C23.449 26.1905 23.4183 26.2326 23.3989 26.2695L23.3784 26.3252V26.3291C23.379 26.3316 23.3806 26.3354 23.3823 26.3398C23.3861 26.3493 23.3926 26.3617 23.4019 26.376C23.4207 26.4048 23.4486 26.437 23.4829 26.4668C23.5569 26.5309 23.6312 26.5615 23.6733 26.5615L32.5679 26.5674C32.6459 26.5673 32.7339 26.5335 32.8022 26.4805C32.8385 26.4523 32.8618 26.4252 32.8755 26.4023L32.8931 26.3496C32.8916 26.2802 32.8581 26.1968 32.7983 26.1309C32.7393 26.0658 32.6679 26.0304 32.6001 26.0303L23.6636 26.0264C23.6585 26.0265 23.637 26.0302 23.5991 26.0537Z" fill="#0F9D58"/>
<path d="M32.6999 28.1317C32.7035 28.2614 32.5012 28.5505 32.2953 28.5505L23.663 28.5469C23.4916 28.5469 23.2275 28.2661 23.2227 28.1174C23.218 27.9639 23.4524 27.7212 23.6737 27.7212L32.3941 27.7307C32.5488 27.7307 32.6963 28.0222 32.6999 28.1317Z" fill="#0F9D58"/>
<path d="M32.3942 27.5806C32.4802 27.5807 32.5511 27.6208 32.6012 27.6616C32.6524 27.7034 32.6955 27.7567 32.7291 27.8081C32.7632 27.8602 32.7918 27.9163 32.8121 27.9683C32.8313 28.0171 32.8475 28.0742 32.8493 28.1265V28.1274C32.8511 28.1943 32.8284 28.2625 32.8024 28.3169C32.7747 28.3748 32.736 28.4343 32.6901 28.4878C32.6044 28.5878 32.4635 28.7007 32.2946 28.7007L23.6627 28.6968C23.5823 28.6968 23.5068 28.6654 23.4469 28.6304C23.3846 28.5939 23.3243 28.5453 23.2731 28.4937C23.2219 28.442 23.1755 28.383 23.1403 28.3237C23.1072 28.268 23.0754 28.1968 23.0729 28.1226V28.1216C23.0707 28.0465 23.0963 27.9752 23.1286 27.9175C23.1618 27.8579 23.2079 27.8014 23.2604 27.7524C23.3623 27.6575 23.5115 27.5708 23.6735 27.5708L32.3942 27.5806ZM23.6735 27.8716C23.6141 27.8716 23.5349 27.9065 23.4655 27.9712C23.4324 28.002 23.4064 28.035 23.3903 28.064C23.3824 28.0781 23.3774 28.09 23.3746 28.0991C23.3719 28.1082 23.3727 28.1128 23.3727 28.1128C23.3731 28.1151 23.3766 28.1343 23.3981 28.1704C23.419 28.2056 23.4502 28.2456 23.4869 28.2827C23.5237 28.3197 23.5629 28.3509 23.5983 28.3716C23.636 28.3936 23.6577 28.397 23.6627 28.397L32.2946 28.4009C32.3314 28.4009 32.3957 28.3692 32.4616 28.2925C32.4915 28.2576 32.5162 28.2197 32.5319 28.187L32.5494 28.1362C32.5493 28.1348 32.5489 28.1292 32.5465 28.1196C32.5436 28.1083 32.5393 28.094 32.5328 28.0776C32.5198 28.0443 32.5007 28.0066 32.4782 27.9722C32.4552 27.9371 32.4318 27.9103 32.4118 27.894C32.3906 27.8768 32.3853 27.8804 32.3942 27.8804H32.3932L23.6735 27.8716Z" fill="#0F9D58"/>
<path d="M19.7137 30.8343L17.7195 30.8462C17.585 30.8462 17.3375 30.5761 17.2816 30.4536C17.2162 30.3108 17.4006 29.9146 17.56 29.9146H19.6494C19.8208 29.9146 20.1039 30.1156 20.1361 30.2596C20.1777 30.4452 19.9743 30.8319 19.7137 30.8343Z" fill="#0F9D58"/>
<path d="M19.6502 29.7642C19.7819 29.7643 19.9266 29.8358 20.032 29.9106C20.088 29.9504 20.1413 29.9974 20.1844 30.0474C20.2254 30.0949 20.2673 30.1566 20.283 30.2271C20.3007 30.3062 20.2902 30.3919 20.2693 30.4673C20.2477 30.5452 20.2109 30.6254 20.1639 30.6978C20.0748 30.8344 19.9201 30.9819 19.7156 30.9839H19.7146L17.7205 30.9966H17.7195C17.6424 30.9965 17.5718 30.9606 17.5222 30.9292C17.4679 30.8948 17.4144 30.8491 17.367 30.8032C17.2757 30.7149 17.1845 30.602 17.1453 30.5161C17.1096 30.4382 17.1153 30.3491 17.1277 30.2817C17.1412 30.2089 17.1679 30.1327 17.2019 30.064C17.2358 29.9956 17.281 29.9272 17.3338 29.8735C17.3825 29.824 17.4603 29.7642 17.5603 29.7642H19.6502ZM17.5476 30.0835C17.5231 30.1085 17.4955 30.1484 17.4715 30.1968C17.4477 30.2449 17.4303 30.2949 17.4226 30.3364C17.4165 30.3694 17.4182 30.3863 17.4187 30.3911L17.4734 30.4741C17.5007 30.5091 17.536 30.5497 17.576 30.5884C17.6139 30.6251 17.6509 30.6553 17.6824 30.6753C17.7006 30.6868 17.7126 30.6925 17.7185 30.6948L19.7127 30.6841L19.7576 30.6753C19.806 30.6573 19.8622 30.6115 19.9129 30.5337C19.944 30.4859 19.9673 30.434 19.9803 30.3872C19.9938 30.3381 19.993 30.306 19.99 30.2925C19.99 30.2925 19.9885 30.288 19.9832 30.2788C19.9777 30.2693 19.9689 30.2567 19.9568 30.2427C19.9324 30.2145 19.8982 30.1842 19.8582 30.1558C19.7717 30.0944 19.6898 30.0652 19.6502 30.0649H17.5701C17.5663 30.0673 17.5586 30.0723 17.5476 30.0835Z" fill="#0F9D58"/>
<path d="M38.5027 30.7959C37.4711 30.8744 35.8969 31.1005 35.8684 30.3842C35.86 30.1891 36.1206 29.9356 36.3526 29.938L38.4289 29.9523C38.6752 29.9535 38.749 30.7769 38.5027 30.7959Z" fill="#0F9D58"/>
<path d="M38.43 29.8023L38.4847 29.8081C38.6048 29.8339 38.6769 29.9395 38.7142 30.0161C38.7621 30.1149 38.7898 30.2378 38.8001 30.354C38.8104 30.4698 38.8047 30.5949 38.7738 30.6987C38.7461 30.7914 38.6755 30.9332 38.515 30.9458H38.514C38.0085 30.9843 37.3409 31.0613 36.8031 31.0376C36.5345 31.0258 36.2783 30.989 36.0833 30.898C35.8802 30.803 35.729 30.6402 35.7191 30.3902C35.7124 30.2302 35.8106 30.0792 35.9183 29.978C36.0287 29.8743 36.1868 29.7861 36.3538 29.7876V29.7886L38.43 29.8023ZM36.2991 30.0943C36.2436 30.108 36.1801 30.1435 36.1234 30.1968C36.0454 30.2702 36.0176 30.3424 36.0189 30.3775V30.3784C36.0232 30.4862 36.0786 30.5639 36.2103 30.6255C36.3507 30.6911 36.5592 30.7265 36.8167 30.7378C37.3238 30.7601 37.9483 30.6874 38.47 30.647C38.4735 30.6407 38.4813 30.6307 38.4866 30.6128C38.5032 30.5569 38.5095 30.4725 38.5013 30.3804C38.4931 30.2884 38.4721 30.2035 38.4447 30.147C38.4298 30.1165 38.418 30.1052 38.4134 30.1011L36.3519 30.0884L36.2991 30.0943Z" fill="#0F9D58"/>
</g>
<defs>
<filter id="filter0_d_6784_181896" x="0" y="0" width="55.9971" height="55.9971" filterUnits="userSpaceOnUse" color-interpolation-filters="sRGB">
<feFlood flood-opacity="0" result="BackgroundImageFix"/>
<feColorMatrix in="SourceAlpha" type="matrix" values="0 0 0 0 0 0 0 0 0 0 0 0 0 0 0 0 0 0 127 0" result="hardAlpha"/>
<feOffset dy="2"/>
<feGaussianBlur stdDeviation="2"/>
<feComposite in2="hardAlpha" operator="out"/>
<feColorMatrix type="matrix" values="0 0 0 0 0 0 0 0 0 0 0 0 0 0 0 0 0 0 0.16 0"/>
<feBlend mode="normal" in2="BackgroundImageFix" result="effect1_dropShadow_6784_181896"/>
<feBlend mode="normal" in="SourceGraphic" in2="effect1_dropShadow_6784_181896" result="shape"/>
</filter>
</defs>
</svg>
