<svg width="56" height="56" viewBox="0 0 56 56" fill="none" xmlns="http://www.w3.org/2000/svg">
<g filter="url(#filter0_d_6784_181852)">
<path d="M4 25.9985C4 12.7445 14.7445 2 27.9985 2C41.2525 2 51.997 12.7445 51.997 25.9985C51.997 39.2525 41.2525 49.997 27.9985 49.997C14.7445 49.997 4 39.2525 4 25.9985Z" fill="white" shape-rendering="crispEdges"/>
<path d="M27.998 2.5C40.9758 2.5 51.4968 13.0204 51.4971 25.998C51.4971 38.9759 40.9759 49.4971 27.998 49.4971C15.0204 49.4968 4.5 38.9758 4.5 25.998C4.50025 13.0205 15.0205 2.50025 27.998 2.5Z" stroke="#E0DFDF" shape-rendering="crispEdges"/>
<path d="M39.648 25.2203L37.855 23.7041V17.2342C37.855 16.7558 37.437 16.4561 37.0129 16.4537L33.5962 16.4441C33.3376 16.4429 32.8181 16.7123 32.8121 16.9636L32.7613 19.1939L28.2838 15.3108C27.9697 15.0389 27.4501 15.0027 27.1046 15.3229L16.4001 25.2191C16.1113 25.4861 15.9398 25.9996 16.0171 26.2835C16.2829 27.2525 18.1242 26.9372 18.8962 27.0157L18.8901 34.1996L18.1773 34.2624C17.3666 34.3349 16.835 34.8604 16.8676 35.6252C16.8966 36.2885 17.3642 36.9023 18.1797 36.9023L37.9517 36.8999C38.7902 36.8999 39.2553 36.2015 39.2505 35.4802C39.2384 34.0437 37.3404 34.4327 37.3404 34.0328L37.344 27.0169C38.2405 26.9408 39.7881 27.2525 39.9899 26.1675C40.0394 25.8969 39.8691 25.4064 39.648 25.2203ZM36.9924 17.3719L36.9622 22.9018L33.7243 20.1145L33.711 17.3502L36.9924 17.3719ZM37.8285 35.1709C38.0568 35.2628 38.2622 35.3872 38.3081 35.5153C38.3721 35.6893 38.1957 36.0517 37.8707 36.0517H18.303C18.0227 36.0517 17.7569 35.8089 17.7689 35.6264C17.781 35.4367 18.042 35.1734 18.3078 35.1734L37.8285 35.1709ZM26.3736 27.6041C25.9266 27.6693 25.6197 27.9943 25.6234 28.4486L25.6149 34.2503L19.7854 34.2563L19.7733 26.3415L26.1453 20.506L27.8356 18.9945L36.4475 26.4164L36.456 34.2467L30.8246 34.2539L30.8149 28.3495C30.7727 27.9484 30.525 27.6572 30.1251 27.6053H26.3736V27.6041ZM29.8943 34.2346L26.4884 34.2515L26.5017 28.4776L29.8871 28.4824L29.8943 34.2346ZM37.4902 26.0322C36.549 25.3037 35.7371 24.615 34.8007 23.8104L28.4191 18.3228C28.0289 17.9869 27.5263 17.9869 27.1288 18.353L19.2852 25.5731C18.1882 26.5832 16.7915 26.0648 17.0706 25.8075L27.6978 16.0164L32.2176 19.955L38.4591 25.4257C38.7382 25.5864 38.9412 25.7531 39.1224 26.0552C38.6367 26.1591 37.8671 26.3234 37.4902 26.0322Z" fill="#0F9D58"/>
<path d="M37.7553 17.2343C37.7553 16.8253 37.3968 16.5559 37.0122 16.5537L33.5961 16.5439C33.4927 16.5434 33.3163 16.6007 33.1616 16.6943C33.0858 16.7402 33.021 16.792 32.976 16.8427C32.9299 16.8948 32.9123 16.9365 32.9116 16.9658L32.8608 19.1963L32.8569 19.4091L28.2182 15.3867C27.9383 15.1445 27.4764 15.1147 27.1723 15.3964L16.4682 25.2929C16.3386 25.4128 16.2308 25.5924 16.1655 25.7783C16.0995 25.9662 16.0828 26.1427 16.1137 26.2568C16.1708 26.4647 16.3111 26.6074 16.5141 26.706C16.72 26.8061 16.9855 26.8581 17.2758 26.8838C17.5651 26.9093 17.8712 26.9076 18.1567 26.9043C18.4389 26.9009 18.7066 26.8956 18.9067 26.916L18.9965 26.9257L18.9897 34.291L18.8989 34.2988L18.186 34.3623C17.7999 34.3968 17.4883 34.538 17.2778 34.7539C17.0682 34.9688 16.952 35.2642 16.9672 35.6211C16.9944 36.2407 17.4276 36.8027 18.1801 36.8027L37.9516 36.7998C38.7186 36.7998 39.1552 36.1643 39.1508 35.4814L39.144 35.3613C39.1187 35.0934 39.0163 34.9091 38.8774 34.7763C38.7153 34.6214 38.4957 34.5282 38.2641 34.4638C38.149 34.4318 38.0331 34.4076 37.9223 34.3857C37.8131 34.3642 37.7052 34.3449 37.6137 34.3232C37.5237 34.3019 37.4372 34.2757 37.3715 34.2373C37.3035 34.1974 37.2408 34.1324 37.2407 34.0332L37.2436 26.9248L37.3354 26.917C37.5653 26.8974 37.8365 26.9027 38.1079 26.9043C38.3822 26.9058 38.6598 26.9037 38.9145 26.8711C39.1699 26.8383 39.393 26.7763 39.562 26.664C39.7271 26.5543 39.8456 26.3936 39.8911 26.1494L39.8989 26.0566C39.8978 25.9537 39.8727 25.8246 39.8266 25.6953C39.7807 25.5665 39.7184 25.4498 39.6518 25.3672L39.5835 25.2968L37.7905 23.7802L37.7553 23.75V17.2343ZM37.8481 35.0713L37.8657 35.0781C37.9839 35.1256 38.0993 35.183 38.1928 35.247C38.2825 35.3084 38.3676 35.3861 38.4018 35.4804C38.4263 35.547 38.4257 35.623 38.4106 35.6933C38.3951 35.765 38.3632 35.8389 38.3178 35.9052C38.2273 36.0378 38.0738 36.1513 37.8706 36.1513H18.3032C18.1353 36.1513 17.9761 36.0798 17.8618 35.9843C17.7519 35.8925 17.6604 35.7581 17.6694 35.6201C17.6778 35.4886 17.7665 35.3523 17.8764 35.2539C17.9886 35.1535 18.1434 35.0732 18.3081 35.0732L37.8481 35.0713ZM18.3081 35.2734C18.207 35.2734 18.098 35.3247 18.0102 35.4033C17.9426 35.4639 17.8984 35.5301 17.8794 35.5839L17.8686 35.6328C17.8657 35.6771 17.9008 35.7559 17.9907 35.831C18.0763 35.9024 18.1909 35.9521 18.3032 35.9521H37.8706C37.9923 35.9521 38.0899 35.8841 38.1528 35.792C38.1841 35.7461 38.2046 35.6965 38.2143 35.6513C38.2243 35.6049 38.2218 35.5701 38.2143 35.5498C38.2024 35.5165 38.1615 35.4676 38.0805 35.4121C38.0064 35.3614 37.9103 35.3133 37.8061 35.2705L18.3081 35.2734ZM27.9008 18.9189L36.5131 26.3408L36.5473 26.3701V26.416L36.5561 34.2461V34.3466H36.4565L30.8247 34.3535L30.7251 34.3545L30.7241 34.2539L30.7153 28.3603L30.6928 28.2295C30.6212 27.9406 30.4184 27.7459 30.1167 27.705H26.3794C25.9821 27.7666 25.7199 28.0513 25.7231 28.4482L25.7153 34.25L25.7143 34.3505H25.6147L19.7856 34.3564H19.686L19.685 34.2568L19.6733 26.3418V26.2978L19.7055 26.2675L26.0776 20.4326L26.0786 20.4316L27.8344 18.8613L27.9008 18.9189ZM26.5014 28.3779L29.8872 28.3828H29.9868V28.4824L29.9946 34.2343V34.3339L29.895 34.3349L26.4887 34.3515H26.3881V34.2509L26.4018 28.4775V28.3779H26.5014ZM26.2124 20.58L19.8735 26.3847L19.8842 34.1552L25.5151 34.1504L25.5229 28.4482C25.5194 27.9401 25.8675 27.5767 26.3588 27.5048L26.4741 27.4882V27.5048H30.1381C30.5899 27.5636 30.868 27.8983 30.9145 28.3388L30.9155 28.3496L30.9233 34.1533L36.3549 34.1464L36.3471 26.4619L27.8364 19.1269L26.2124 20.58ZM26.5883 34.1504L29.7934 34.1347L29.7866 28.581L26.601 28.5771L26.5883 34.1504ZM27.7631 15.9414L32.2836 19.8798L38.517 25.3437C38.8027 25.5091 39.0181 25.6865 39.2085 26.0039L39.2797 26.124L39.143 26.1533C38.9014 26.205 38.5799 26.2738 38.271 26.292C38.0048 26.3076 37.7279 26.2864 37.5161 26.1679L37.4292 26.1113C36.4858 25.3811 35.6723 24.6905 34.7358 23.8857L28.354 18.3984C28.1754 18.2447 27.9755 18.1716 27.7788 18.1748C27.582 18.1781 27.3796 18.2583 27.1967 18.4267L19.353 25.6464C18.7815 26.1727 18.1292 26.303 17.6538 26.2656C17.4181 26.247 17.2182 26.1859 17.0913 26.1054C17.0295 26.0663 16.9715 26.0142 16.9467 25.9472C16.9336 25.9116 16.93 25.872 16.9409 25.832C16.9516 25.7927 16.9744 25.7602 17.0024 25.7343L27.6303 15.9423L27.6958 15.8818L27.7631 15.9414ZM17.1381 25.8808C17.1433 25.8901 17.1569 25.9116 17.1977 25.9375C17.2883 25.9949 17.4539 26.0484 17.6694 26.0654C18.0966 26.099 18.6918 25.9835 19.2172 25.5L27.061 18.2793L27.143 18.2099C27.3377 18.0578 27.5549 17.9783 27.7749 17.9746C28.0261 17.9703 28.2723 18.0651 28.4838 18.247L34.8657 23.7343C35.8018 24.5388 36.6122 25.2262 37.5512 25.9531L37.6147 25.9951C37.7732 26.0831 38.0003 26.107 38.2592 26.0918C38.4956 26.0779 38.7417 26.0299 38.9565 25.9853C38.8064 25.7757 38.6369 25.6435 38.4096 25.5127L38.4008 25.5078L32.1518 20.0302L27.6987 16.1494L17.1381 25.8808ZM33.7114 17.25L36.9926 17.2714L37.0932 17.2724L37.0922 17.372L37.061 23.1191L36.8969 22.9775L33.6586 20.1904L33.6245 20.1601V20.1152L33.6108 17.3505V17.25H33.7114ZM33.8237 20.0683L36.8628 22.6836L36.8911 17.4707L33.811 17.4502L33.8237 20.0683ZM37.9545 23.6572L39.7124 25.1435L39.8051 25.2392C39.8927 25.347 39.964 25.4883 40.0141 25.6289C40.0642 25.7694 40.0972 25.9223 40.0981 26.0576L40.0883 26.1855C40.0329 26.4836 39.8821 26.6907 39.6723 26.83C39.4664 26.9668 39.2086 27.0348 38.9399 27.0693C38.6706 27.1038 38.381 27.106 38.1069 27.1045C37.867 27.1031 37.6408 27.1013 37.4428 27.1123L37.4399 34.0332C37.4396 34.0353 37.4402 34.0456 37.4721 34.0644C37.5103 34.0868 37.5727 34.1071 37.6606 34.1279C37.747 34.1484 37.8472 34.1671 37.9604 34.1894C38.0725 34.2115 38.195 34.2373 38.3178 34.2714C38.562 34.3393 38.819 34.4434 39.0161 34.6318C39.1916 34.7997 39.3134 35.0288 39.3432 35.3408L39.3501 35.4795C39.3551 36.239 38.8614 37 37.9516 37L18.1801 37.0019C17.3019 37.0019 16.7991 36.3366 16.768 35.6298C16.7506 35.222 16.8835 34.8714 17.1342 34.6142C17.3841 34.358 17.7439 34.201 18.1684 34.163L18.7905 34.1074L18.7954 27.1113C18.6215 27.101 18.4035 27.1016 18.1596 27.1045C17.8747 27.1078 17.5588 27.1095 17.2583 27.083C16.9588 27.0565 16.6653 27.0013 16.4272 26.8857C16.1861 26.7685 15.9962 26.5861 15.9204 26.3095C15.8742 26.1398 15.9046 25.918 15.977 25.7119C16.0503 25.5033 16.1733 25.2926 16.3325 25.1455L27.0366 15.249C27.4235 14.8907 28.0008 14.9339 28.3491 15.2353L32.6655 18.9785L32.7124 16.9609C32.7148 16.8647 32.7647 16.7788 32.8256 16.7099C32.8879 16.6396 32.9709 16.5761 33.0581 16.5234C33.2289 16.4201 33.4413 16.3431 33.5961 16.3437L37.0131 16.3535C37.4767 16.3561 37.9545 16.6865 37.9545 17.2343V23.6572Z" fill="#0F9D58"/>
<path d="M29.5196 32.1065C29.4713 32.3011 29.1632 32.4654 28.8962 32.3506C28.7645 32.2938 28.6799 31.9362 28.727 31.8154C28.7802 31.6752 29.0569 31.4783 29.2478 31.5109C29.4822 31.552 29.5704 31.9036 29.5196 32.1065Z" fill="#0F9D58"/>
<path d="M29.2646 31.4127L29.3242 31.4284C29.4564 31.476 29.5395 31.5955 29.584 31.7125C29.6353 31.8475 29.647 32.0069 29.6162 32.1305C29.5822 32.2673 29.4645 32.3772 29.33 32.4362C29.1925 32.4965 29.0193 32.513 28.8564 32.443C28.7947 32.4164 28.7513 32.3612 28.7216 32.3112C28.6904 32.2584 28.6659 32.196 28.6484 32.1344C28.6309 32.0726 28.6191 32.008 28.6152 31.9489C28.6115 31.8927 28.614 31.8297 28.6338 31.7789H28.6347C28.6548 31.7269 28.6913 31.6769 28.7324 31.6344C28.7748 31.5906 28.8269 31.5495 28.8828 31.5143C28.9904 31.4466 29.1332 31.3903 29.2646 31.4127ZM29.2304 31.61C29.171 31.6 29.0807 31.6257 28.9892 31.6832C28.9456 31.7107 28.9063 31.7427 28.8759 31.7741C28.8447 31.8064 28.8269 31.8337 28.8203 31.8512V31.8522C28.8165 31.8621 28.8115 31.8892 28.8144 31.9352C28.8173 31.9788 28.8267 32.03 28.8408 32.0797C28.855 32.1298 28.8734 32.1756 28.8935 32.2096C28.9146 32.245 28.9309 32.2562 28.9355 32.2584C29.0396 32.3032 29.1547 32.2953 29.25 32.2536C29.3483 32.2104 29.4085 32.1403 29.4228 32.0827C29.4426 32.0034 29.436 31.8855 29.3974 31.7838C29.3582 31.6807 29.2976 31.6218 29.2304 31.61Z" fill="#0F9D58"/>
</g>
<defs>
<filter id="filter0_d_6784_181852" x="0" y="0" width="55.9971" height="55.9971" filterUnits="userSpaceOnUse" color-interpolation-filters="sRGB">
<feFlood flood-opacity="0" result="BackgroundImageFix"/>
<feColorMatrix in="SourceAlpha" type="matrix" values="0 0 0 0 0 0 0 0 0 0 0 0 0 0 0 0 0 0 127 0" result="hardAlpha"/>
<feOffset dy="2"/>
<feGaussianBlur stdDeviation="2"/>
<feComposite in2="hardAlpha" operator="out"/>
<feColorMatrix type="matrix" values="0 0 0 0 0 0 0 0 0 0 0 0 0 0 0 0 0 0 0.16 0"/>
<feBlend mode="normal" in2="BackgroundImageFix" result="effect1_dropShadow_6784_181852"/>
<feBlend mode="normal" in="SourceGraphic" in2="effect1_dropShadow_6784_181852" result="shape"/>
</filter>
</defs>
</svg>
