<svg width="56" height="56" viewBox="0 0 56 56" fill="none" xmlns="http://www.w3.org/2000/svg">
<g filter="url(#filter0_d_6784_181840)">
<path d="M4 25.9985C4 12.7445 14.7445 2 27.9985 2C41.2525 2 51.997 12.7445 51.997 25.9985C51.997 39.2525 41.2525 49.997 27.9985 49.997C14.7445 49.997 4 39.2525 4 25.9985Z" fill="white" shape-rendering="crispEdges"/>
<path d="M27.998 2.5C40.9758 2.5 51.4968 13.0204 51.4971 25.998C51.4971 38.9759 40.9759 49.4971 27.998 49.4971C15.0204 49.4968 4.5 38.9758 4.5 25.998C4.50025 13.0205 15.0205 2.50025 27.998 2.5Z" stroke="#E0DFDF" shape-rendering="crispEdges"/>
<path d="M39.2256 19.6387L16.7576 19.6284C16.1432 19.6284 15.3089 20.1607 15.2997 20.7649L15.237 25.175C15.2256 25.9809 15.6371 26.4539 16.516 26.6101V34.181C16.516 34.939 16.94 35.974 17.8747 35.974L38.0094 35.9888C38.8141 35.9888 39.522 35.3038 39.522 34.5195L39.5254 26.6397C40.1227 26.4813 40.7131 26.0037 40.7188 25.3859L40.761 21.3963C40.7701 20.5574 40.2458 19.6387 39.2256 19.6387ZM39.082 25.9022L34.2752 26.7582C34.062 26.797 33.7896 27.0045 33.7964 27.164C33.8044 27.3703 34.1361 27.6599 34.3698 27.6211L38.7013 26.8905L38.7081 34.409C38.7092 34.7008 38.4254 35.1453 38.0048 35.1453L18.2075 35.1419C17.763 35.1419 17.4096 34.8262 17.4096 34.4021L17.4233 26.8494L21.8608 27.5915C22.0375 27.6211 22.3384 27.4034 22.3886 27.2404C22.449 27.0455 22.2495 26.7993 21.9817 26.7514L16.8796 25.8464C16.6824 25.811 16.1432 25.6115 16.1432 25.4132L16.1318 21.304C16.1307 20.9142 16.3997 20.5084 16.8545 20.5084H39.033C39.4319 20.5084 39.8503 20.8059 39.8503 21.1832L39.8548 25.4816C39.6462 25.6594 39.3225 25.86 39.082 25.9022Z" fill="#0F9D58"/>
<path d="M16.2782 34.1809V26.8025C15.8971 26.708 15.5866 26.5443 15.3649 26.2942C15.104 25.9998 14.9925 25.6164 14.9988 25.1718L15.062 20.7611C15.0683 20.3511 15.3478 20.0063 15.6613 19.7781C15.9797 19.5463 16.3903 19.3906 16.7577 19.3906L39.2256 19.4008C39.8158 19.4009 40.2689 19.6702 40.5673 20.0578C40.8611 20.4395 41.0034 20.9326 40.9984 21.3985L40.9566 25.3883C40.9529 25.7766 40.7652 26.1075 40.5097 26.3556C40.2996 26.5595 40.035 26.7143 39.7617 26.8127L39.7598 34.5201C39.7596 35.4422 38.9384 36.2269 38.0093 36.2269L17.8745 36.2121C17.3042 36.212 16.8971 35.8907 16.6434 35.4882C16.3933 35.0913 16.2782 34.5977 16.2782 34.1809ZM39.6121 21.183C39.612 21.087 39.5585 20.9813 39.4439 20.8912C39.3296 20.8013 39.1768 20.7464 39.0332 20.7463H16.8543C16.5713 20.7463 16.3684 21.0015 16.3693 21.3038L16.3804 25.3735C16.3826 25.3755 16.385 25.3783 16.3879 25.3809C16.4195 25.4086 16.4723 25.4424 16.543 25.4775C16.6854 25.5481 16.8479 25.5991 16.9212 25.6122L22.0232 26.5172L22.1616 26.5553C22.2944 26.6053 22.4087 26.6891 22.4915 26.7895C22.5854 26.9033 22.6575 27.0645 22.6327 27.2364L22.616 27.3107C22.5896 27.3963 22.5377 27.47 22.4878 27.5263C22.4355 27.5852 22.3725 27.6391 22.3066 27.6843C22.2409 27.7293 22.1665 27.7697 22.0892 27.7967C22.0148 27.8227 21.9198 27.8428 21.8216 27.8264L17.6599 27.1296L17.6469 34.403C17.6473 34.6762 17.8745 34.9037 18.2072 34.9038L38.0047 34.9075L38.0939 34.8954C38.1814 34.8724 38.2629 34.8161 38.3317 34.7338C38.4265 34.6203 38.4703 34.4894 38.4702 34.4104L38.4637 27.1714L34.4088 27.8562C34.1915 27.8922 33.9804 27.7788 33.8467 27.6685C33.7738 27.6084 33.707 27.5353 33.6562 27.4566C33.6073 27.3807 33.5629 27.2824 33.5587 27.1732C33.5546 27.0659 33.5968 26.9735 33.6395 26.9084C33.6841 26.8405 33.7427 26.7811 33.803 26.7319C33.9209 26.6357 34.078 26.5528 34.2323 26.5247L34.2332 26.5238L39.0397 25.668C39.1213 25.6537 39.2362 25.608 39.3631 25.5361C39.4527 25.4853 39.5388 25.4239 39.6158 25.3651L39.6121 21.183ZM16.754 34.1809C16.754 34.5219 16.8504 34.9246 17.0457 35.2346C17.2377 35.5391 17.5101 35.7363 17.8745 35.7363L38.0093 35.7512L38.1357 35.7447C38.7613 35.678 39.2839 35.1256 39.2841 34.5201L39.2869 26.6399L39.2878 26.4569L39.4644 26.4095C39.7274 26.3397 39.987 26.1998 40.178 26.0146C40.3683 25.8299 40.4788 25.6131 40.4809 25.3837L40.5227 21.3939L40.519 21.2536C40.4966 20.9261 40.3844 20.599 40.191 20.3477C39.9745 20.0664 39.6553 19.8766 39.2256 19.8766L16.7577 19.8664C16.5107 19.8664 16.1965 19.9774 15.9419 20.1628C15.6824 20.3516 15.5406 20.5747 15.5377 20.7686L15.4745 25.1783C15.4694 25.5396 15.559 25.7958 15.7207 25.9783C15.8847 26.1634 16.15 26.3036 16.557 26.376L16.754 26.4104V34.1809ZM40.0925 25.4812V25.5918L40.0089 25.6624C39.8932 25.761 39.7477 25.8643 39.5972 25.9495C39.4501 26.0329 39.2814 26.1075 39.1224 26.1354L39.1234 26.1363L34.3169 26.9911L34.3178 26.992C34.259 27.0027 34.173 27.0428 34.1031 27.0998C34.072 27.1252 34.0518 27.1489 34.04 27.1658C34.0432 27.1734 34.0467 27.1852 34.0558 27.1992C34.0767 27.2316 34.1093 27.2682 34.1496 27.3015C34.1897 27.3345 34.2318 27.3587 34.2685 27.373C34.3047 27.3871 34.3247 27.3866 34.3299 27.386L38.9385 26.6092L38.9394 26.8908L38.9459 34.4086L38.9413 34.4885C38.9211 34.679 38.8298 34.8805 38.6969 35.0395C38.542 35.2247 38.3041 35.3832 38.0047 35.3832L18.2072 35.3795C17.6512 35.3794 17.1711 34.9764 17.1711 34.4021L17.1851 26.849L17.186 26.5683L17.462 26.6148L21.8996 27.3572C21.8902 27.3557 21.8995 27.3593 21.9321 27.3479C21.9624 27.3374 21.9993 27.3181 22.0371 27.2922C22.0748 27.2663 22.1081 27.2372 22.1319 27.2104C22.152 27.1877 22.1591 27.1736 22.1607 27.1704C22.1598 27.1734 22.1677 27.1449 22.1245 27.0924C22.0832 27.0424 22.0159 26.9992 21.9396 26.9855L16.8376 26.0805C16.7136 26.0583 16.5076 25.9915 16.3312 25.904C16.2428 25.8601 16.1484 25.805 16.0729 25.7386C16.0062 25.68 15.9061 25.5699 15.9056 25.4143L15.8936 21.3047C15.8922 20.8273 16.2278 20.2706 16.8543 20.2705H39.0332C39.2883 20.2706 39.5441 20.3648 39.7385 20.5177C39.9325 20.6705 40.0877 20.902 40.0878 21.183L40.0925 25.4812Z" fill="#0F9D58"/>
<path d="M31.4817 16.9414L24.7952 16.9436C24.6117 16.9436 24.3279 17.2366 24.329 17.4007L24.3393 18.7138C24.3416 18.9498 24.1626 19.2051 23.9449 19.2393C23.1402 19.3636 23.416 17.3939 23.5072 16.8912C23.5984 16.3885 24.2584 16.0078 24.7622 16.0078L31.5444 16.0135C32.0334 16.0135 32.6786 16.4341 32.7322 16.8901C32.8074 17.5238 32.9875 19.1174 32.4689 19.3544C32.348 19.4103 31.9434 19.2883 31.9422 19.1561L31.9263 17.4383C31.924 17.2252 31.7849 16.9402 31.4806 16.9402L31.4817 16.9414Z" fill="#0F9D58"/>
<path d="M31.5441 15.7756C31.849 15.7756 32.1798 15.9035 32.4389 16.0869C32.6931 16.2668 32.9302 16.5379 32.9685 16.8618L33.0326 17.4899C33.0524 17.7382 33.0659 18.0129 33.0605 18.276C33.0551 18.5378 33.0306 18.8027 32.9676 19.0239C32.9073 19.2353 32.7953 19.4672 32.568 19.5712L32.5671 19.5703C32.4765 19.6117 32.3754 19.6084 32.3116 19.6019C32.2364 19.5941 32.1562 19.5759 32.083 19.5508C32.0113 19.5261 31.9329 19.4907 31.8674 19.443C31.8153 19.4049 31.7054 19.3113 31.7039 19.1586L31.6881 17.4406C31.6874 17.3789 31.6654 17.305 31.6259 17.252C31.5941 17.2095 31.5544 17.1835 31.4958 17.1795L24.7947 17.1814C24.8071 17.1814 24.7975 17.1785 24.7631 17.1981C24.7322 17.2159 24.6958 17.2441 24.6609 17.279C24.6261 17.3138 24.5983 17.3495 24.581 17.3793C24.5729 17.3932 24.5689 17.4024 24.5671 17.4072L24.5773 18.7117L24.5661 18.8418C24.5442 18.9707 24.4901 19.0928 24.4165 19.193C24.3194 19.3254 24.1696 19.445 23.9817 19.4746C23.8319 19.4976 23.6884 19.4727 23.5654 19.3965C23.447 19.323 23.3665 19.2135 23.3108 19.1001C23.2023 18.8788 23.1624 18.5876 23.152 18.3094C23.1308 17.7438 23.2261 17.1057 23.2727 16.8488C23.3342 16.5099 23.5793 16.2406 23.8488 16.0627C24.1207 15.8832 24.4566 15.77 24.7622 15.77L31.5441 15.7756ZM24.6061 16.2597C24.4434 16.2878 24.2661 16.357 24.1108 16.4595C23.9018 16.5974 23.7709 16.7697 23.741 16.9333C23.6965 17.1791 23.6084 17.7779 23.6277 18.2917C23.6375 18.5532 23.6742 18.7623 23.7373 18.8911C23.7673 18.9522 23.7964 18.9799 23.8163 18.9923C23.8319 19.002 23.8571 19.0123 23.9083 19.0044L23.964 18.9793C23.9857 18.9645 24.0098 18.9429 24.0328 18.9115C24.078 18.8499 24.1021 18.7764 24.1016 18.7164L24.0913 17.4025C24.0906 17.2999 24.131 17.2067 24.1694 17.1405C24.2107 17.0693 24.2657 17.0015 24.3245 16.9426C24.3834 16.8837 24.4524 16.8279 24.5262 16.7856C24.5963 16.7454 24.6906 16.7058 24.7947 16.7057L30.9076 16.7038L30.9058 16.702H31.48C31.7169 16.702 31.8951 16.8173 32.0068 16.9668C32.1133 17.1094 32.1622 17.2847 32.1638 17.436L32.1787 19.0722C32.1945 19.0802 32.2135 19.0926 32.2382 19.101C32.2812 19.1158 32.3252 19.1254 32.3599 19.1289C32.3691 19.1299 32.3765 19.1288 32.3822 19.1289C32.4155 19.1058 32.4672 19.0451 32.5104 18.8938C32.5571 18.7299 32.5806 18.5119 32.5857 18.2667C32.5957 17.7782 32.5333 17.2364 32.4955 16.9185C32.4799 16.7867 32.3675 16.6194 32.1638 16.4752C32.0145 16.3695 31.8444 16.296 31.6909 16.2662L31.5441 16.2513L24.7622 16.2457L24.6061 16.2597Z" fill="#0F9D58"/>
<path d="M30.5086 24.1185C29.0143 23.2477 27.1882 23.2101 25.6106 24.1527C24.3146 24.9267 23.356 26.3424 23.2078 28.0157C22.9513 30.8916 25.1 33.3229 27.993 33.3674C29.5842 33.3924 30.9589 32.7484 31.9586 31.4558C33.8416 29.0211 33.1497 25.6585 30.5086 24.1185ZM28.5162 32.4726C26.6992 32.6139 25.1638 31.7408 24.432 30.2658C23.6478 28.6848 23.9852 26.8382 25.2048 25.5855C26.4177 24.342 28.1263 24.0148 29.7119 24.7067C30.9179 25.2322 31.7921 26.3105 32.068 27.4754C32.6208 29.8167 30.9327 32.2856 28.5162 32.4726Z" fill="#0F9D58"/>
<path d="M25.4885 23.949C27.1423 22.9608 29.0613 22.9994 30.6285 23.9127C33.3915 25.5238 34.1193 29.0511 32.1468 31.6015C31.1008 32.9539 29.6543 33.6319 27.9888 33.6057C24.9552 33.5588 22.7019 31.0054 22.9704 27.9945C23.1256 26.2431 24.1292 24.7608 25.4885 23.949ZM30.3888 24.3244C28.9674 23.496 27.2341 23.4599 25.7328 24.3569C24.5003 25.0929 23.5857 26.4415 23.4443 28.0363V28.0373C23.2001 30.7777 25.2443 33.0875 27.9962 33.13C29.5132 33.1539 30.8171 32.5433 31.7705 31.3107C33.5641 28.9916 32.9078 25.7933 30.3888 24.3244ZM25.0341 25.4198C26.3164 24.105 28.1315 23.7576 29.8072 24.4888C31.0807 25.0439 32.0058 26.182 32.2992 27.4203V27.4212C32.8832 29.8954 31.1053 32.5111 28.5342 32.71C26.6264 32.8583 24.9966 31.9382 24.2192 30.3713C23.388 28.6956 23.7477 26.7413 25.0341 25.4198ZM29.6167 24.9246C28.2147 24.3128 26.718 24.5443 25.5944 25.5415L25.3751 25.7515C24.2224 26.9355 23.9076 28.6742 24.6448 30.1604C25.331 31.5433 26.7721 32.3694 28.498 32.2352C30.6891 32.0655 32.2575 29.8811 31.8792 27.7371L31.8364 27.5299C31.5941 26.5071 30.8556 25.5485 29.8267 25.024L29.6167 24.9246Z" fill="#0F9D58"/>
<path d="M28.7823 31.0076C28.5133 31.1421 28.3002 31.2834 28.0756 31.4179L26.6941 30.5527C26.5573 30.4673 26.4889 30.0706 26.5972 29.9532C27.1477 29.3582 27.6744 30.9665 28.7926 30.0603C28.9339 29.9452 29.0217 29.5497 28.9613 29.3833C28.7493 28.7974 27.7051 29.0812 26.9551 28.4873C26.2438 27.9254 26.4023 26.7205 27.1626 26.3113C28.0984 25.8064 27.5798 25.5681 28.1828 25.4952C28.3743 25.4713 28.5088 25.7311 28.5874 25.9773L29.3511 26.4834C29.4719 26.5632 29.5928 26.8699 29.5495 27.0055C29.497 27.1719 29.1414 27.3885 29.0206 27.2802C28.7584 27.0431 28.5019 26.7946 28.2762 26.7684C27.9685 26.7319 27.541 26.912 27.3917 27.1776C27.313 27.3178 27.3495 27.7099 27.4521 27.8228C27.9115 28.3266 28.9898 28.0302 29.5198 28.7506C30.1274 29.577 29.6441 30.579 28.7823 31.0076Z" fill="#0F9D58"/>
<path d="M28.1535 25.2594C28.3796 25.2311 28.5349 25.3784 28.6199 25.4954C28.6902 25.5922 28.7412 25.7096 28.7816 25.8197L29.4822 26.2852C29.5505 26.3303 29.6022 26.3938 29.6383 26.4487C29.6765 26.5069 29.7088 26.573 29.734 26.6382C29.759 26.7033 29.7787 26.774 29.7888 26.8436C29.7982 26.9086 29.8029 26.994 29.7767 27.0768C29.747 27.1711 29.6845 27.2487 29.629 27.3035C29.5699 27.3617 29.4991 27.4137 29.4264 27.454C29.3552 27.4936 29.2699 27.5282 29.1821 27.5414C29.1098 27.5522 29.0007 27.5523 28.9033 27.4884L28.8615 27.4568C28.725 27.3334 28.6054 27.2215 28.4908 27.1344C28.3722 27.0443 28.295 27.0098 28.2492 27.0043H28.2483C28.1469 26.9923 28.0066 27.0163 27.8719 27.0768C27.736 27.1379 27.6401 27.2201 27.5988 27.2933L27.5997 27.2942C27.5982 27.2993 27.5936 27.3154 27.5904 27.3463C27.5863 27.3865 27.5865 27.4365 27.5913 27.4884C27.5962 27.5405 27.6053 27.5883 27.6164 27.625C27.6293 27.6675 27.6372 27.6728 27.6276 27.6622C27.7024 27.7443 27.8117 27.8036 27.9658 27.8517C28.1241 27.9011 28.2989 27.9308 28.5066 27.9725C28.8991 28.0513 29.3875 28.1694 29.7117 28.6099C30.066 29.0921 30.104 29.6343 29.9254 30.1114C29.7493 30.5815 29.3669 30.9829 28.8884 31.2208V31.2199C28.6303 31.349 28.4332 31.4814 28.1981 31.6222L28.0726 31.6966L27.9491 31.6195L26.5683 30.7544C26.4777 30.6978 26.423 30.609 26.3909 30.5407C26.3561 30.4666 26.3326 30.3835 26.3193 30.3038C26.3061 30.2242 26.301 30.1377 26.311 30.0557C26.3201 29.9803 26.346 29.8748 26.4225 29.7918L26.4959 29.7212C26.5724 29.6569 26.6582 29.6115 26.7542 29.5911C26.8804 29.5643 26.9977 29.5863 27.097 29.6227C27.194 29.6583 27.2858 29.7126 27.3665 29.7639C27.4075 29.79 27.4494 29.8175 27.4891 29.8438C27.5296 29.8707 27.5692 29.8968 27.609 29.9219C27.7712 30.0241 27.9171 30.0949 28.0708 30.1049C28.2144 30.1143 28.3993 30.0721 28.6422 29.8754C28.6443 29.873 28.6563 29.8593 28.6729 29.8253C28.6911 29.7878 28.7084 29.7393 28.7212 29.6859C28.734 29.6325 28.7412 29.5795 28.7426 29.5354C28.7432 29.5136 28.7422 29.4958 28.7407 29.4824C28.7395 29.4721 28.7384 29.4665 28.7379 29.4647V29.4638C28.7122 29.3929 28.6629 29.3412 28.5632 29.2947C28.4539 29.2437 28.3082 29.2102 28.1135 29.1711C27.7454 29.0973 27.2351 29.0129 26.8071 28.674V28.6731C26.3761 28.3321 26.2183 27.804 26.271 27.3165C26.3236 26.8307 26.5887 26.3504 27.0496 26.1021C27.2693 25.9836 27.3913 25.8875 27.4622 25.815C27.5294 25.7463 27.5579 25.6921 27.583 25.6394C27.6044 25.5943 27.6483 25.4787 27.7521 25.396C27.8562 25.313 27.9924 25.2799 28.1535 25.2603V25.2594ZM28.1971 25.7333C28.0758 25.7491 28.0485 25.7686 28.0485 25.7686C28.0507 25.7668 28.0533 25.7565 28.0122 25.8429C27.9747 25.9219 27.9197 26.0275 27.8023 26.1477C27.7169 26.2349 27.6026 26.3253 27.4464 26.4218L27.2754 26.5202C26.9763 26.6813 26.7828 27.0084 26.7439 27.3676C26.7053 27.725 26.8231 28.0796 27.1026 28.3005C27.4245 28.5554 27.8121 28.6256 28.2064 28.7047C28.3928 28.7421 28.5955 28.7845 28.7649 28.8636C28.9439 28.9472 29.1045 29.0803 29.1848 29.3021L29.2034 29.3644C29.2175 29.4277 29.2201 29.4928 29.2183 29.5502C29.2158 29.6307 29.2032 29.7158 29.1839 29.7964C29.1647 29.8769 29.1373 29.9592 29.1012 30.0334C29.0669 30.1039 29.0164 30.1846 28.9433 30.2443L28.9423 30.2452C28.6265 30.5011 28.3267 30.5984 28.0401 30.5797C27.7634 30.5617 27.5333 30.4364 27.3553 30.3242C27.3102 30.2958 27.2665 30.2674 27.2262 30.2406C27.185 30.2132 27.1473 30.1884 27.111 30.1653C27.037 30.1183 26.9807 30.087 26.9335 30.0696C26.8889 30.0532 26.8659 30.0541 26.8536 30.0566C26.844 30.0587 26.8218 30.0667 26.7858 30.1021C26.7852 30.1051 26.7844 30.109 26.7839 30.1133C26.7806 30.1413 26.7811 30.181 26.7885 30.2257C26.7959 30.2703 26.808 30.3102 26.8211 30.3381C26.826 30.3486 26.8308 30.355 26.8331 30.3586L28.0773 31.1381C28.2561 31.0284 28.4492 30.9076 28.6757 30.7944H28.6766C29.0597 30.6038 29.3502 30.2896 29.4794 29.9451C29.59 29.6499 29.585 29.3278 29.4125 29.0215L29.3279 28.8915C29.1221 28.6118 28.8066 28.518 28.4127 28.439C28.2273 28.4017 28.0132 28.3653 27.8236 28.3061C27.654 28.2531 27.4811 28.1753 27.3368 28.0431L27.2764 27.9827C27.2154 27.9157 27.1815 27.8296 27.1611 27.7625C27.1391 27.6897 27.1247 27.6095 27.1175 27.5321C27.1102 27.4546 27.1096 27.3732 27.1175 27.297C27.1249 27.2258 27.1415 27.1374 27.1844 27.061L27.229 26.9913C27.3409 26.8347 27.5093 26.7182 27.6768 26.6429C27.8701 26.5561 28.0977 26.508 28.304 26.5323L28.435 26.5621C28.5632 26.6045 28.6803 26.6805 28.7788 26.7553C28.898 26.8458 29.0204 26.9589 29.1337 27.0619C29.1494 27.0568 29.1709 27.0512 29.1951 27.0378C29.2328 27.0168 29.2684 26.9901 29.2945 26.9644C29.3078 26.9513 29.3154 26.9413 29.3196 26.9356C29.3194 26.9308 29.3202 26.9232 29.3186 26.9123C29.3145 26.884 29.3046 26.8476 29.2898 26.8092C29.2751 26.7709 29.2576 26.7358 29.2406 26.7098L29.2201 26.6819L28.4564 26.1755L28.3867 26.1291L28.3607 26.0492C28.3245 25.9361 28.2807 25.8378 28.2352 25.7751C28.2173 25.7504 28.2041 25.7387 28.1971 25.7333Z" fill="#0F9D58"/>
</g>
<defs>
<filter id="filter0_d_6784_181840" x="0" y="0" width="55.9971" height="55.9971" filterUnits="userSpaceOnUse" color-interpolation-filters="sRGB">
<feFlood flood-opacity="0" result="BackgroundImageFix"/>
<feColorMatrix in="SourceAlpha" type="matrix" values="0 0 0 0 0 0 0 0 0 0 0 0 0 0 0 0 0 0 127 0" result="hardAlpha"/>
<feOffset dy="2"/>
<feGaussianBlur stdDeviation="2"/>
<feComposite in2="hardAlpha" operator="out"/>
<feColorMatrix type="matrix" values="0 0 0 0 0 0 0 0 0 0 0 0 0 0 0 0 0 0 0.16 0"/>
<feBlend mode="normal" in2="BackgroundImageFix" result="effect1_dropShadow_6784_181840"/>
<feBlend mode="normal" in="SourceGraphic" in2="effect1_dropShadow_6784_181840" result="shape"/>
</filter>
</defs>
</svg>
