<svg width="56" height="56" viewBox="0 0 56 56" fill="none" xmlns="http://www.w3.org/2000/svg">
<g filter="url(#filter0_d_6784_181916)">
<path d="M4 25.9985C4 12.7445 14.7445 2 27.9985 2C41.2525 2 51.997 12.7445 51.997 25.9985C51.997 39.2525 41.2525 49.997 27.9985 49.997C14.7445 49.997 4 39.2525 4 25.9985Z" fill="white" shape-rendering="crispEdges"/>
<path d="M27.998 2.5C40.9758 2.5 51.4968 13.0204 51.4971 25.998C51.4971 38.9759 40.9759 49.4971 27.998 49.4971C15.0204 49.4968 4.5 38.9758 4.5 25.998C4.50025 13.0205 15.0205 2.50025 27.998 2.5Z" stroke="#E0DFDF" shape-rendering="crispEdges"/>
<path d="M30.9213 18.2368C29.346 17.2573 27.3511 17.1361 25.6445 17.889C22.8439 19.1255 21.8554 22.4197 23.3881 25.0318L24.4607 26.8607C25.1048 27.958 25.2675 29.9978 25.2349 31.2646C25.2203 31.8435 25.3236 32.39 25.9149 32.6469L25.9452 34.9459C25.9485 35.1849 26.1707 35.6483 26.3166 35.8547L27.6641 37.7622C27.7494 37.8811 28.0478 38.0214 28.1735 37.9956C28.6425 37.8979 30.0675 35.6988 30.0809 35.4845L30.2638 32.6256C31.2029 31.5193 30.4983 31.7145 30.8675 29.4503C30.9718 28.8107 30.9471 28.0971 31.2265 27.5125C31.6001 26.7339 32.0276 26.0405 32.4888 25.3246C34.0607 22.8831 33.4167 19.7863 30.9213 18.2368ZM28.4181 29.3874C28.1735 29.4155 27.8403 29.4222 27.5328 29.4065L27.5037 26.8786C27.4835 25.1114 26.5836 24.6267 26.4411 23.9131C26.422 23.8166 26.8215 23.82 26.9034 23.8851L28.0198 24.7793L28.794 24.0623C28.9825 23.8862 29.4044 23.811 29.5917 23.9311C28.0209 26.4175 28.5505 26.4937 28.4181 29.3874ZM29.8868 30.1706C30.0147 30.1717 30.0843 30.4668 30.036 30.5442C29.9755 30.6419 29.7544 30.7496 29.6187 30.7484L26.4355 30.7092C26.3368 30.708 26.1292 30.6441 26.0473 30.6015C25.9642 30.5577 26.0204 30.2424 26.0877 30.1549L29.8868 30.1706ZM26.7283 32.7254L27.6865 32.7052L27.7247 34.7484C27.4823 34.8561 27.0201 34.8831 26.7553 34.7888L26.7283 32.7254ZM28.1365 36.9599C27.6933 36.4326 27.4431 36.0982 27.0818 35.5473L29.1171 35.5597C28.7659 36.1678 28.5516 36.4573 28.1365 36.9599ZM28.4147 34.7933L28.3766 32.7333L29.4616 32.6918L29.4661 34.8113L28.4147 34.7933ZM29.7701 31.8828L26.4288 31.8952C26.3008 31.8952 26.1225 31.7728 26.0596 31.719C25.9957 31.664 26.0832 31.3532 26.2021 31.3521L29.7903 31.3476C29.879 31.3476 30.0271 31.4879 30.0675 31.544C30.1202 31.6191 29.8958 31.8828 29.7701 31.8828ZM31.6742 25.0654C30.7676 26.3524 30.1224 27.7269 30.1202 29.365C29.8655 29.475 29.5311 29.4626 29.2114 29.3852C29.2024 28.2688 29.1575 27.2354 29.2843 26.1022C29.3797 25.2494 30.5353 24.2329 30.4366 23.7403C30.394 23.5249 30.0585 23.2208 29.8509 23.1591C29.1463 22.9504 28.5673 23.388 28.031 23.8615C27.3466 23.351 26.4837 22.7406 25.6983 23.3734C25.4044 23.6102 25.6736 24.2722 25.8779 24.5358C26.5219 25.3605 26.7227 26.22 26.7205 27.2298L26.716 29.4065C26.468 29.4323 26.1124 29.4334 25.888 29.3975C25.9037 26.542 24.4989 25.88 23.7662 23.8918C23.0122 21.8452 23.8638 19.7224 25.8105 18.7159C27.3365 17.9283 29.2652 18.0943 30.6677 19.0682C32.7188 20.4943 33.0879 23.0581 31.6742 25.0654Z" fill="#0F9D58"/>
<path d="M25.5838 17.752C27.3345 16.9796 29.3823 17.103 31.0008 18.1094C33.5693 19.7043 34.2312 22.8961 32.6151 25.4063C32.1549 26.1207 31.7315 26.8074 31.3622 27.5772C31.2329 27.8475 31.1709 28.153 31.1297 28.4795C31.0901 28.794 31.0677 29.1547 31.0155 29.4746C30.8339 30.5883 30.9167 31.0877 30.9295 31.4668C30.9362 31.664 30.924 31.8387 30.8407 32.0391C30.7635 32.2245 30.6272 32.4221 30.409 32.6826L30.2303 35.4941C30.2278 35.5341 30.2124 35.5754 30.201 35.6035C30.1875 35.6368 30.1697 35.6757 30.1483 35.7178C30.105 35.8028 30.0438 35.9099 29.9715 36.0303C29.8267 36.2715 29.6309 36.5731 29.4208 36.8701C29.2108 37.1668 28.9842 37.4632 28.7792 37.6924C28.6768 37.8067 28.5769 37.907 28.4852 37.9834C28.3985 38.0557 28.3011 38.1224 28.204 38.1426C28.1404 38.1556 28.0721 38.1461 28.0174 38.1328C27.9591 38.1187 27.898 38.0959 27.8407 38.0693C27.7331 38.0196 27.6076 37.9414 27.5419 37.8496L26.1942 35.9414C26.1138 35.8276 26.0164 35.6499 25.9393 35.4717C25.8645 35.2987 25.797 35.0997 25.7948 34.9482L25.7655 32.7402C25.4855 32.5947 25.3104 32.3828 25.2088 32.1328C25.0994 31.8633 25.0773 31.5575 25.0848 31.2607L25.0877 30.7588C25.0801 30.2272 25.0398 29.6176 24.953 29.0205C24.8367 28.2211 24.6381 27.4599 24.3309 26.9365L23.2586 25.1074C21.6824 22.4209 22.6984 19.0259 25.5838 17.752ZM30.8417 18.3643C29.3096 17.4117 27.3673 17.293 25.7049 18.0264C22.9894 19.2253 22.0285 22.4185 23.5174 24.9561L24.5897 26.7852C24.9265 27.3591 25.1319 28.1661 25.2499 28.9775C25.3683 29.7925 25.4011 30.6279 25.3846 31.2686C25.3775 31.5507 25.3999 31.8079 25.4862 32.0205C25.5595 32.2009 25.6808 32.3543 25.8827 32.4648L25.9745 32.5098L26.0633 32.5479L26.0643 32.6445L26.0946 34.9434C26.0958 35.0307 26.1413 35.1828 26.2147 35.3525C26.286 35.5174 26.3739 35.676 26.4393 35.7686L27.785 37.6748C27.8046 37.702 27.8724 37.7533 27.9667 37.7969C28.0101 37.817 28.0523 37.8322 28.0877 37.8408C28.1215 37.849 28.1388 37.8478 28.1424 37.8477C28.1626 37.8435 28.2128 37.8204 28.2938 37.7529C28.3698 37.6896 28.4583 37.6008 28.5555 37.4922C28.7499 37.2749 28.969 36.9893 29.1756 36.6973C29.3819 36.4057 29.574 36.1103 29.7147 35.876C29.785 35.7588 29.8418 35.6585 29.8807 35.582C29.9003 35.5436 29.9146 35.5126 29.9237 35.4902C29.9345 35.4634 29.9324 35.462 29.9315 35.4746L30.1141 32.6162L30.117 32.5664L30.1493 32.5283C30.381 32.2553 30.5006 32.0745 30.5633 31.9238C30.6236 31.779 30.6357 31.6527 30.6297 31.4775C30.6173 31.1117 30.5321 30.576 30.7196 29.4258C30.7717 29.1064 30.789 28.7905 30.8329 28.4424C30.8753 28.106 30.9405 27.7615 31.0907 27.4473C31.4685 26.6599 31.9003 25.9602 32.3622 25.2432C33.8421 22.9445 33.3015 20.0557 31.0643 18.5098L30.8417 18.3643ZM27.0829 35.3975L29.118 35.4092L29.3758 35.4111L29.2469 35.6348C28.8908 36.2515 28.6711 36.548 28.2518 37.0557L28.1376 37.1943L28.0213 37.0566C27.5746 36.5251 27.3206 36.186 26.9559 35.6299L26.8026 35.3955L27.0829 35.3975ZM27.3641 35.6982C27.6145 36.0685 27.8273 36.3507 28.1346 36.7217C28.4222 36.3681 28.61 36.1106 28.8524 35.708L27.3641 35.6982ZM27.8749 34.7461L27.8768 34.8447L27.785 34.8857C27.6408 34.9497 27.4448 34.9852 27.2557 34.9941C27.0664 35.003 26.8627 34.9859 26.7049 34.9297L26.6063 34.8955L26.6053 34.791L26.576 32.5781L27.6835 32.5557L27.8338 32.5518L27.8749 34.7461ZM29.6112 32.6914L29.6161 34.8106V34.9639L29.4637 34.9609L28.412 34.9434L28.2674 34.9404L28.2645 34.7959L28.2264 32.7363L28.2235 32.5889L28.371 32.583L29.6112 32.5361V32.6914ZM26.8797 32.8711L26.9032 34.6729C26.9998 34.6921 27.1181 34.7001 27.2411 34.6943C27.3641 34.6886 27.4802 34.6691 27.5721 34.6426L27.5379 32.8584L26.8797 32.8711ZM28.5282 32.877L28.5614 34.6455L29.3153 34.6582L29.3114 32.8477L28.5282 32.877ZM29.7899 31.1973C29.8475 31.1973 29.8992 31.219 29.9344 31.2373C29.9725 31.2571 30.0087 31.2829 30.0399 31.3076C30.0701 31.3316 30.1 31.3578 30.1258 31.3838L30.1893 31.4561L30.1903 31.458C30.2239 31.5061 30.2278 31.5579 30.2245 31.5938C30.2211 31.6298 30.2097 31.6631 30.1981 31.6895C30.1746 31.7425 30.1373 31.795 30.0985 31.8398C30.0592 31.8852 30.012 31.9295 29.9618 31.9639C29.9275 31.9873 29.8801 32.0144 29.826 32.0264L29.7704 32.0332L26.4295 32.0449C26.3264 32.0449 26.2214 31.9988 26.1483 31.959C26.1095 31.9379 26.0727 31.9145 26.0409 31.8926L25.9618 31.833C25.9216 31.7985 25.9049 31.7544 25.8973 31.7246C25.8894 31.6934 25.8878 31.6619 25.8885 31.6348C25.8901 31.58 25.9016 31.5202 25.9198 31.4668C25.9378 31.4139 25.965 31.3562 26.0028 31.3086C26.0374 31.265 26.104 31.2031 26.201 31.2022L29.7899 31.1973ZM26.2342 31.501C26.2249 31.5145 26.2133 31.5359 26.204 31.5635C26.1959 31.5873 26.1924 31.6101 26.1903 31.6279C26.217 31.6476 26.2522 31.6737 26.2919 31.6953C26.3546 31.7295 26.4027 31.7437 26.4276 31.7441L29.7694 31.7324C29.755 31.7324 29.7621 31.7371 29.7919 31.7168C29.8171 31.6995 29.8462 31.6733 29.8719 31.6436C29.8873 31.6258 29.897 31.6071 29.9061 31.5928C29.8909 31.5778 29.874 31.5583 29.8534 31.542C29.8316 31.5248 29.8115 31.5121 29.7958 31.5039C29.7895 31.5007 29.7854 31.4989 29.7831 31.4981L26.2342 31.501ZM26.0877 30.0049L29.8876 30.0205L29.953 30.0303C30.0133 30.0483 30.0578 30.0887 30.0868 30.124C30.1259 30.172 30.1526 30.2297 30.1698 30.2822C30.1873 30.3358 30.1986 30.3932 30.201 30.4463C30.2031 30.4914 30.2002 30.5643 30.1629 30.624L30.162 30.6231C30.1088 30.7084 30.0083 30.776 29.9217 30.8184C29.854 30.8515 29.7728 30.8805 29.6942 30.8926L29.617 30.8984L26.4335 30.8594C26.3626 30.8585 26.2695 30.8374 26.1932 30.8154C26.1539 30.8041 26.1135 30.7902 26.076 30.7764L25.9774 30.7344C25.9301 30.7094 25.9028 30.6702 25.8876 30.6387C25.8723 30.6073 25.8642 30.5746 25.8602 30.5469C25.8522 30.4916 25.8552 30.4308 25.8622 30.376C25.8693 30.3198 25.8821 30.2614 25.8983 30.21C25.9134 30.1622 25.9357 30.1063 25.9686 30.0635L26.0135 30.0049H26.0877ZM26.16 30.4131C26.1565 30.4411 26.1565 30.4652 26.1571 30.4834C26.1886 30.496 26.2299 30.513 26.2762 30.5264C26.3488 30.5473 26.4095 30.5593 26.4374 30.5596L29.62 30.5986L29.6922 30.5859C29.7215 30.5777 29.7554 30.5657 29.7899 30.5488C29.8502 30.5194 29.8852 30.4878 29.9002 30.4717C29.9003 30.4685 29.9014 30.4645 29.9012 30.46C29.9001 30.4361 29.8944 30.4049 29.8846 30.375C29.876 30.3487 29.8651 30.3305 29.8573 30.3193L26.1835 30.3047C26.1734 30.3374 26.1648 30.3757 26.16 30.4131ZM25.742 18.583C27.3195 17.7689 29.3069 17.9413 30.7528 18.9453C32.8756 20.4213 33.2556 23.0797 31.7967 25.1514C30.8997 26.4248 30.2726 27.7697 30.2704 29.3652V29.4639L30.1795 29.5029C29.8816 29.6316 29.509 29.612 29.1756 29.5313L29.0624 29.5039L29.0614 29.3867C29.0525 28.277 29.0066 27.2305 29.1346 26.0859C29.1616 25.845 29.2626 25.601 29.3866 25.3711C29.511 25.1404 29.6657 24.9115 29.8094 24.7012C29.9555 24.4874 30.0883 24.2952 30.1795 24.126C30.2512 23.993 30.2843 23.8961 30.2909 23.8281L30.2889 23.7695C30.2769 23.7089 30.2114 23.6057 30.1014 23.5C29.9943 23.3971 29.8793 23.3239 29.8085 23.3027C29.1924 23.1203 28.6736 23.4935 28.1297 23.9736L28.0389 24.0547L27.9413 23.9815C27.5963 23.7242 27.2272 23.4586 26.8534 23.3301C26.5356 23.2209 26.2242 23.2137 25.9217 23.3984L25.7919 23.4902C25.7569 23.5185 25.732 23.5641 25.7225 23.6367C25.7128 23.7114 25.7215 23.8057 25.7469 23.9092C25.798 24.1166 25.9062 24.3284 25.995 24.4434C26.6651 25.3015 26.8723 26.1972 26.87 27.2305L26.8661 29.4072L26.8651 29.542L26.7313 29.5557C26.4748 29.5824 26.1053 29.5845 25.8641 29.5459L25.7372 29.5254L25.7381 29.3965C25.7458 27.9994 25.4073 27.1454 24.9774 26.3936C24.5505 25.647 23.9966 24.9522 23.6249 23.9434C22.8443 21.8241 23.73 19.6232 25.742 18.583ZM26.6297 23.6885C26.6922 23.6867 26.7592 23.6905 26.8182 23.7002C26.8477 23.705 26.8781 23.7115 26.9061 23.7207C26.9189 23.7249 26.9336 23.7309 26.9491 23.7383L26.9969 23.7676L28.0116 24.5811L28.6922 23.9522C28.8149 23.8379 28.998 23.7661 29.1678 23.7373C29.3336 23.7092 29.5321 23.7146 29.6727 23.8047L29.7977 23.8848L29.7186 24.0107C28.9369 25.2481 28.6907 25.866 28.6141 26.5234C28.5752 26.8576 28.5793 27.2062 28.5858 27.6611C28.5923 28.1144 28.6015 28.6663 28.5682 29.3945L28.5624 29.5215L28.4354 29.5361C28.1807 29.5653 27.8387 29.5726 27.5252 29.5566L27.3846 29.5488L27.3827 29.4082L27.3534 26.8799C27.3435 26.0262 27.1224 25.4882 26.8876 25.0752C26.7641 24.8582 26.6491 24.6941 26.536 24.5068C26.4555 24.3736 26.3825 24.2376 26.3338 24.0918L26.2938 23.9424C26.2797 23.8711 26.3095 23.8115 26.3475 23.7744C26.3798 23.743 26.418 23.726 26.4452 23.7168C26.5017 23.6976 26.5696 23.6902 26.6297 23.6885ZM30.5819 19.1914C29.2229 18.2478 27.353 18.0876 25.8788 18.8486C23.9976 19.8213 23.1799 21.8662 23.9071 23.8398C24.2679 24.8191 24.7834 25.4499 25.2381 26.2451C25.6756 27.0103 26.0219 27.8836 26.036 29.2627C26.196 29.2765 26.3936 29.2769 26.5663 29.2666L26.5702 27.2295L26.5614 26.8672C26.5171 26.0378 26.3004 25.3203 25.7596 24.6279C25.6444 24.4791 25.5169 24.2283 25.4559 23.9805C25.4253 23.856 25.4086 23.7229 25.4247 23.5986C25.441 23.4727 25.4925 23.3469 25.6044 23.2568C26.0467 22.9005 26.5157 22.8972 26.951 23.0469C27.3364 23.1793 27.7048 23.4348 28.0233 23.6699C28.5341 23.2282 29.1453 22.794 29.8934 23.0156L29.9989 23.0576C30.1063 23.1112 30.2172 23.1956 30.3094 23.2842C30.4297 23.3998 30.5532 23.5563 30.5838 23.7109L30.5917 23.7793C30.5993 23.9405 30.5275 24.1122 30.4432 24.2686C30.3426 24.455 30.1988 24.6628 30.0565 24.8711C29.9119 25.0827 29.7661 25.2989 29.6502 25.5137C29.5338 25.7296 29.4542 25.9337 29.4335 26.1191C29.3126 27.1992 29.3483 28.1855 29.3592 29.2598C29.5849 29.3021 29.7991 29.3073 29.9725 29.2578C30.0021 27.6244 30.6551 26.2522 31.5516 24.9795C32.8773 23.0972 32.5819 20.7209 30.7626 19.3232L30.5819 19.1914ZM26.6161 23.9902C26.6538 24.1059 26.7146 24.222 26.7928 24.3516C26.8891 24.511 27.0265 24.7126 27.1483 24.9268C27.4039 25.3762 27.6427 25.9638 27.6532 26.877L27.6805 29.2607C27.8868 29.2666 28.0956 29.2625 28.2723 29.249C28.2985 28.595 28.2921 28.0906 28.286 27.666C28.2795 27.2154 28.2747 26.8466 28.3163 26.4893C28.3968 25.7978 28.6508 25.1625 29.3573 24.0234C29.3164 24.0224 29.2697 24.0246 29.2186 24.0332C29.084 24.056 28.9621 24.1105 28.8963 24.1719L28.8954 24.1729L28.0272 24.9775L27.9256 24.8965L26.8163 24.0068C26.821 24.0098 26.821 24.0087 26.8124 24.0059C26.803 24.0028 26.7885 23.9992 26.7694 23.9961C26.7311 23.9899 26.6837 23.987 26.6385 23.9883C26.6306 23.9885 26.6232 23.9898 26.6161 23.9902Z" fill="#0F9D58"/>
<path d="M21.6299 20.8399L19.8896 20.2093C19.8851 20.013 19.8952 19.7953 19.9536 19.6809C20.0119 19.5664 20.3564 19.4565 20.4977 19.5092L22.2436 20.1633C22.2986 20.28 22.2683 20.5807 22.201 20.6705C22.1202 20.7782 21.7869 20.8971 21.6299 20.8399Z" fill="#0F9D58"/>
<path d="M20.5497 19.3683L22.2958 20.0226L22.3534 20.0441L22.3788 20.0988C22.4036 20.1515 22.4144 20.2133 22.4188 20.2668C22.4235 20.3228 22.423 20.3832 22.4179 20.4406C22.4127 20.498 22.4026 20.5563 22.3886 20.6086C22.3755 20.6572 22.3551 20.7146 22.3212 20.7599C22.2827 20.8113 22.2257 20.8517 22.1737 20.881C22.1186 20.9121 22.0541 20.9384 21.9891 20.9592C21.9243 20.9798 21.8546 20.9962 21.787 21.0021C21.7215 21.0079 21.6462 21.0055 21.578 20.9806L19.7421 20.3146L19.7391 20.2121C19.7368 20.111 19.7389 20.0011 19.7489 19.8996C19.7586 19.8017 19.7779 19.6954 19.8202 19.6125C19.8543 19.5458 19.9158 19.4988 19.9657 19.4689C20.0205 19.4361 20.0852 19.4091 20.1493 19.3888C20.2133 19.3686 20.2821 19.3536 20.3475 19.3478C20.4099 19.3423 20.4841 19.3439 20.5497 19.3683ZM20.2401 19.675C20.1931 19.6899 20.1506 19.7084 20.12 19.7267C20.0848 19.7479 20.0819 19.7578 20.0868 19.7482C20.0707 19.7797 20.0556 19.8402 20.0468 19.9289C20.0414 19.9831 20.0395 20.0423 20.0389 20.1027L21.6805 20.6984C21.6911 20.7022 21.7175 20.7071 21.7606 20.7033C21.8021 20.6997 21.8502 20.6893 21.8983 20.674C21.9464 20.6587 21.9913 20.639 22.0263 20.6193C22.0435 20.6096 22.0574 20.6007 22.0673 20.5929C22.0777 20.5848 22.0811 20.5801 22.0809 20.5802C22.0806 20.5807 22.0887 20.5668 22.0985 20.5304C22.1073 20.4975 22.1151 20.4567 22.119 20.4133C22.1229 20.3698 22.123 20.3271 22.12 20.2912C22.1195 20.2855 22.1167 20.2805 22.1161 20.2756L20.4452 19.6496C20.4402 19.6477 20.4176 19.6428 20.3739 19.6467C20.3336 19.6502 20.2867 19.6602 20.2401 19.675Z" fill="#0F9D58"/>
<path d="M21.7868 24.3474L20.2754 24.6773C20.0735 24.7211 19.7358 24.5505 19.7066 24.3822C19.6774 24.2139 19.8379 23.8537 20.0084 23.8291L21.6623 23.5934C21.7958 23.5744 22.0718 23.7954 22.0808 23.9244C22.0897 24.0535 21.927 24.316 21.7868 24.3463V24.3474Z" fill="#0F9D58"/>
<path d="M21.6404 23.4445C21.7154 23.4338 21.7894 23.4575 21.8435 23.4817C21.9019 23.5078 21.9603 23.5455 22.0115 23.5861C22.0625 23.6267 22.112 23.6744 22.1502 23.7248C22.1851 23.771 22.2248 23.8376 22.2302 23.9133C22.2346 23.9761 22.2187 24.0404 22.199 24.093C22.1783 24.1482 22.1482 24.2039 22.114 24.2551C22.08 24.3061 22.0392 24.3566 21.9929 24.3977C21.9765 24.4122 21.9565 24.4252 21.9363 24.4387V24.468L21.8181 24.4934L20.3074 24.8235C20.1589 24.8556 19.9863 24.8087 19.8572 24.7424C19.7899 24.7078 19.7248 24.6638 19.6726 24.6115C19.6221 24.5609 19.5729 24.4916 19.5584 24.4074C19.5463 24.3376 19.5551 24.2613 19.5711 24.1936C19.5875 24.1235 19.6143 24.0506 19.6482 23.9836C19.6818 23.9172 19.7255 23.8515 19.7771 23.7981C19.8269 23.7466 19.898 23.6928 19.9871 23.6799L21.6404 23.4445ZM20.0291 23.9778C20.0252 23.9794 20.0127 23.9856 19.9929 24.0061C19.9675 24.0323 19.9399 24.0717 19.9158 24.1194C19.892 24.1663 19.8738 24.2165 19.863 24.2619C19.8518 24.3098 19.8518 24.3424 19.8543 24.3567C19.855 24.3591 19.8606 24.3746 19.8855 24.3996C19.9111 24.4252 19.9491 24.4523 19.9949 24.4758C20.092 24.5256 20.1894 24.5419 20.2429 24.5305L21.6365 24.2258V24.2248L21.7546 24.1994C21.7546 24.1994 21.7688 24.1951 21.7937 24.1731C21.8169 24.1524 21.8421 24.1234 21.865 24.0891C21.8879 24.0548 21.906 24.0188 21.9177 23.9875C21.9234 23.9722 21.9275 23.9595 21.9294 23.9494C21.9311 23.9408 21.9304 23.9359 21.9304 23.9348C21.9312 23.9461 21.9342 23.9362 21.9109 23.9055C21.8908 23.8789 21.8605 23.8488 21.825 23.8205C21.7894 23.7923 21.7525 23.77 21.7214 23.7561C21.686 23.7402 21.675 23.7426 21.6834 23.7414L20.0291 23.9778Z" fill="#0F9D58"/>
<path d="M23.2801 15.7258C23.6941 16.1723 24.6849 17.0767 24.2675 17.5019C24.1631 17.6085 23.7435 17.6242 23.647 17.4985L22.6585 16.2172C22.5743 16.1084 22.6652 15.746 22.7729 15.6775C22.8807 15.6091 23.1847 15.6214 23.2801 15.7246V15.7258Z" fill="#0F9D58"/>
<path d="M23.0428 15.4873C23.103 15.4917 23.1658 15.5022 23.2235 15.5214C23.279 15.5401 23.3426 15.5712 23.3905 15.623L23.4285 15.664C23.6324 15.8797 23.9684 16.2101 24.2069 16.5332C24.334 16.7054 24.4451 16.8906 24.493 17.0693C24.5424 17.2537 24.5279 17.4515 24.3748 17.6074L24.3739 17.6064C24.3191 17.6621 24.2422 17.6923 24.1785 17.7089C24.1096 17.7269 24.0319 17.7363 23.9569 17.7373C23.8819 17.7381 23.8022 17.7308 23.7313 17.7119C23.6655 17.6943 23.5823 17.6603 23.5282 17.5898L22.5399 16.3086C22.4899 16.2437 22.4784 16.162 22.4764 16.1015C22.4743 16.0353 22.483 15.964 22.4979 15.8984C22.5128 15.8328 22.535 15.7663 22.5633 15.7089C22.589 15.6568 22.6306 15.5905 22.6932 15.5507C22.7451 15.5178 22.8076 15.5014 22.8621 15.4931C22.9195 15.4844 22.9823 15.4828 23.0428 15.4873ZM22.9071 15.79C22.8909 15.7925 22.8778 15.7956 22.868 15.7988C22.858 15.802 22.8533 15.8037 22.8533 15.8037C22.862 15.7982 22.8518 15.8034 22.8328 15.8418C22.8165 15.8748 22.8006 15.9188 22.7899 15.9658C22.7792 16.0128 22.7751 16.0573 22.7762 16.0918C22.7775 16.1318 22.7853 16.1355 22.7772 16.125V16.1259L23.7664 17.4072C23.7604 17.3994 23.7662 17.4103 23.8094 17.4218C23.8476 17.4319 23.898 17.4381 23.953 17.4375C24.0077 17.4368 24.0605 17.4298 24.1024 17.4189C24.1453 17.4077 24.1606 17.3963 24.161 17.3964C24.2163 17.3399 24.2347 17.2648 24.203 17.1464C24.1696 17.0222 24.0856 16.8734 23.9657 16.7109C23.7251 16.385 23.3869 16.0612 23.1707 15.8281L23.1678 15.8252C23.1634 15.822 23.152 15.8144 23.1287 15.8066C23.0994 15.7968 23.0613 15.7891 23.0203 15.7861C22.9796 15.7831 22.9399 15.785 22.9071 15.79Z" fill="#0F9D58"/>
<path d="M35.6042 20.3295L34.1591 20.8411C33.9863 20.9028 33.4713 20.6055 33.6227 20.4159C34.0817 19.8391 35.7826 19.1985 35.8825 19.902C35.9016 20.0344 35.7299 20.2846 35.6031 20.3295H35.6042Z" fill="#0F9D58"/>
<path d="M35.5767 19.4565C35.6844 19.4744 35.7888 19.5129 35.8726 19.5844C35.9591 19.6584 36.0134 19.759 36.0308 19.8803C36.0405 19.9479 36.0247 20.0152 36.0054 20.0688C35.9851 20.1251 35.9559 20.1815 35.9224 20.2319C35.8888 20.2823 35.849 20.331 35.8062 20.3716C35.7651 20.4104 35.7123 20.4491 35.6528 20.4702L35.6538 20.4712L34.2095 20.9829V20.9819C34.118 21.0146 34.0133 20.9946 33.936 20.9702C33.8508 20.9433 33.7613 20.8992 33.6841 20.8462C33.6092 20.7947 33.5324 20.7261 33.4868 20.644C33.4634 20.6017 33.4447 20.5492 33.4448 20.4907C33.445 20.4295 33.466 20.371 33.5054 20.3217H33.5063C33.6378 20.157 33.8478 19.9981 34.0806 19.8637C34.316 19.7279 34.5856 19.6103 34.8452 19.5346C35.1015 19.4599 35.3636 19.4213 35.5767 19.4565ZM35.5278 19.7524C35.3795 19.7279 35.168 19.7531 34.9292 19.8227C34.6938 19.8914 34.4457 19.999 34.23 20.1235C34.0187 20.2455 33.849 20.3782 33.7495 20.4985L33.7856 20.5434C33.803 20.5607 33.8258 20.5797 33.854 20.5991C33.9081 20.6363 33.9708 20.6666 34.0259 20.6841C34.0877 20.7036 34.1126 20.6982 34.1089 20.6997L35.5532 20.188L35.6001 20.1538C35.6245 20.1307 35.6496 20.0991 35.6724 20.0649C35.6952 20.0306 35.7126 19.9965 35.7231 19.9673L35.7339 19.9233C35.7262 19.869 35.7055 19.8353 35.6782 19.812C35.6483 19.7864 35.6002 19.7644 35.5278 19.7524Z" fill="#0F9D58"/>
<path d="M36.2218 24.0635C36.7637 24.8017 34.0798 24.7266 33.9643 24.0354C33.8397 23.2915 35.9503 23.6954 36.2218 24.0635Z" fill="#0F9D58"/>
<path d="M34.9589 23.4827C35.2427 23.5107 35.5393 23.5749 35.7841 23.6565C35.9063 23.6972 36.0192 23.7433 36.1123 23.7932C36.1795 23.8293 36.2455 23.8722 36.2968 23.9221L36.3427 23.9739V23.9749C36.4262 24.0887 36.4698 24.2188 36.4277 24.3489C36.3876 24.4723 36.284 24.5521 36.1796 24.6028C35.9701 24.7044 35.6529 24.7422 35.3369 24.7356C35.0161 24.7289 34.6696 24.6758 34.3915 24.5764C34.2527 24.5268 34.1233 24.4628 34.0224 24.3821C33.9217 24.3014 33.8389 24.1947 33.8164 24.0598C33.7947 23.9304 33.8214 23.8114 33.8964 23.7151C33.9676 23.624 34.0717 23.5672 34.1796 23.5315C34.394 23.4608 34.6792 23.455 34.9589 23.4827ZM34.9296 23.7815C34.6637 23.7552 34.4281 23.7655 34.2734 23.8167C34.1971 23.8419 34.1542 23.8722 34.1328 23.8997C34.1152 23.9222 34.1029 23.9537 34.1123 24.01C34.1186 24.0477 34.1443 24.0951 34.2099 24.1477C34.2758 24.2005 34.3716 24.2511 34.4921 24.2942C34.7328 24.3802 35.0459 24.4286 35.3427 24.4348C35.6442 24.4411 35.904 24.4026 36.0488 24.3323C36.1211 24.2971 36.139 24.2669 36.1425 24.2561C36.144 24.2515 36.1523 24.2221 36.1015 24.1526L36.0595 24.1135C36.0384 24.0976 36.0093 24.0786 35.9706 24.0579C35.8969 24.0183 35.801 23.9789 35.6894 23.9417C35.4661 23.8673 35.1918 23.8074 34.9296 23.7815Z" fill="#0F9D58"/>
<path d="M33.1055 16.2891C32.8564 16.6773 32.1226 17.8689 31.6716 17.5985C31.5571 17.53 31.3787 17.2035 31.4618 17.0913C31.7591 16.6896 32.641 15.387 33.0595 15.8448C33.1358 15.9289 33.1706 16.1881 33.1055 16.2891Z" fill="#0F9D58"/>
<path d="M32.9005 15.6009C33.0034 15.6128 33.0951 15.6616 33.17 15.7435H33.171C33.2093 15.7858 33.234 15.8393 33.2501 15.8861C33.2671 15.9353 33.2782 15.99 33.2843 16.0433C33.2904 16.0965 33.2916 16.153 33.2853 16.2064C33.2792 16.2574 33.2652 16.3183 33.2316 16.3705C33.1089 16.5616 32.8566 16.9662 32.5773 17.2884C32.4383 17.4488 32.2843 17.5996 32.1271 17.6918C31.9705 17.7835 31.7763 17.8356 31.5948 17.7269C31.5415 17.695 31.4949 17.6437 31.4591 17.5961C31.4211 17.5454 31.385 17.4854 31.3566 17.4242C31.3286 17.364 31.3046 17.2963 31.295 17.2298C31.2862 17.1685 31.2853 17.0778 31.3409 17.0023L31.6593 16.5716C31.7929 16.3969 31.9481 16.2053 32.1075 16.0414C32.2658 15.8787 32.4417 15.7288 32.6153 15.6527C32.7036 15.614 32.8012 15.5896 32.9005 15.6009ZM32.8663 15.8998C32.8362 15.8963 32.7933 15.9018 32.7355 15.9271C32.6168 15.9791 32.4741 16.0944 32.3224 16.2504C32.0276 16.5535 31.7462 16.9566 31.5909 17.1673C31.5908 17.1709 31.5905 17.1772 31.5919 17.1869C31.596 17.2151 31.6086 17.2544 31.629 17.2982C31.649 17.3411 31.6744 17.3831 31.6993 17.4164C31.7116 17.4327 31.7229 17.4458 31.7325 17.4554C31.7373 17.4602 31.7412 17.4637 31.7443 17.4662C31.7471 17.4685 31.7491 17.4701 31.7491 17.4701C31.7931 17.4962 31.8596 17.5003 31.9747 17.433C32.0896 17.3656 32.2188 17.2443 32.3507 17.0922C32.613 16.7895 32.853 16.4047 32.9796 16.2074C32.9806 16.2051 32.9847 16.1943 32.9874 16.1713C32.9905 16.145 32.9904 16.1122 32.9864 16.0775C32.9825 16.0429 32.9749 16.0099 32.9659 15.9838C32.9569 15.9578 32.9493 15.947 32.9484 15.9457V15.9447C32.9192 15.9132 32.8923 15.9028 32.8663 15.8998Z" fill="#0F9D58"/>
<path d="M28.4055 15.8535C28.4055 15.9859 28.0802 16.2204 27.959 16.2126C27.8187 16.2036 27.5943 15.9725 27.5921 15.8288L27.5786 14.4218C27.5775 14.2917 27.7514 14.0437 27.876 14.0056C28.0252 13.9607 28.3966 14.1391 28.3966 14.3063L28.4044 15.8535H28.4055Z" fill="#0F9D58"/>
<path d="M28.0542 13.864C28.1241 13.8803 28.1971 13.9086 28.2632 13.9441C28.3288 13.9793 28.3945 14.0253 28.4458 14.0798C28.4944 14.1316 28.546 14.2091 28.5464 14.3054L28.5532 15.7039H28.5552V15.8542C28.555 15.9405 28.5071 16.0141 28.4702 16.0603C28.4283 16.1127 28.3736 16.1627 28.3189 16.2048C28.2638 16.2471 28.2032 16.2861 28.145 16.3142C28.0936 16.339 28.0208 16.3665 27.9497 16.3621C27.8799 16.3576 27.815 16.328 27.7642 16.2966C27.711 16.2638 27.6599 16.2215 27.6157 16.1755C27.5715 16.1296 27.5303 16.0762 27.4995 16.0212C27.4702 15.9687 27.4431 15.9024 27.4419 15.8318V15.8308L27.4282 14.4236C27.4277 14.3615 27.4475 14.2995 27.4692 14.2488C27.4921 14.1955 27.5235 14.1413 27.5581 14.0925C27.5927 14.0439 27.6331 13.9969 27.6763 13.9578C27.7173 13.9205 27.7703 13.8809 27.8316 13.8621H27.8325C27.9067 13.8397 27.9885 13.8487 28.0542 13.864ZM27.9087 14.156C27.9005 14.1613 27.8895 14.1685 27.8775 14.1794C27.8531 14.2015 27.8266 14.232 27.8023 14.2664C27.778 14.3006 27.7579 14.336 27.7446 14.3669C27.7381 14.3821 27.7335 14.3949 27.731 14.405C27.7297 14.4099 27.7294 14.414 27.729 14.4167C27.7287 14.4188 27.729 14.4202 27.729 14.4206L27.7417 15.8269L27.7456 15.8396C27.7486 15.8487 27.7534 15.8607 27.7612 15.8747C27.7775 15.9037 27.8019 15.9367 27.8316 15.9675C27.8612 15.9984 27.893 16.0242 27.9214 16.0417C27.9354 16.0504 27.9475 16.0559 27.9566 16.0593C27.9632 16.0619 27.967 16.063 27.9683 16.0632C27.9583 16.0626 27.9722 16.0644 28.0151 16.0437C28.052 16.0259 28.0949 15.9983 28.1362 15.9665C28.1779 15.9345 28.2131 15.9013 28.2359 15.8728C28.2464 15.8596 28.2508 15.8502 28.2534 15.8455L28.2466 14.3074V14.3064C28.2466 14.3196 28.2525 14.312 28.2271 14.2849C28.2041 14.2605 28.1673 14.2333 28.1216 14.2087C28.0762 14.1844 28.0275 14.1657 27.9859 14.156C27.9656 14.1513 27.9488 14.1497 27.936 14.1492C27.9267 14.1488 27.9212 14.1489 27.9194 14.1492L27.9087 14.156Z" fill="#0F9D58"/>
</g>
<defs>
<filter id="filter0_d_6784_181916" x="0" y="0" width="55.9971" height="55.9971" filterUnits="userSpaceOnUse" color-interpolation-filters="sRGB">
<feFlood flood-opacity="0" result="BackgroundImageFix"/>
<feColorMatrix in="SourceAlpha" type="matrix" values="0 0 0 0 0 0 0 0 0 0 0 0 0 0 0 0 0 0 127 0" result="hardAlpha"/>
<feOffset dy="2"/>
<feGaussianBlur stdDeviation="2"/>
<feComposite in2="hardAlpha" operator="out"/>
<feColorMatrix type="matrix" values="0 0 0 0 0 0 0 0 0 0 0 0 0 0 0 0 0 0 0.16 0"/>
<feBlend mode="normal" in2="BackgroundImageFix" result="effect1_dropShadow_6784_181916"/>
<feBlend mode="normal" in="SourceGraphic" in2="effect1_dropShadow_6784_181916" result="shape"/>
</filter>
</defs>
</svg>
