<svg width="56" height="56" viewBox="0 0 56 56" fill="none" xmlns="http://www.w3.org/2000/svg">
<g filter="url(#filter0_d_6784_181860)">
<path d="M4 25.9985C4 12.7445 14.7445 2 27.9985 2C41.2525 2 51.997 12.7445 51.997 25.9985C51.997 39.2525 41.2525 49.997 27.9985 49.997C14.7445 49.997 4 39.2525 4 25.9985Z" fill="white" shape-rendering="crispEdges"/>
<path d="M27.998 2.5C40.9758 2.5 51.4968 13.0204 51.4971 25.998C51.4971 38.9759 40.9759 49.4971 27.998 49.4971C15.0204 49.4968 4.5 38.9758 4.5 25.998C4.50025 13.0205 15.0205 2.50025 27.998 2.5Z" stroke="#E0DFDF" shape-rendering="crispEdges"/>
<path d="M39.9774 36.3015C39.6284 34.8381 38.3949 34.2942 37.0454 33.892C36.6346 33.1154 36.0887 32.2161 35.356 31.9846C34.3246 31.6595 33.4593 31.6482 32.5721 32.1693C31.9167 30.7678 30.5145 30.1696 28.9422 30.3074C29.0658 27.6803 28.4954 27.3401 29.9273 25.1924C31.5677 25.2051 33.1374 25.1228 34.6478 24.5081C37.4291 23.3748 39.2627 20.854 39.5113 17.9183C39.5525 17.4402 39.2576 17.0468 38.8082 16.9368C36.8883 16.4675 34.9324 16.5004 33.0859 17.1708C30.3767 18.1548 28.686 20.51 28.5868 23.3533C28.5572 24.1932 28.7568 24.9799 28.5649 25.9083C28.283 24.9091 27.6559 24.0414 27.4769 23.0902C27.3159 22.2415 27.3842 21.389 27.1691 20.5517C26.5356 18.0777 24.8642 16.1197 22.3971 15.2305C20.6047 14.5829 18.7286 14.3616 16.8242 14.5791C16.3542 14.6335 15.9666 15.0205 16.0001 15.4898C16.1507 17.6299 16.9941 19.6473 18.5354 21.1765C20.6137 23.237 23.3165 23.5544 26.1493 23.1547C26.9747 24.3854 27.7473 25.711 27.9675 27.1845C28.131 28.2786 27.9958 29.3841 28.0988 30.4782L26.8974 31.3168C25.8338 30.7021 24.6672 30.8488 23.583 31.3648C22.5658 31.8493 22.043 32.9079 21.4623 33.811C20.2094 34.1576 18.9732 34.7862 18.5213 36.1371C18.4337 36.3976 18.4814 36.8871 18.614 37.0958C18.7775 37.3526 19.1857 37.498 19.5669 37.498L39.0979 37.4943C39.3812 37.4943 39.7456 37.2893 39.8679 37.1287C39.9941 36.963 40.0237 36.4988 39.9774 36.3015ZM33.1889 18.1776C34.895 17.5325 36.7093 17.4351 38.5429 17.912C38.0086 21.9848 34.6233 24.5486 30.4359 24.1869C31.0411 22.9106 31.9772 22.1618 33.1207 21.4308L34.9813 20.2405C35.0508 20.1963 35.2195 19.8788 35.1564 19.8459L34.7933 19.6587C32.5464 20.6061 30.7784 21.6091 29.5758 23.7985C29.4019 21.3207 30.8698 19.0554 33.1889 18.1776ZM23.4659 19.5006C22.6302 18.9555 21.7765 18.3686 20.7966 18.0271C20.6523 17.9765 20.4219 18.3572 20.4965 18.4381C20.5712 18.5191 20.7489 18.7265 20.8455 18.7923C22.4525 19.8763 24.0775 20.8249 25.3883 22.3478C20.6729 22.8373 17.5787 20.1634 16.9439 15.5821C18.8239 15.3595 20.6884 15.5455 22.428 16.2677C24.7999 17.2517 26.3515 19.5942 26.4326 22.1505C25.4643 21.0715 24.5745 20.2241 23.4659 19.5006ZM19.4651 36.5785C19.8064 35.3693 20.9434 34.7622 22.1434 34.8318C22.5349 33.8199 22.9869 32.9092 23.9191 32.3337C24.8475 31.7607 25.924 31.7101 26.7893 32.4425C27.5606 33.0951 27.5374 31.1941 29.7844 31.2636C30.5338 31.2864 31.4634 31.9947 31.7133 32.6777C31.8562 33.0673 31.278 33.2406 31.3231 33.7212C31.3347 33.8528 31.5755 34.0956 31.703 34.0551C32.2953 33.8692 32.8103 32.4943 34.3929 32.7106C35.2066 32.8219 35.9264 33.4202 36.1595 34.3385C36.4544 35.5059 38.3099 34.3486 39.0773 36.5785H19.4651Z" fill="#0F9D58"/>
<path d="M16.8019 14.3808C18.7368 14.1598 20.6438 14.384 22.465 15.0419C24.9982 15.9549 26.7145 17.9676 27.3634 20.5019L27.4347 20.83C27.4941 21.158 27.5206 21.4845 27.5431 21.8027C27.5658 22.1245 27.5836 22.4363 27.6242 22.7451L27.674 23.0527V23.0536C27.7583 23.5013 27.9493 23.9347 28.1642 24.3964C28.2577 24.5974 28.3543 24.8048 28.4474 25.0175C28.4473 24.8806 28.4449 24.7446 28.4376 24.6083C28.4161 24.204 28.3717 23.7782 28.3869 23.3466C28.4888 20.4221 30.2314 17.9944 33.0177 16.9824C34.9062 16.2968 36.9029 16.2649 38.8556 16.7421C39.3989 16.8752 39.7609 17.3572 39.7111 17.9355C39.4641 20.8519 37.6901 23.3694 34.9874 24.58L34.7238 24.6933C33.2094 25.3096 31.6428 25.3996 30.0363 25.3915C29.3787 26.3939 29.1907 26.9672 29.1437 27.5849C29.1188 27.9124 29.1328 28.2557 29.1466 28.6952C29.1588 29.0821 29.1679 29.5345 29.1486 30.0947C30.6226 30.0285 31.9551 30.6018 32.6544 31.8954C33.5422 31.4415 34.419 31.4796 35.4162 31.7939C35.8377 31.9271 36.188 32.2456 36.4777 32.6093C36.7511 32.9526 36.9843 33.3547 37.1828 33.7255C38.5057 34.1269 39.8023 34.705 40.172 36.2548V36.2558C40.2024 36.3852 40.2052 36.5755 40.1867 36.748C40.1771 36.8367 40.1614 36.9284 40.1378 37.0117C40.1151 37.0918 40.081 37.1797 40.0275 37.2499C39.9405 37.3641 39.7884 37.4726 39.633 37.5507C39.4756 37.6298 39.2818 37.6943 39.0978 37.6943L19.5665 37.6982C19.3525 37.6981 19.1299 37.6575 18.9347 37.579C18.7657 37.511 18.6032 37.4088 18.4904 37.2665L18.4455 37.2031C18.3542 37.0594 18.3049 36.8478 18.2863 36.6552C18.2674 36.4602 18.2758 36.2409 18.3322 36.0732C18.8075 34.653 20.087 33.9958 21.3331 33.6396C21.6019 33.2166 21.8791 32.7351 22.1994 32.3105C22.5401 31.8587 22.9486 31.4458 23.4972 31.1845L23.7081 31.0888C24.7333 30.6499 25.8456 30.535 26.883 31.082L27.8908 30.3788C27.8495 29.859 27.8552 29.338 27.8556 28.831C27.8561 28.2813 27.849 27.7446 27.7697 27.2138C27.5623 25.8268 26.8464 24.5657 26.0499 23.3681C23.2331 23.7447 20.5048 23.4103 18.3947 21.3183C16.9145 19.8497 16.0652 17.9437 15.838 15.912L15.8009 15.5038C15.7584 14.907 16.2471 14.4451 16.8009 14.3808H16.8019ZM22.3292 15.4189C20.5658 14.7817 18.7206 14.5632 16.8468 14.7773C16.4611 14.8221 16.175 15.1342 16.1994 15.4755L16.2355 15.8671C16.4533 17.8166 17.2672 19.6355 18.6769 21.0341H18.6759C20.6905 23.0314 23.3175 23.3525 26.1212 22.957L26.2453 22.9394L26.3156 23.0429C27.1429 24.2765 27.9379 25.6344 28.1652 27.1552C28.2493 27.7182 28.2565 28.2811 28.256 28.831C28.2555 29.3852 28.2476 29.9238 28.298 30.4589L28.3087 30.5751L28.213 30.6425L27.0119 31.4804L26.9074 31.5536L26.798 31.4902C25.8114 30.92 24.7183 31.0464 23.6691 31.5458V31.5449C23.2005 31.768 22.8388 32.1273 22.5187 32.5517C22.1942 32.982 21.9302 33.4536 21.631 33.9189L21.589 33.9833L21.5158 34.0038C20.2799 34.3457 19.1302 34.948 18.7111 36.2001V36.2011C18.68 36.2939 18.6686 36.4495 18.6847 36.6161C18.7011 36.7856 18.742 36.9232 18.7833 36.9882H18.7824C18.834 37.0693 18.9361 37.1487 19.0831 37.2079C19.2278 37.2662 19.3999 37.2977 19.5665 37.2978L39.0978 37.2939C39.1968 37.2939 39.3272 37.2566 39.4533 37.1933C39.5814 37.1289 39.6737 37.0542 39.7091 37.0077C39.7187 36.9952 39.7352 36.9619 39.7521 36.9023C39.768 36.8459 39.7804 36.7775 39.7882 36.705C39.8043 36.5551 39.7982 36.4155 39.7824 36.3476V36.3466C39.4611 35.0022 38.3364 34.4857 36.9884 34.0839L36.9083 34.0595L36.8683 33.9853C36.6642 33.5994 36.4325 33.1939 36.1652 32.8583C35.8961 32.5205 35.607 32.274 35.296 32.1757C34.2992 31.8615 33.497 31.8584 32.674 32.3417L32.4845 32.4531L32.3908 32.2538C31.7799 30.9478 30.4716 30.3743 28.9601 30.5068L28.7316 30.5263L28.7423 30.2978C28.7729 29.6489 28.7609 29.141 28.7472 28.7079C28.7336 28.278 28.7183 27.9089 28.7453 27.5546C28.8006 26.8266 29.0341 26.1712 29.7609 25.081L29.8205 24.9911L29.9289 24.9921C31.5645 25.0047 33.1007 24.9221 34.5724 24.3232C37.284 23.2183 39.0695 20.7622 39.3117 17.9013L39.3126 17.7626C39.2857 17.45 39.0718 17.207 38.7609 17.1308C36.874 16.6696 34.9588 16.7033 33.1544 17.3583C30.6046 18.2845 28.9862 20.4564 28.7999 23.1025L28.7873 23.3603C28.7729 23.7684 28.8141 24.1559 28.8371 24.5869C28.8596 25.011 28.8619 25.4602 28.7609 25.9492L28.3722 25.9628C28.2366 25.4823 28.018 25.0318 27.8009 24.5654C27.5872 24.1062 27.3752 23.6308 27.2804 23.1279L27.2287 22.7988C27.1855 22.4705 27.1659 22.145 27.1437 21.831C27.1138 21.4074 27.0783 21.0008 26.9757 20.6015C26.3576 18.1877 24.7303 16.2843 22.3292 15.4189ZM29.7912 31.0634H29.7902C30.2194 31.0765 30.6787 31.2824 31.0558 31.5624C31.4329 31.8424 31.759 32.219 31.9015 32.6083L31.9308 32.7226C31.969 32.9789 31.8065 33.1701 31.7111 33.29C31.5992 33.4306 31.5284 33.5269 31.5216 33.6484L31.5226 33.7021V33.704C31.5213 33.6896 31.5181 33.6968 31.5373 33.7265C31.5535 33.7518 31.5778 33.7807 31.6056 33.8066C31.6296 33.8289 31.6527 33.8424 31.6691 33.8515C31.7603 33.8142 31.868 33.7323 32.0119 33.5927C32.1582 33.4507 32.3402 33.2545 32.547 33.079C32.9758 32.7152 33.5555 32.3945 34.4201 32.5126C35.3149 32.635 36.1006 33.2922 36.3537 34.289C36.383 34.4052 36.4287 34.4833 36.4826 34.54C36.5376 34.5978 36.6107 34.6436 36.7062 34.6816C36.8031 34.7201 36.9169 34.7485 37.0509 34.7763C37.1777 34.8026 37.3357 34.8312 37.4855 34.8652C37.7956 34.9355 38.1419 35.0444 38.4621 35.2939C38.7842 35.545 39.0646 35.9262 39.2667 36.5136L39.3576 36.7783H19.2013L19.2726 36.5243C19.6309 35.2547 20.7909 34.6101 22.0089 34.6279C22.3927 33.6592 22.8654 32.7489 23.8146 32.163C24.799 31.5557 25.9734 31.4896 26.9191 32.29C26.9988 32.3574 27.0482 32.3742 27.0744 32.3779C27.0954 32.3807 27.1208 32.378 27.1632 32.3525C27.2104 32.324 27.2662 32.2754 27.34 32.1992C27.3759 32.162 27.4135 32.1212 27.4552 32.0761C27.4966 32.0315 27.5419 31.9824 27.59 31.9326C27.7832 31.7324 28.034 31.5028 28.3898 31.33C28.747 31.1566 29.1998 31.0451 29.7912 31.0634ZM29.7785 31.4638C29.2465 31.4473 28.8591 31.5474 28.5646 31.6904C28.2689 31.834 28.0554 32.0261 27.8771 32.2109C27.8324 32.2572 27.7906 32.3029 27.7492 32.3476C27.7082 32.3919 27.6669 32.4364 27.6271 32.4775C27.5494 32.5577 27.4643 32.6385 27.3703 32.6952C27.2714 32.7549 27.1545 32.7926 27.0206 32.7743C26.8917 32.7567 26.7729 32.69 26.6603 32.5947C25.8756 31.9306 24.8967 31.9657 24.0246 32.5038C23.1521 33.0424 22.7195 33.8979 22.3302 34.9042L22.2775 35.04L22.132 35.0312C21.093 34.971 20.1366 35.4481 19.7482 36.3788H38.7833C38.6186 36.008 38.4215 35.7695 38.216 35.6093C37.9633 35.4125 37.683 35.3198 37.3966 35.2548C37.2485 35.2212 37.1159 35.1983 36.9699 35.1679C36.8307 35.139 36.6882 35.1056 36.5578 35.0536C36.4259 35.0011 36.2993 34.9274 36.1935 34.8163C36.0867 34.7042 36.0103 34.5629 35.966 34.3876C35.7529 33.5482 35.0988 33.0095 34.3664 32.9091C33.6484 32.811 33.1782 33.0687 32.8058 33.3847C32.6122 33.549 32.4564 33.7186 32.2902 33.8798C32.136 34.0294 31.9616 34.1826 31.7628 34.2451C31.6607 34.2773 31.5651 34.2475 31.506 34.2197C31.4416 34.1893 31.3822 34.1451 31.3331 34.0995C31.2835 34.0534 31.2374 33.9992 31.2013 33.9433C31.1683 33.892 31.1316 33.8198 31.1242 33.7402L31.1222 33.6201C31.1397 33.3533 31.2989 33.1661 31.3986 33.041C31.5314 32.874 31.553 32.8222 31.5255 32.747V32.746C31.4182 32.4527 31.1546 32.1341 30.8175 31.8837C30.48 31.6331 30.0987 31.4735 29.7785 31.4638ZM33.4464 17.873C35.0957 17.32 36.838 17.262 38.5939 17.7187L38.7648 17.7626L38.7414 17.9384C38.1918 22.1247 34.7049 24.7558 30.4191 24.3857L30.132 24.3613L30.255 24.1015C30.8843 22.7744 31.859 22.0004 33.0128 21.2626L34.8605 20.08C34.8652 20.0744 34.8724 20.0655 34.881 20.0527C34.8989 20.0261 34.9186 19.9918 34.9357 19.957L34.7853 19.8798C32.5925 20.8111 30.9055 21.7931 29.7511 23.8945L29.424 24.4902L29.3761 23.8124C29.1961 21.2456 30.7176 18.8989 33.1183 17.9902L33.4464 17.873ZM38.3165 18.0624C36.5825 17.6466 34.872 17.7547 33.2599 18.3642C31.2403 19.1286 29.891 20.9831 29.7706 23.0937C30.9884 21.259 32.6717 20.3364 34.716 19.4745L34.8019 19.4384L34.8849 19.4804L35.2482 19.6679L35.2492 19.6689C35.3419 19.7174 35.3646 19.8059 35.3693 19.8486C35.3741 19.8926 35.3666 19.9333 35.3605 19.9599C35.3476 20.016 35.3233 20.0755 35.299 20.1259C35.2738 20.1781 35.2434 20.2312 35.213 20.2763C35.1978 20.2988 35.1809 20.3222 35.1632 20.3427L35.089 20.4091L33.2287 21.5995C32.1802 22.2699 31.3331 22.9395 30.7521 24.0068C34.6405 24.2129 37.7385 21.8227 38.3165 18.0624ZM16.9201 15.3837C18.8285 15.1577 20.7289 15.3456 22.505 16.0829C24.9524 17.0984 26.5494 19.5132 26.633 22.1445L26.6496 22.6923L26.2843 22.2841C25.3221 21.212 24.445 20.3782 23.3566 19.6679C22.5281 19.1275 21.7113 18.5683 20.7804 18.2343C20.766 18.2483 20.7481 18.2687 20.7306 18.2949C20.7148 18.3185 20.7048 18.3422 20.6964 18.3613C20.7289 18.3974 20.7653 18.438 20.8087 18.4843C20.8768 18.5569 20.931 18.6084 20.9581 18.6269H20.9572C22.5499 19.7012 24.2069 20.6688 25.5402 22.2177L25.7892 22.5068L25.4093 22.5468C23.0087 22.796 20.9998 22.241 19.5089 21.0214C18.0194 19.8028 17.0689 17.9381 16.7462 15.6093L16.7179 15.4072L16.9201 15.3837ZM22.3517 16.4521C20.7119 15.7713 18.9549 15.5757 17.174 15.7577C17.5118 17.913 18.4101 19.6052 19.7628 20.7119C21.0759 21.786 22.8351 22.3237 24.9699 22.1816C23.7315 20.8549 22.2448 19.9773 20.7335 18.9579H20.7326C20.6631 18.9106 20.5802 18.8254 20.5167 18.7577C20.4538 18.6906 20.3787 18.6055 20.3498 18.5742C20.2956 18.5154 20.2838 18.4457 20.2824 18.4013C20.2809 18.3554 20.2899 18.3123 20.2999 18.2773C20.3203 18.2066 20.3569 18.1344 20.3986 18.0722C20.44 18.0104 20.4954 17.9452 20.5607 17.8974C20.6186 17.855 20.7318 17.7923 20.8624 17.8378C21.8706 18.1892 22.7472 18.7927 23.5753 19.3329C24.5513 19.9698 25.3582 20.7002 26.1886 21.5878C25.9165 19.3338 24.4711 17.3314 22.3517 16.4521Z" fill="#0F9D58"/>
</g>
<defs>
<filter id="filter0_d_6784_181860" x="0" y="0" width="55.9971" height="55.9971" filterUnits="userSpaceOnUse" color-interpolation-filters="sRGB">
<feFlood flood-opacity="0" result="BackgroundImageFix"/>
<feColorMatrix in="SourceAlpha" type="matrix" values="0 0 0 0 0 0 0 0 0 0 0 0 0 0 0 0 0 0 127 0" result="hardAlpha"/>
<feOffset dy="2"/>
<feGaussianBlur stdDeviation="2"/>
<feComposite in2="hardAlpha" operator="out"/>
<feColorMatrix type="matrix" values="0 0 0 0 0 0 0 0 0 0 0 0 0 0 0 0 0 0 0.16 0"/>
<feBlend mode="normal" in2="BackgroundImageFix" result="effect1_dropShadow_6784_181860"/>
<feBlend mode="normal" in="SourceGraphic" in2="effect1_dropShadow_6784_181860" result="shape"/>
</filter>
</defs>
</svg>
