<svg width="56" height="56" viewBox="0 0 56 56" fill="none" xmlns="http://www.w3.org/2000/svg">
<g filter="url(#filter0_d_6784_181884)">
<path d="M4 25.9985C4 12.7445 14.7445 2 27.9985 2C41.2525 2 51.997 12.7445 51.997 25.9985C51.997 39.2525 41.2525 49.997 27.9985 49.997C14.7445 49.997 4 39.2525 4 25.9985Z" fill="white" shape-rendering="crispEdges"/>
<path d="M27.998 2.5C40.9758 2.5 51.4968 13.0204 51.4971 25.998C51.4971 38.9759 40.9759 49.4971 27.998 49.4971C15.0204 49.4968 4.5 38.9758 4.5 25.998C4.50025 13.0205 15.0205 2.50025 27.998 2.5Z" stroke="#E0DFDF" shape-rendering="crispEdges"/>
<path d="M22.5585 21.7169C22.5574 21.2135 22.1893 20.6786 21.6739 20.6743L19.5442 20.6548C19.2605 20.6526 18.8253 21.0045 18.8177 21.2503L18.7831 22.2486L16.8764 22.2995C16.4812 22.3103 16.2636 22.7748 16.2657 23.0909L16.2755 24.1607C15.9041 24.1899 15.144 24.1163 15.0769 24.5883C14.9567 25.435 15.0033 26.3402 15.0314 27.2053C15.0585 28.0726 16.2917 27.7196 16.2917 27.9394V28.3876C16.2917 28.811 16.3946 29.3805 16.8785 29.453C17.5033 29.5451 18.1085 29.5234 18.7874 29.5158L18.809 30.3528C18.822 30.8985 19.1815 31.2818 19.738 31.2958C21.0546 31.3294 22.565 31.6131 22.5639 30.2532L22.5585 21.7169ZM16.1261 27.1176C16.0513 27.1836 15.772 26.9963 15.7731 26.8924L15.7818 25.0896C15.7818 24.9662 16.1899 24.9229 16.2636 24.989L16.2787 26.7679C16.2798 26.8707 16.1856 27.0645 16.1261 27.1176ZM17.4524 28.7547C17.2737 28.759 17.0724 28.5176 17.0724 28.3237L17.0864 23.0877L18.7971 23.0574L18.8112 28.7211L17.4524 28.7547ZM19.6492 30.4665L19.6547 21.5177L21.7389 21.5253L21.7476 30.4372L19.6492 30.4665Z" fill="#0F9D58"/>
<path d="M22.4085 21.7173C22.408 21.5 22.3274 21.2732 22.1917 21.1021C22.0564 20.9318 21.8746 20.8264 21.6721 20.8247L19.5422 20.8052C19.4514 20.8048 19.3059 20.867 19.1721 20.9761C19.1083 21.0282 19.0545 21.0848 19.0178 21.1382C18.9988 21.166 18.9866 21.1899 18.9788 21.2095L18.9671 21.2554L18.928 22.395L16.8801 22.4497C16.7472 22.4534 16.6336 22.5324 16.5471 22.6636C16.46 22.7958 16.4146 22.9614 16.4153 23.0894L16.4251 24.1597L16.426 24.2993L16.2874 24.3101C16.1906 24.3177 16.064 24.3194 15.9465 24.3237C15.8237 24.3283 15.6997 24.3358 15.5881 24.356C15.4753 24.3764 15.3866 24.4074 15.3255 24.4497C15.2695 24.4885 15.2351 24.5376 15.2249 24.6099C15.107 25.4404 15.1526 26.3301 15.1809 27.2007C15.1864 27.376 15.2499 27.4737 15.3313 27.5366C15.4206 27.6056 15.5476 27.644 15.6946 27.6665C15.8471 27.6898 15.9792 27.6916 16.1126 27.7046C16.1708 27.7103 16.2376 27.7196 16.2922 27.7407C16.3464 27.7617 16.4414 27.8177 16.4417 27.939V28.3872C16.4417 28.5903 16.4663 28.816 16.5413 28.9937C16.6141 29.1663 16.7257 29.2778 16.8997 29.3042C17.5096 29.394 18.101 29.3734 18.7854 29.3657L18.9329 29.3638L18.9592 30.3491L18.9768 30.521C19.0083 30.6833 19.0786 30.8182 19.177 30.9194C19.3078 31.054 19.4981 31.1398 19.7415 31.146C19.908 31.1503 20.0773 31.1582 20.2444 31.1665C20.4122 31.1749 20.5779 31.183 20.7395 31.188C21.0641 31.198 21.3641 31.1936 21.6194 31.1489C21.8749 31.1042 22.0703 31.022 22.2014 30.8892C22.3291 30.7598 22.4136 30.5641 22.4133 30.2534L22.4085 21.7173ZM19.6546 21.3677L21.7395 21.3755H21.8889L21.8977 30.5855L19.6506 30.6167L19.4993 30.6187L19.5042 21.3667L19.6546 21.3677ZM19.7991 30.314L21.596 30.2896L21.5891 21.6743L19.803 21.6675L19.7991 30.314ZM18.9465 23.0571L18.9612 28.7212V28.8677L18.8147 28.8706L17.4563 28.9048C17.3025 28.9083 17.1671 28.8107 17.0813 28.7114C17.0152 28.6349 16.959 28.5356 16.9348 28.4302L16.9221 28.3237L16.9358 23.0874L16.9368 22.94L17.0833 22.938L18.7942 22.9077L18.9465 22.9048V23.0571ZM16.1672 24.8101C16.1978 24.8121 16.2297 24.8166 16.26 24.8247C16.2737 24.8284 16.2909 24.8339 16.3089 24.8423L16.3635 24.8775L16.4124 24.9214L16.4133 24.9878L16.429 26.7661C16.4299 26.8518 16.3945 26.9516 16.3616 27.0239C16.3437 27.0632 16.3232 27.1016 16.302 27.1353C16.2822 27.1667 16.2563 27.2029 16.2258 27.23C16.1462 27.3002 16.0448 27.282 16.0003 27.27C15.9439 27.2548 15.887 27.2261 15.8391 27.1948C15.7907 27.1632 15.7424 27.123 15.7044 27.0796C15.6727 27.0433 15.6225 26.9755 15.6233 26.8911L15.6311 25.0894C15.6313 24.9679 15.7296 24.9042 15.7776 24.8794C15.8365 24.849 15.907 24.8302 15.971 24.8198C16.0363 24.8093 16.1058 24.8059 16.1672 24.8101ZM16.0188 25.1167C15.9819 25.1227 15.9519 25.1309 15.9309 25.1392L15.9231 26.8726C15.9249 26.875 15.9268 26.8787 15.9299 26.8823C15.9463 26.9011 15.9728 26.923 16.0032 26.9429C16.0206 26.9542 16.0382 26.96 16.052 26.9663C16.0637 26.947 16.0768 26.9239 16.0881 26.8989C16.1169 26.8356 16.1284 26.7862 16.1282 26.7691L16.1145 25.1109C16.0851 25.111 16.0518 25.1114 16.0188 25.1167ZM17.2219 28.3237C17.2219 28.374 17.2517 28.4491 17.3089 28.5152C17.3683 28.5839 17.4239 28.6056 17.4485 28.605L18.6604 28.5737L18.6467 23.2095L17.2356 23.2349L17.2219 28.3237ZM22.7141 30.2534C22.7143 30.6223 22.6105 30.9014 22.4143 31.1001C22.2216 31.2952 21.9572 31.3947 21.6712 31.4448C21.3845 31.495 21.0595 31.4979 20.7307 31.4878C20.5656 31.4827 20.3966 31.4746 20.2297 31.4663C20.0623 31.458 19.8962 31.45 19.7337 31.4458C19.4209 31.4378 19.1534 31.3252 18.9622 31.1284C18.7714 30.9321 18.6658 30.662 18.6585 30.3569L18.6399 29.6655C18.0237 29.6739 17.4486 29.6883 16.8567 29.6011C16.5475 29.5546 16.3643 29.3455 16.2649 29.1099C16.1676 28.8789 16.1419 28.6074 16.1419 28.3872V28.0122C16.1267 28.0098 16.1073 28.0058 16.0833 28.0034C15.9848 27.9938 15.8073 27.9876 15.6487 27.9634C15.4842 27.9382 15.2972 27.8895 15.1477 27.7739C14.9904 27.6524 14.8893 27.4685 14.8811 27.2105C14.8532 26.3511 14.8055 25.4296 14.928 24.5669C14.9513 24.4034 15.0377 24.2847 15.1546 24.2036C15.2664 24.1262 15.4036 24.0849 15.5354 24.061C15.6685 24.037 15.8088 24.0286 15.9348 24.0239C16.0038 24.0214 16.0667 24.0179 16.1233 24.0161L16.1155 23.0923C16.1142 22.9044 16.1767 22.68 16.2962 22.4985C16.4167 22.3157 16.6102 22.1571 16.8723 22.1499L18.637 22.1011L18.6672 21.2446C18.6707 21.1432 18.7166 21.0473 18.7708 20.9683C18.8267 20.8868 18.9014 20.8099 18.9827 20.7437C19.1391 20.6161 19.3523 20.5029 19.5452 20.5044L21.6751 20.5239L21.7893 20.5327C22.0514 20.5689 22.2702 20.7193 22.426 20.9155C22.6032 21.1386 22.7076 21.4304 22.7083 21.7163L22.7141 30.2534Z" fill="#0F9D58"/>
<path d="M40.9672 24.437C40.6456 24.2378 40.2851 24.189 39.878 24.1522L39.8314 23.1854C39.8054 22.631 39.4492 22.3484 38.9111 22.3452L37.2491 22.3332L37.2015 21.3545C37.1863 21.0221 36.7402 20.6669 36.3959 20.6658L34.3799 20.6626C33.9317 20.6615 33.5365 21.06 33.5354 21.5125L33.5181 30.4667C33.5181 30.7969 33.8212 31.2928 34.1417 31.2971L36.3158 31.3242C36.9102 31.3307 37.2426 30.9214 37.2481 30.3617L37.2556 29.5788H38.9057C39.5044 29.5778 39.8531 29.0884 39.8108 28.5232C39.7957 28.3294 39.8282 27.9472 39.8531 27.8768C40.3186 27.8183 40.5937 27.7761 40.7604 27.6083C40.8903 27.4784 41.0018 27.1276 40.9986 26.9153L40.9672 24.437ZM34.3658 30.4591L34.3702 21.5277H36.4273L36.4371 30.445L34.3658 30.4591ZM37.234 28.8079L37.2166 23.0966L39.0324 23.1193L39.0389 28.796L37.234 28.8079ZM40.2201 26.8114C40.2201 26.8959 40.0837 27.0648 40.0404 27.1027C39.983 27.1535 39.7968 26.9673 39.7979 26.8753L39.8 25.0834C39.8 25.0108 40.0068 24.8831 40.0512 24.9253C40.1097 24.9816 40.2266 25.1786 40.2255 25.275L40.2201 26.8114Z" fill="#0F9D58"/>
<path d="M36.396 20.5161C36.6138 20.5168 36.8443 20.6261 37.0181 20.771C37.1898 20.9142 37.3406 21.1212 37.3511 21.3472L37.3911 22.1841L38.9126 22.1948C39.2064 22.1967 39.4686 22.2752 39.6626 22.4458C39.8585 22.6182 39.9664 22.8691 39.981 23.1782L40.021 24.0161C40.3311 24.0479 40.6319 24.0966 40.9116 24.2349L41.0464 24.3091L41.1157 24.353L41.1177 24.4351L41.1489 26.9126L41.144 27.0142C41.1337 27.1195 41.1071 27.235 41.0718 27.3403C41.0374 27.443 40.9898 27.5514 40.9302 27.6372L40.8667 27.7144C40.7572 27.8245 40.6177 27.8859 40.4565 27.9282C40.3233 27.9632 40.1645 27.9863 39.981 28.0103C39.9756 28.0538 39.9705 28.1072 39.9663 28.1646C39.9571 28.2908 39.9538 28.4257 39.9604 28.5112C39.984 28.8267 39.8991 29.1304 39.7153 29.3569C39.5528 29.5572 39.318 29.6914 39.0317 29.7222L38.9058 29.729H37.4038L37.3979 30.3628C37.395 30.6712 37.3014 30.9522 37.1128 31.1567C36.9462 31.3374 36.7157 31.4479 36.437 31.4702L36.314 31.4741L34.1401 31.4468C33.9061 31.4436 33.711 31.2686 33.5864 31.0903C33.4581 30.9067 33.3677 30.67 33.3677 30.4663L33.3853 21.5122C33.3865 20.9785 33.8476 20.5109 34.3804 20.5122L36.396 20.5161ZM34.3794 20.813C34.0157 20.8122 33.6859 21.1418 33.6851 21.5132L33.6685 30.4673C33.6686 30.5938 33.7293 30.7708 33.8325 30.9185C33.9397 31.0717 34.0577 31.1458 34.144 31.147L36.3179 31.1743C36.5779 31.1771 36.7665 31.0898 36.8921 30.9536C37.0197 30.8152 37.0957 30.6112 37.0981 30.3599L37.106 29.5776L37.1069 29.4292H38.9058C39.1606 29.4287 39.3543 29.3255 39.4819 29.1685C39.5953 29.0287 39.6623 28.8389 39.6646 28.6265L39.6616 28.5347C39.6532 28.4264 39.658 28.2737 39.6675 28.1431C39.6723 28.0769 39.6783 28.0135 39.6851 27.9614C39.6911 27.9151 39.699 27.8617 39.7114 27.8267L39.7427 27.7397L39.8345 27.728C40.0692 27.6986 40.244 27.674 40.3804 27.6382C40.5147 27.6029 40.5966 27.56 40.6538 27.5024C40.6937 27.4625 40.7461 27.3686 40.7876 27.2446C40.8077 27.1846 40.8231 27.1239 40.8335 27.0679L40.8481 26.9175L40.8179 24.5249C40.5466 24.3792 40.2396 24.3352 39.8647 24.3013L39.7349 24.2896L39.728 24.1597L39.6812 23.1929C39.6696 22.9481 39.5873 22.7796 39.4644 22.6714C39.3394 22.5615 39.1545 22.4972 38.9106 22.4956L37.106 22.4819L37.0513 21.3618C37.0462 21.2557 36.9665 21.1189 36.8257 21.0015C36.6865 20.8854 36.5215 20.8163 36.395 20.8159L34.3794 20.813ZM36.5776 21.3774V21.5278L36.5874 30.4448V30.5942L34.2153 30.6099L34.2163 30.4595L34.2202 21.3774H36.5776ZM34.5161 30.3071L36.2856 30.2964L36.2769 21.6772H34.52L34.5161 30.3071ZM39.1821 22.9712V23.1187L39.189 28.7954V28.9448L37.0845 28.9585L37.0835 28.8081L37.0669 23.0972L37.0659 22.9448L39.1821 22.9712ZM37.3833 28.6558L38.8882 28.646L38.8823 23.2671L37.3667 23.2476L37.3833 28.6558ZM40.0337 24.7671C40.0565 24.768 40.0899 24.7733 40.1226 24.7925L40.1548 24.8169C40.201 24.8614 40.2545 24.9411 40.2935 25.0142C40.3141 25.0529 40.3333 25.0956 40.3481 25.1372C40.3619 25.1757 40.3747 25.2251 40.3745 25.2749L40.3755 25.2759L40.3706 26.812C40.3705 26.867 40.3496 26.9179 40.3335 26.9517C40.3155 26.9894 40.2924 27.0265 40.27 27.0591C40.2273 27.1213 40.1741 27.1836 40.1392 27.2144C40.0522 27.2913 39.9496 27.2534 39.9155 27.2378C39.8693 27.2165 39.8269 27.1831 39.7935 27.1509C39.7589 27.1175 39.7253 27.0773 39.6997 27.0356C39.6772 26.999 39.6472 26.9398 39.6479 26.8735L39.6499 25.0835C39.6499 25.04 39.6654 25.0041 39.6782 24.981C39.6916 24.957 39.7077 24.936 39.7231 24.9194C39.7542 24.8862 39.7928 24.8575 39.8296 24.8345C39.866 24.8118 39.9092 24.79 39.9526 24.7778C39.9741 24.7718 40.0026 24.7658 40.0337 24.7671ZM39.9487 25.1187L39.9478 26.8638C39.9491 26.8668 39.9506 26.872 39.9546 26.8784C39.9638 26.8934 39.9781 26.9101 39.9937 26.9263C40.0029 26.9143 40.0139 26.9023 40.0229 26.8892C40.0399 26.8644 40.0541 26.8415 40.063 26.8228C40.0673 26.8138 40.0689 26.8079 40.0698 26.8052L40.0757 25.2749V25.273C40.0753 25.2703 40.0735 25.259 40.0659 25.2378C40.0573 25.2137 40.0436 25.1853 40.0278 25.1558C40.0142 25.1302 40.0002 25.1074 39.9878 25.0884C39.9715 25.0986 39.9581 25.1098 39.9487 25.1187Z" fill="#0F9D58"/>
<path d="M33.0254 25.0271L23.3631 25.0368C23.1293 25.0368 22.8445 24.8506 22.8294 24.6947C22.8142 24.5388 23.0329 24.2031 23.2278 24.2031L32.7319 24.215C32.8456 24.215 33.0438 24.3623 33.1369 24.4186C33.2484 24.4868 33.165 25.0271 33.0254 25.0271Z" fill="#0F9D58"/>
<path d="M32.7319 24.0654C32.7888 24.0654 32.8435 24.0822 32.8862 24.0996C32.9312 24.1179 32.9765 24.1424 33.0171 24.166C33.0581 24.1899 33.0984 24.2153 33.1323 24.2373C33.1677 24.2603 33.1939 24.2777 33.2143 24.29L33.2153 24.291C33.2693 24.3242 33.2964 24.3752 33.31 24.4111C33.3246 24.4493 33.3319 24.4904 33.3354 24.5283C33.3427 24.6048 33.3365 24.6923 33.3227 24.7734C33.3091 24.854 33.2859 24.9396 33.2515 25.0088C33.2345 25.0429 33.2112 25.0803 33.1792 25.1113C33.1467 25.1427 33.0947 25.1766 33.0259 25.1768L23.3638 25.1865H23.3628C23.2103 25.1864 23.0532 25.1273 22.9331 25.0498C22.872 25.0104 22.8153 24.9629 22.771 24.9092C22.7279 24.857 22.6879 24.7886 22.6802 24.709C22.6731 24.6356 22.6929 24.5592 22.7182 24.4961C22.7449 24.4297 22.7839 24.362 22.8296 24.3008C22.875 24.2399 22.9313 24.1808 22.9946 24.1357C23.0567 24.0917 23.1371 24.0527 23.228 24.0527L32.7319 24.0654ZM23.228 24.3535C23.2217 24.3535 23.2015 24.3565 23.1684 24.3799C23.1365 24.4026 23.1015 24.438 23.0698 24.4805C23.0384 24.5226 23.0127 24.5682 22.9966 24.6084C22.9887 24.6282 22.9837 24.6457 22.9809 24.6592C22.9796 24.6657 22.9793 24.671 22.979 24.6748C22.9788 24.6774 22.979 24.679 22.979 24.6797C22.9791 24.6798 22.9818 24.6937 23.0024 24.7188C23.023 24.7436 23.0544 24.7715 23.0952 24.7979C23.1795 24.8523 23.2815 24.8866 23.3628 24.8867L32.9809 24.877L32.9829 24.875C32.9999 24.8408 33.0171 24.7866 33.0278 24.7236C33.0384 24.6612 33.0407 24.6006 33.0366 24.5566C33.0355 24.5447 33.0331 24.5358 33.0317 24.5293C33.0117 24.5165 32.9893 24.5029 32.9682 24.4893C32.9353 24.4679 32.901 24.4457 32.8667 24.4258C32.8322 24.4057 32.8007 24.3889 32.7739 24.3779L32.7319 24.3652L23.228 24.3535Z" fill="#0F9D58"/>
<path d="M32.8444 27.754L23.2201 27.7518C22.9862 27.7518 22.7946 27.5569 22.7859 27.3783C22.7773 27.1996 22.9678 26.9452 23.1779 26.9463L32.7405 26.955C32.9343 27.0221 33.1498 27.1563 33.1866 27.2852C33.231 27.44 33.0631 27.6327 32.8433 27.7551L32.8444 27.754Z" fill="#0F9D58"/>
<path d="M32.7661 26.8047L32.7895 26.8135C32.8979 26.851 33.0134 26.9076 33.1089 26.9746C33.1972 27.0367 33.2973 27.1278 33.3305 27.2441C33.3719 27.3886 33.309 27.5254 33.2329 27.624C33.1538 27.7265 33.0395 27.8172 32.9165 27.8857L32.8442 27.79V27.9043L23.2202 27.9014C23.0612 27.9014 22.9199 27.8358 22.8178 27.7432C22.7176 27.6521 22.643 27.5236 22.6362 27.3857C22.6295 27.2467 22.697 27.1025 22.7856 26.9981C22.8747 26.8931 23.0129 26.7952 23.1782 26.7959L32.7661 26.8047ZM23.1772 27.0967C23.1326 27.0965 23.0706 27.1258 23.0141 27.1924C22.9573 27.2595 22.9341 27.3316 22.936 27.3711C22.938 27.4118 22.9629 27.4705 23.019 27.5215C23.0734 27.5709 23.1454 27.6016 23.2202 27.6016L32.7983 27.6035C32.8814 27.5532 32.9521 27.4969 32.9956 27.4404C33.0469 27.3737 33.0454 27.3364 33.0425 27.3262C33.0388 27.3137 33.0126 27.2735 32.936 27.2197C32.8709 27.174 32.7885 27.1329 32.7085 27.1035L23.1772 27.0967Z" fill="#0F9D58"/>
</g>
<defs>
<filter id="filter0_d_6784_181884" x="0" y="0" width="55.9971" height="55.9971" filterUnits="userSpaceOnUse" color-interpolation-filters="sRGB">
<feFlood flood-opacity="0" result="BackgroundImageFix"/>
<feColorMatrix in="SourceAlpha" type="matrix" values="0 0 0 0 0 0 0 0 0 0 0 0 0 0 0 0 0 0 127 0" result="hardAlpha"/>
<feOffset dy="2"/>
<feGaussianBlur stdDeviation="2"/>
<feComposite in2="hardAlpha" operator="out"/>
<feColorMatrix type="matrix" values="0 0 0 0 0 0 0 0 0 0 0 0 0 0 0 0 0 0 0.16 0"/>
<feBlend mode="normal" in2="BackgroundImageFix" result="effect1_dropShadow_6784_181884"/>
<feBlend mode="normal" in="SourceGraphic" in2="effect1_dropShadow_6784_181884" result="shape"/>
</filter>
</defs>
</svg>
