<svg width="56" height="56" viewBox="0 0 56 56" fill="none" xmlns="http://www.w3.org/2000/svg">
<g filter="url(#filter0_d_6784_181801)">
<path d="M4 25.9985C4 12.7445 14.7445 2 27.9985 2C41.2525 2 51.997 12.7445 51.997 25.9985C51.997 39.2525 41.2525 49.997 27.9985 49.997C14.7445 49.997 4 39.2525 4 25.9985Z" fill="white" shape-rendering="crispEdges"/>
<path d="M27.998 2.5C40.9758 2.5 51.4968 13.0204 51.4971 25.998C51.4971 38.9759 40.9759 49.4971 27.998 49.4971C15.0204 49.4968 4.5 38.9758 4.5 25.998C4.50025 13.0205 15.0205 2.50025 27.998 2.5Z" stroke="#E0DFDF" shape-rendering="crispEdges"/>
<path d="M38.1765 19.8081C36.1608 16.4972 32.758 14.2787 28.8861 14.0273C26.0254 13.842 23.473 14.5505 21.195 16.2133C18.3993 18.2547 16.4687 21.3073 16.1605 24.7899C15.8117 28.7361 17.2407 32.3998 20.1608 34.9955C24.5032 38.8552 30.4394 38.9404 35.013 35.5619C39.9529 31.9118 41.3792 25.0684 38.1765 19.8081ZM36.1378 32.9947C32.7052 37.0193 26.9177 38.0995 22.4388 35.3037C19.3226 33.3583 17.4326 30.1354 17.2488 26.6014C17.0555 22.9012 18.7535 19.4917 21.6939 17.2624C25.6496 14.2625 31.0356 14.5167 34.8115 17.6247C39.5419 21.5182 40.1557 28.2819 36.1378 32.9947Z" fill="#0F9D58"/>
<path d="M21.0472 16.0112C23.3745 14.3123 25.9855 13.589 28.9017 13.7778C32.8615 14.0349 36.3354 16.3036 38.39 19.6781C41.6613 25.0515 40.203 32.0379 35.1614 35.7631C30.4977 39.2082 24.4295 39.1242 19.9944 35.1821C17.014 32.5326 15.5559 28.7911 15.9114 24.768C16.2268 21.2047 18.201 18.0894 21.0472 16.0112ZM28.8694 14.2768C26.0646 14.0952 23.5706 14.7887 21.3421 16.4155C18.597 18.42 16.7106 21.4103 16.4095 24.8119C16.0675 28.6811 17.4669 32.2671 20.3265 34.809C24.5761 38.5862 30.3813 38.6725 34.8646 35.3608C39.7026 31.7857 41.0969 25.085 37.9632 19.9379C35.9863 16.6908 32.6534 14.5225 28.8694 14.2768ZM21.5423 17.0629C25.5948 13.9896 31.1091 14.254 34.97 17.4321C39.8084 21.4146 40.4358 28.3378 36.3275 33.1567C32.82 37.2691 26.8969 38.3817 22.306 35.516C19.1218 33.5281 17.1876 30.2312 16.9993 26.6147C16.8014 22.8266 18.5402 19.339 21.5423 17.0629ZM34.6526 17.8178C30.9618 14.7798 25.704 14.535 21.845 17.4614C18.9663 19.6439 17.3096 22.9761 17.4984 26.5883C17.6779 30.0392 19.5229 33.1883 22.5706 35.0912C26.9375 37.8171 32.5899 36.7693 35.9476 32.8324C39.8749 28.2258 39.2747 21.6223 34.6526 17.8178Z" fill="#0F9D58"/>
<path d="M34.1196 23.3431L30.8831 23.3269L30.8547 20.2242C30.8493 19.6294 30.4356 19.1319 29.7988 19.1305L26.4042 19.1265C25.8864 19.1265 25.2294 19.505 25.2239 20.0742L25.1915 23.335L22.2294 23.3269C21.5697 23.3255 21.056 23.7014 21.0519 24.4071L21.0303 27.7868C21.0262 28.4412 21.4156 28.8549 22.1051 28.8589L25.201 28.8738L25.2131 31.9778C25.2158 32.5821 25.5322 33.0282 26.1595 33.0255L30.0611 33.0093C30.5235 33.0093 30.8547 32.5415 30.856 32.117L30.8682 28.8832L34.2493 28.8454C34.6468 28.84 35.1903 28.4547 35.1903 28.0559V24.4111C35.1903 23.8122 34.7387 23.3458 34.1196 23.3431ZM30.879 27.8571C30.3031 27.8639 29.8502 28.2925 29.8502 28.8603V31.994L26.2663 31.9913L26.246 28.7156C26.2433 28.2789 25.8594 27.8517 25.3862 27.8504H22.0983L22.101 24.3787L25.3524 24.3733C25.7769 24.3733 26.2528 24.0785 26.2528 23.6121L26.2555 20.139L29.8218 20.1336L29.8624 23.5743C29.8651 23.9163 30.3045 24.3651 30.6384 24.3651L34.1412 24.3678L34.175 27.822L30.879 27.8571Z" fill="#0F9D58"/>
<path d="M34.94 24.4106C34.9397 23.9488 34.5982 23.5954 34.1177 23.5933L30.8814 23.5767L30.6353 23.5757L30.6324 23.3296L30.604 20.2261C30.5995 19.7477 30.2772 19.3814 29.7974 19.3804L26.4038 19.3765C26.1997 19.3765 25.9569 19.4532 25.7681 19.5894C25.5802 19.725 25.4749 19.8959 25.4732 20.0767L25.441 23.3374L25.439 23.5854H25.19L22.2281 23.5767C21.944 23.5762 21.7131 23.6572 21.5572 23.7915C21.4059 23.9219 21.303 24.1212 21.3013 24.4087L21.2798 27.7886C21.2781 28.0656 21.3589 28.2631 21.4849 28.3911C21.6108 28.5189 21.8112 28.6071 22.106 28.6089L25.4497 28.6245L25.4624 31.9771C25.4637 32.2385 25.5327 32.4383 25.6421 32.5679C25.7464 32.6913 25.9088 32.7769 26.1577 32.7759L30.0601 32.7593C30.2011 32.7591 30.334 32.6885 30.438 32.563C30.5436 32.4355 30.6054 32.268 30.606 32.1167L30.6187 28.6362L34.2456 28.5952L34.3511 28.5815C34.4648 28.5557 34.5973 28.4937 34.7134 28.4019C34.8721 28.2762 34.9398 28.1448 34.94 28.0562V24.4106ZM29.6001 28.8599C29.6003 28.1447 30.1738 27.6152 30.8755 27.6069L33.9214 27.5737L33.8931 24.6167L30.6382 24.6147C30.3735 24.6147 30.1188 24.4484 29.9468 24.2729C29.7741 24.0967 29.6145 23.8407 29.6118 23.5776L29.5738 20.3833L26.5044 20.3882L26.5025 23.6128C26.5022 23.939 26.3335 24.197 26.1138 24.3657C25.924 24.5114 25.6862 24.599 25.4517 24.6187L25.3521 24.6235L22.3492 24.6274L22.3482 27.6001H25.3863C26.0063 27.6019 26.4921 28.1504 26.4956 28.7144L26.5142 31.7417L29.6001 31.7427V28.8599ZM30.1001 32.2446L29.8492 32.2437L26.2652 32.2417L26.0171 32.2407L26.0161 31.9927L25.9956 28.7173C25.994 28.4465 25.7772 28.1781 25.5044 28.1147L25.3853 28.1001H21.8472L21.8482 27.8501L21.8501 24.3784L21.8511 24.1294L22.1001 24.1284L25.3511 24.1235C25.5098 24.1235 25.6819 24.0668 25.8091 23.9692C25.9332 23.8741 26.0025 23.7515 26.0025 23.6118L26.0054 19.8892H26.2544L29.8208 19.8833H30.0689L30.1118 23.5718C30.1127 23.6503 30.1737 23.7902 30.3042 23.9233C30.436 24.0577 30.5691 24.1147 30.6382 24.1147L34.3882 24.1177L34.3911 24.3657L34.4243 27.8198L34.4273 28.0688L34.1773 28.0718L30.8814 28.1069C30.4317 28.1123 30.1003 28.4399 30.1001 28.8599V32.2446ZM35.44 28.0562C35.4399 28.3661 35.236 28.6266 35.024 28.7944C34.8075 28.9657 34.5202 29.0915 34.2525 29.0952L31.1167 29.1304L31.106 32.1177C31.1051 32.3906 30.9994 32.6691 30.8238 32.8813C30.6464 33.0955 30.382 33.2582 30.0611 33.2583L30.062 33.2593L26.1597 33.2759C25.7817 33.2774 25.4716 33.141 25.2603 32.8911C25.0542 32.6473 24.964 32.3214 24.9624 31.979L24.9507 29.1216L22.1031 29.1089C21.7087 29.1065 21.3695 28.986 21.1294 28.7427C20.8897 28.4994 20.7776 28.1625 20.7798 27.7856L20.8013 24.4058C20.8037 23.9879 20.9598 23.6462 21.231 23.4126C21.4976 23.183 21.8537 23.076 22.229 23.0767L24.9429 23.0845L24.9732 20.0718L24.9849 19.9302C25.0344 19.6093 25.2376 19.3555 25.4751 19.1841C25.7456 18.9888 26.0903 18.8765 26.4038 18.8765L29.7984 18.8804C30.5917 18.8823 31.0976 19.5112 31.104 20.2222L31.1294 23.0776L34.1206 23.0933C34.8779 23.0968 35.4397 23.6753 35.44 24.4106V28.0562Z" fill="#0F9D58"/>
</g>
<defs>
<filter id="filter0_d_6784_181801" x="0" y="0" width="55.9971" height="55.9971" filterUnits="userSpaceOnUse" color-interpolation-filters="sRGB">
<feFlood flood-opacity="0" result="BackgroundImageFix"/>
<feColorMatrix in="SourceAlpha" type="matrix" values="0 0 0 0 0 0 0 0 0 0 0 0 0 0 0 0 0 0 127 0" result="hardAlpha"/>
<feOffset dy="2"/>
<feGaussianBlur stdDeviation="2"/>
<feComposite in2="hardAlpha" operator="out"/>
<feColorMatrix type="matrix" values="0 0 0 0 0 0 0 0 0 0 0 0 0 0 0 0 0 0 0.25 0"/>
<feBlend mode="normal" in2="BackgroundImageFix" result="effect1_dropShadow_6784_181801"/>
<feBlend mode="normal" in="SourceGraphic" in2="effect1_dropShadow_6784_181801" result="shape"/>
</filter>
</defs>
</svg>
