<svg width="56" height="56" viewBox="0 0 56 56" fill="none" xmlns="http://www.w3.org/2000/svg">
<g filter="url(#filter0_d_6784_181866)">
<path d="M4 25.9985C4 12.7445 14.7445 2 27.9985 2C41.2525 2 51.997 12.7445 51.997 25.9985C51.997 39.2525 41.2525 49.997 27.9985 49.997C14.7445 49.997 4 39.2525 4 25.9985Z" fill="white" shape-rendering="crispEdges"/>
<path d="M27.998 2.5C40.9758 2.5 51.4968 13.0204 51.4971 25.998C51.4971 38.9759 40.9759 49.4971 27.998 49.4971C15.0204 49.4968 4.5 38.9758 4.5 25.998C4.50025 13.0205 15.0205 2.50025 27.998 2.5Z" stroke="#E0DFDF" shape-rendering="crispEdges"/>
<path d="M23.824 32.8077C23.8253 32.6901 23.9391 32.4664 24.0205 32.4005C24.1226 32.319 24.5428 32.4212 24.5467 32.5569L24.5829 33.8962L25.9326 33.997C26.0838 34.0087 26.2428 34.4056 26.2338 34.5465C26.2247 34.6874 25.9429 34.8723 25.749 34.8723L16.1177 34.8761C16.0479 35.6479 16.0428 36.2749 16.0738 37.0402L25.7477 37.048C25.9636 37.048 26.2299 37.3595 26.2441 37.5418C26.2622 37.7836 25.961 38.0149 25.6352 38.0149L16.2315 38.0188C15.664 38.0188 15.143 37.7848 15.0745 37.1074C14.9814 36.187 14.7383 33.9453 16.1617 33.944L21.8538 33.9415L21.8486 30.9384C20.1848 30.4497 18.9619 29.6133 17.7932 28.4136C15.4869 26.044 14.6931 22.6634 15.7558 19.3656C16.6633 16.5499 19.1299 14.2191 22.2455 13.5055C27.3107 12.3459 32.465 15.5274 33.4798 20.6454C33.8302 22.4113 33.591 24.1488 32.6977 25.6678C32.5296 25.9535 31.9311 25.8384 31.794 25.5217C34.1249 21.3306 31.3959 16.1582 27.1426 14.7414C25.4413 14.1751 23.5693 14.1532 21.8383 14.6897C17.161 16.1401 14.8586 21.4831 17.1003 25.8022C18.1487 27.8228 19.9612 29.2255 22.1085 29.9507C23.6676 30.4769 25.7645 30.3502 26.0748 30.7186C26.1756 30.8388 26.142 31.215 26.0269 31.3223C25.9119 31.4296 25.5693 31.4839 25.3986 31.4632L22.7613 31.1388L22.7807 33.9079L23.8072 33.9324L23.8227 32.8077H23.824Z" fill="#0F9D58"/>
<path d="M22.2122 13.3587C27.356 12.1813 32.5952 15.412 33.6272 20.6165C33.9838 22.4145 33.7402 24.1897 32.8264 25.7435C32.6949 25.967 32.4198 26.0048 32.2083 25.9681C31.9925 25.9305 31.7526 25.803 31.6565 25.5814L31.6272 25.513L31.6624 25.4485C33.8672 21.4841 31.4397 16.5935 27.4827 15.0247L27.095 14.8831C25.4235 14.3268 23.5832 14.3051 21.8821 14.8323C17.2918 16.256 15.0357 21.4991 17.2327 25.7327C18.2607 27.7138 20.0399 29.0932 22.1555 29.8079C22.9167 30.0648 23.8147 30.164 24.5755 30.2444C24.9518 30.2842 25.2982 30.3201 25.5696 30.3694C25.7053 30.3941 25.8285 30.4233 25.93 30.4603C26.0035 30.487 26.0762 30.5219 26.135 30.5696L26.1897 30.6214C26.2393 30.6807 26.2625 30.7576 26.2737 30.8226C26.2855 30.8911 26.2874 30.9662 26.2815 31.0374C26.2756 31.1087 26.2608 31.1818 26.2385 31.2474C26.2173 31.3099 26.184 31.3808 26.1292 31.4319C26.0804 31.4774 26.0171 31.5096 25.9583 31.5325C25.8974 31.5562 25.8297 31.5738 25.763 31.5872C25.6645 31.607 25.558 31.6187 25.4661 31.6175L25.3801 31.6116L22.9124 31.3079L22.929 33.761L23.6585 33.7786L23.6741 32.6575H23.7005C23.716 32.6081 23.7366 32.5596 23.7571 32.5179C23.7982 32.4344 23.8592 32.3376 23.926 32.2835C23.9943 32.2291 24.0861 32.2207 24.1458 32.221C24.2149 32.2213 24.2902 32.2333 24.3596 32.2523C24.4284 32.271 24.5009 32.2993 24.5598 32.3382C24.5977 32.3632 24.6539 32.4087 24.6809 32.4769L24.6966 32.5521L24.7288 33.7562L25.9436 33.847L26.012 33.8626C26.0757 33.8862 26.1248 33.9318 26.1575 33.969C26.2053 34.0235 26.2455 34.0914 26.2776 34.1575C26.3103 34.2247 26.3373 34.2966 26.3557 34.3626C26.3731 34.4249 26.387 34.4954 26.3831 34.556C26.3779 34.6361 26.3372 34.7038 26.2971 34.7523C26.2549 34.8033 26.2007 34.8491 26.1438 34.887C26.0338 34.9603 25.886 35.0216 25.7493 35.0218L16.2561 35.0247C16.2022 35.6802 16.1961 36.2382 16.219 36.8899L25.7473 36.8978C25.9184 36.8978 26.0762 37.0138 26.18 37.1233C26.2355 37.182 26.2846 37.248 26.3216 37.3148C26.3574 37.3795 26.3879 37.4546 26.3938 37.5296C26.4079 37.7185 26.2972 37.8817 26.1604 37.9876C26.0558 38.0686 25.9232 38.1281 25.7805 38.1526L25.635 38.1644L16.2317 38.1683C15.93 38.1683 15.6243 38.1067 15.3811 37.9407C15.1322 37.7708 14.9635 37.5018 14.9251 37.1224C14.879 36.6664 14.7916 35.8557 14.9007 35.1575C14.9552 34.8085 15.0616 34.4707 15.26 34.2171C15.4643 33.9562 15.7593 33.7946 16.1614 33.7942L21.7024 33.7913L21.6985 31.0482C20.0601 30.5466 18.8434 29.7062 17.6858 28.5179C15.3398 26.1075 14.5334 22.6689 15.6126 19.3196C16.5364 16.4534 19.0453 14.084 22.2122 13.3587ZM33.3323 20.6741C32.3345 15.6428 27.2648 12.5101 22.2786 13.6517C19.2144 14.3536 16.7899 16.6465 15.8987 19.4114C14.8526 22.6578 15.6341 25.9801 17.9007 28.3089C19.0551 29.4939 20.2566 30.3143 21.8909 30.7942L21.9983 30.8255V30.9378L22.0032 33.9407L22.0042 34.0911L16.1614 34.094C15.852 34.0944 15.6439 34.2132 15.4964 34.4017C15.3431 34.5975 15.2485 34.878 15.1975 35.2044C15.0956 35.8574 15.1769 36.6277 15.2239 37.0921C15.254 37.3899 15.3797 37.5763 15.5501 37.6927C15.7263 37.813 15.9651 37.8674 16.2307 37.8675L25.635 37.8646C25.764 37.8645 25.8888 37.8184 25.9768 37.7503C26.0447 37.6977 26.0788 37.6424 26.0901 37.596L26.094 37.553C26.0927 37.5369 26.0844 37.5047 26.0598 37.4603C26.0361 37.4174 26.0019 37.3713 25.9622 37.3294C25.8969 37.2605 25.8338 37.2208 25.7874 37.2054L25.7473 37.1976L15.93 37.1898L15.9241 37.0462C15.8929 36.2759 15.8975 35.6422 15.968 34.8626L15.9807 34.7259L25.7483 34.722C25.8053 34.722 25.8954 34.6912 25.9768 34.637C26.0157 34.6111 26.0465 34.5841 26.0657 34.5608C26.0867 34.5354 26.0849 34.5271 26.0843 34.5364C26.0848 34.5263 26.0811 34.4943 26.0667 34.4427C26.0531 34.3944 26.0329 34.3394 26.0081 34.2884C25.9828 34.2365 25.956 34.1938 25.9319 34.1663C25.9211 34.154 25.9132 34.1486 25.9094 34.1458L24.5716 34.0452L24.4368 34.0355L24.4329 33.8997L24.3968 32.5911L24.3948 32.5892C24.3707 32.5733 24.3301 32.5549 24.2805 32.5413C24.232 32.5281 24.1832 32.522 24.1448 32.5218C24.128 32.5217 24.1154 32.5223 24.1077 32.5237C24.0902 32.5422 24.0581 32.5866 24.0266 32.6507C23.9905 32.7242 23.9743 32.7845 23.9739 32.8089L23.9719 32.9573L23.9573 33.9339L23.9553 34.0862L23.803 34.0823L22.7766 34.0579L22.6311 34.054L22.6116 31.1399L22.6096 30.969L22.7796 30.9896L25.4163 31.3138C25.4806 31.3216 25.5919 31.3157 25.7034 31.2933C25.7579 31.2823 25.8089 31.2682 25.8499 31.2523C25.8926 31.2356 25.9153 31.2204 25.9241 31.2122C25.9241 31.2122 25.926 31.211 25.928 31.2083C25.93 31.2056 25.932 31.2016 25.9348 31.1966C25.941 31.1856 25.9488 31.1708 25.9553 31.1517C25.9685 31.1129 25.9774 31.064 25.9817 31.013C25.986 30.9618 25.9845 30.9124 25.9778 30.8733C25.9745 30.8542 25.9702 30.8391 25.9661 30.8284C25.9622 30.8185 25.9593 30.8148 25.9593 30.8148C25.9456 30.7989 25.9087 30.7721 25.8274 30.7425C25.7488 30.7139 25.6445 30.6878 25.5159 30.6644C25.2583 30.6175 24.9252 30.5836 24.5442 30.5433C23.7892 30.4634 22.8577 30.3623 22.0598 30.0931C19.8814 29.3573 18.0358 27.931 16.9671 25.8714C14.6811 21.4671 17.0295 16.0237 21.7932 14.5462C23.5542 14.0004 25.4587 14.0228 27.1897 14.5989C31.4862 16.0302 34.2733 21.2379 31.9661 25.513C32.0243 25.5862 32.1307 25.6507 32.26 25.6732C32.4238 25.7015 32.5321 25.6532 32.5686 25.5911C33.4411 24.1072 33.6762 22.4076 33.3323 20.6741Z" fill="#0F9D58"/>
<path d="M39.319 28.6956L39.3113 26.9672C39.3087 26.3105 39.0023 25.8968 38.3495 25.6925C38.2693 25.456 38.2978 24.9272 38.4089 24.7191C39.1226 24.679 39.7534 24.6687 40.4477 24.5782C40.8239 24.5291 41.0036 23.8607 40.9984 23.5634C40.9932 23.2906 40.7721 22.6339 40.4528 22.63L36.3276 22.5744C34.55 22.5511 35.4808 24.6971 35.102 25.7313C34.9701 26.0894 34.572 26.4255 34.5784 26.8134L34.6107 28.7124C33.7213 28.8443 33.2662 29.4959 33.2649 30.3297L33.2598 37.5485C33.2598 38.2104 33.7084 38.7313 34.3974 38.73L39.8 38.7184C40.533 38.7171 40.9609 38.1121 40.9609 37.3739L40.9518 30.0724C40.9505 29.0628 40.2835 28.7745 39.319 28.6956ZM36.1 23.5026L39.6746 23.4755C39.7327 23.4755 39.9073 23.5233 39.9486 23.5453C40.0094 23.5776 40.0908 23.7586 40.0249 23.7793C39.1381 24.0585 38.2861 23.6474 37.6359 24.2343C37.2687 24.5665 37.3993 25.2427 37.3669 25.7882L36.0858 25.7973L36.1 23.5026ZM35.5648 26.7035L38.3818 26.7177L38.387 28.759L35.5325 28.7473L35.5648 26.7035ZM34.4078 29.6743L39.893 29.6885L39.9616 31.0549L34.2992 31.0498C34.2164 30.6412 34.2462 30.1849 34.4078 29.6743ZM39.8607 37.8212L34.497 37.807C34.1492 37.8057 34.1027 36.778 34.3858 36.7767L39.8517 36.7392C40.0185 37.0184 39.9991 37.414 39.8607 37.8212ZM34.2578 35.8045L34.2694 31.9715L39.9654 31.9741L39.9771 35.8019L34.2578 35.8045Z" fill="#0F9D58"/>
<path d="M40.8105 37.3742L40.8018 30.0725C40.8011 29.6056 40.649 29.3308 40.4082 29.1564C40.1555 28.9737 39.7825 28.8838 39.3066 28.8449L39.1699 28.8342L39.1689 28.6965L39.1611 26.968C39.1599 26.6631 39.0885 26.4292 38.9541 26.2502C38.8194 26.071 38.6099 25.9316 38.3047 25.8361L38.2314 25.8127L38.207 25.7404C38.1579 25.5949 38.1459 25.3809 38.1572 25.1867C38.1685 24.9941 38.2049 24.7826 38.2764 24.6486L38.3164 24.5744L38.4004 24.5695C39.1212 24.5291 39.7418 24.5194 40.4287 24.4299C40.5313 24.4162 40.6404 24.3076 40.7285 24.1047C40.812 23.9122 40.8507 23.6919 40.8486 23.5666C40.8465 23.4565 40.7968 23.2448 40.708 23.0607C40.6643 22.9701 40.6152 22.8952 40.5654 22.8449C40.5152 22.7942 40.477 22.7808 40.4512 22.7805L36.3252 22.7248C35.9131 22.7195 35.6893 22.8382 35.5576 23.0051C35.4185 23.1816 35.3578 23.4413 35.3398 23.7648C35.3218 24.0892 35.3471 24.4385 35.3535 24.7961C35.3597 25.1422 35.3485 25.4959 35.2432 25.7834C35.1695 25.9834 35.0194 26.1809 34.9141 26.343C34.7992 26.5196 34.7262 26.6666 34.7285 26.8107L34.7607 28.7102L34.7627 28.842L34.6328 28.8605C34.2216 28.9215 33.9216 29.1011 33.7227 29.3518C33.5226 29.6039 33.4156 29.9402 33.415 30.3303L33.4102 37.549C33.4103 38.1382 33.8016 38.5814 34.3975 38.5803L39.7998 38.5686L39.917 38.5627C40.1818 38.5343 40.39 38.4106 40.5391 38.2277C40.6902 38.0422 40.7853 37.7892 40.8066 37.5002L40.8105 37.3742ZM39.9365 36.5891L39.9805 36.6623C40.1809 36.9979 40.1464 37.4468 40.0029 37.8693L39.9678 37.9719H39.8604L34.4961 37.9572C34.324 37.9564 34.217 37.8274 34.1592 37.7131C34.0989 37.5937 34.0665 37.4446 34.0557 37.3039C34.0449 37.1629 34.0545 37.0138 34.0918 36.8937C34.1103 36.8342 34.1382 36.7718 34.1826 36.7219C34.2297 36.6691 34.2983 36.6277 34.3848 36.6271L39.8506 36.5891H39.9365ZM34.4043 36.926C34.398 36.9348 34.3875 36.952 34.3779 36.9826C34.3552 37.0557 34.3456 37.1642 34.3545 37.2805C34.3634 37.3967 34.3896 37.5048 34.4268 37.5783C34.4646 37.6531 34.493 37.6572 34.4971 37.6574L39.75 37.6701C39.839 37.3611 39.8434 37.0893 39.7588 36.8898L34.4043 36.926ZM40.1152 31.8244V31.9738L40.127 35.802L40.1279 35.9523L34.2578 35.9543L34.1074 35.9553V35.8039L34.1191 31.9709L34.1201 31.8215L40.1152 31.8244ZM34.4082 35.6535L39.8262 35.6525L39.8154 32.1232L34.4189 32.1213L34.4082 35.6535ZM34.4082 29.5246L39.8936 29.5383L40.0361 29.5393L40.043 29.6809L40.1191 31.2053L34.2988 31.2004L34.1768 31.1994L34.1523 31.0793C34.0638 30.6417 34.0969 30.1593 34.2646 29.6291L34.2979 29.5246H34.4082ZM34.5195 29.8244C34.4067 30.2217 34.3804 30.5783 34.4258 30.8996L39.8027 30.9045L39.75 29.8381L34.5195 29.8244ZM35.5654 26.5539L38.3828 26.5676L38.5312 26.5686L38.5322 26.718L38.5371 28.759V28.9094H38.3867L35.5322 28.8977L35.3799 28.8967L35.3828 28.7453L35.415 26.7014L35.417 26.5529L35.5654 26.5539ZM35.6846 28.5979L38.2363 28.6086L38.2314 26.8674L35.7119 26.8537L35.6846 28.5979ZM39.6748 23.3254C39.726 23.3254 39.8018 23.3436 39.8555 23.3576C39.9093 23.3717 39.9801 23.3929 40.0186 23.4133C40.0654 23.4383 40.0997 23.4791 40.1191 23.507C40.1414 23.5392 40.1608 23.5765 40.1748 23.6135C40.1879 23.6479 40.2008 23.6948 40.1992 23.7434C40.1976 23.7914 40.175 23.8899 40.0693 23.923L40.0684 23.9221C39.5983 24.0697 39.1318 24.036 38.7441 24.0412C38.3462 24.0466 38.0186 24.0911 37.7363 24.3459C37.5987 24.4705 37.5422 24.6704 37.5254 24.9406C37.5172 25.0734 37.5185 25.2143 37.5205 25.3605C37.5224 25.5043 37.525 25.6544 37.5166 25.7971L37.5088 25.9377L35.9346 25.9484L35.9512 23.3537L36.0986 23.3527L39.6748 23.3254ZM36.249 23.6506L36.2354 25.6457L37.2178 25.6398C37.2192 25.5515 37.222 25.4597 37.2207 25.3645C37.2188 25.2201 37.2175 25.068 37.2266 24.9221C37.2444 24.6351 37.3058 24.3308 37.5352 24.1232L37.6758 24.0119C38.009 23.7809 38.3785 23.7463 38.7393 23.7414C39.1188 23.7363 39.4817 23.7592 39.8535 23.6691C39.8523 23.6687 39.8509 23.6686 39.8496 23.6682C39.83 23.6617 39.8057 23.6543 39.7803 23.6477C39.7547 23.6409 39.7291 23.6351 39.708 23.6311C39.6868 23.627 39.6764 23.6253 39.6748 23.6252L36.249 23.6506ZM41.1113 37.3742C41.1113 37.7709 40.9958 38.1419 40.7715 38.4172C40.5448 38.6954 40.2124 38.8675 39.8008 38.8684L34.3975 38.8801C33.6156 38.8814 33.1095 38.2832 33.1094 37.549L33.1152 30.3293C33.116 29.8858 33.2375 29.4802 33.4873 29.1652C33.7151 28.8782 34.0424 28.6771 34.458 28.5891L34.4287 26.8166C34.4248 26.5734 34.5467 26.3575 34.6621 26.1799C34.7871 25.9875 34.9027 25.8379 34.9609 25.6799L35.0117 25.4943C35.0509 25.2962 35.0584 25.0607 35.0537 24.801C35.0477 24.4661 35.0212 24.0866 35.04 23.7482C35.0589 23.409 35.1231 23.0711 35.3213 22.8195C35.5269 22.5586 35.8532 22.4189 36.3291 22.425L40.4551 22.4807C40.5887 22.4824 40.6973 22.5522 40.7783 22.634C40.8599 22.7163 40.9265 22.823 40.9785 22.9309C41.0814 23.1443 41.1454 23.398 41.1484 23.5607L41.1406 23.7053C41.1235 23.8624 41.0781 24.0528 41.0039 24.2238C40.9096 24.4412 40.7402 24.6911 40.4668 24.7268C39.7964 24.8141 39.1807 24.8288 38.5107 24.8645C38.4847 24.9483 38.4649 25.0695 38.457 25.2043C38.4487 25.3472 38.4561 25.4821 38.4746 25.5773C38.7834 25.6863 39.0263 25.8469 39.1943 26.0705C39.3769 26.3136 39.4596 26.6153 39.4609 26.967L39.4678 28.5617C39.9017 28.6078 40.2931 28.702 40.585 28.9133C40.919 29.1551 41.1009 29.53 41.1016 30.0725L41.1113 37.3742Z" fill="#0F9D58"/>
<path d="M32.6278 27.0869C31.4979 25.0572 27.7269 24.6888 26.116 26.8593C25.8808 27.1761 25.8963 27.975 26.0255 28.3563L27.0792 31.481L27.0559 37.681C27.0533 38.2589 27.5148 38.7101 28.0643 38.7075L30.9498 38.6958C31.4526 38.6958 31.8237 38.1219 31.8224 37.6978L31.8082 31.3711L32.7209 28.1146C32.792 27.8612 32.7545 27.3131 32.6278 27.0869ZM30.8709 37.8026L27.9854 37.7327L27.9738 32.5242L30.88 32.5178L30.8709 37.8026ZM30.8295 31.5766L29.5122 31.5624C29.4113 31.0427 29.4088 28.0086 28.5335 28.2684C28.3784 28.315 28.2116 28.6304 28.2659 28.8024C28.496 29.5185 28.774 31.0867 28.5568 31.5223C28.4935 31.649 28.0268 31.5818 27.9725 31.4098L26.9757 28.2361C26.809 27.7035 26.8865 27.2058 27.3959 26.9485C27.8225 26.7339 28.3978 26.4534 28.8878 26.3991C29.9427 26.2802 31.0312 26.659 31.7927 27.3907C31.8392 28.836 31.079 30.0473 30.8295 31.5766Z" fill="#0F9D58"/>
<path d="M31.6583 31.3719V31.3514L31.6642 31.3309L32.5763 28.074C32.6047 27.9723 32.6144 27.7928 32.5987 27.6033C32.5828 27.4115 32.5442 27.244 32.4972 27.16C31.9646 26.2034 30.7953 25.6203 29.544 25.5477C28.3738 25.4798 27.166 25.8612 26.3868 26.7615L26.2364 26.949C26.1946 27.0053 26.1581 27.0928 26.131 27.2078C26.1042 27.3212 26.0885 27.4525 26.0841 27.5887C26.0773 27.7951 26.0953 28.0022 26.129 28.1639L26.1681 28.3084L27.2218 31.4334L27.2296 31.4568V31.4822L27.2061 37.6814V37.6824C27.2042 38.1774 27.5985 38.5596 28.0636 38.5574L30.9493 38.5457H30.9503C31.1412 38.5455 31.32 38.4366 31.4571 38.2635C31.5948 38.0894 31.6733 37.8719 31.6729 37.699V37.698L31.6583 31.3719ZM31.0304 32.368V32.5184L31.0206 37.8035V37.9568L30.8673 37.9529L27.9815 37.8826L27.836 37.8797L27.8351 37.7332L27.8243 32.5252L27.8233 32.3748H27.9737L30.88 32.368H31.0304ZM28.1241 32.6736L28.1349 37.5857L30.7208 37.6492L30.7286 32.6678L28.1241 32.6736ZM29.0772 26.2332C30.0423 26.1808 31.0144 26.5182 31.7442 27.1443L31.8966 27.283L31.9405 27.325L31.9425 27.3865C31.9665 28.1361 31.7817 28.8208 31.5655 29.4978C31.3476 30.1805 31.1001 30.8509 30.9776 31.6014L30.9571 31.7283L30.8282 31.7273L29.5108 31.7127L29.3888 31.7117L29.3653 31.5916C29.338 31.4508 29.3175 31.1493 29.2901 30.8045C29.2621 30.4514 29.2255 30.0359 29.1651 29.6463C29.1042 29.2533 29.0208 28.9014 28.9063 28.6668C28.849 28.5493 28.7909 28.4756 28.7364 28.4373C28.6892 28.4041 28.6408 28.3937 28.5763 28.4129C28.5714 28.4146 28.5533 28.4235 28.5274 28.451C28.5022 28.4779 28.4768 28.5152 28.4552 28.5574C28.4335 28.5998 28.4176 28.643 28.4103 28.6814C28.4028 28.7206 28.4059 28.7451 28.4093 28.7566L28.4981 29.0691C28.5876 29.4129 28.6736 29.8407 28.7276 30.2478C28.7637 30.5197 28.7862 30.7868 28.7853 31.0154C28.7846 31.1814 28.7717 31.341 28.7354 31.4705L28.6915 31.5896C28.6413 31.6901 28.5334 31.7199 28.4708 31.7303C28.3969 31.7425 28.3138 31.7396 28.2364 31.7264C28.1587 31.7131 28.0761 31.6884 28.006 31.6502C27.9401 31.6144 27.86 31.5524 27.8292 31.4549L26.8331 28.2811C26.7444 27.9978 26.7156 27.7092 26.7882 27.449C26.8623 27.1834 27.0379 26.9619 27.3282 26.8152L27.6739 26.6453C28.0447 26.4703 28.48 26.2942 28.8712 26.2508L29.0772 26.2332ZM29.0938 26.533L28.9044 26.5486C28.4461 26.5994 27.895 26.8645 27.463 27.0818C27.2442 27.1924 27.1276 27.3495 27.0772 27.5301C27.0255 27.7161 27.0413 27.9421 27.1192 28.1912L28.1153 31.365L28.1144 31.3602C28.1153 31.3611 28.1225 31.3718 28.1495 31.3865C28.184 31.4053 28.2328 31.4213 28.2862 31.4305C28.3401 31.4397 28.389 31.4398 28.422 31.4344C28.4254 31.4338 28.4281 31.432 28.4308 31.4314C28.4624 31.3506 28.4846 31.2103 28.4854 31.0135C28.4863 30.8034 28.4657 30.5517 28.4308 30.2879C28.3606 29.759 28.235 29.1965 28.1231 28.8484V28.8475C28.0996 28.7727 28.1022 28.6937 28.1153 28.6248C28.1288 28.5545 28.1551 28.4843 28.1876 28.4207C28.2201 28.3571 28.2619 28.2956 28.3097 28.2449C28.3558 28.196 28.4167 28.1469 28.4903 28.1248H28.4913C28.6453 28.0792 28.7886 28.1064 28.9093 28.1912C29.0229 28.2711 29.1093 28.3964 29.1769 28.535C29.3122 28.8124 29.4003 29.2025 29.462 29.6004C29.5242 30.0017 29.5608 30.4263 29.589 30.7801C29.6104 31.0498 29.6295 31.2699 29.6456 31.4139L30.7052 31.4246C30.8383 30.6969 31.0783 30.0368 31.2794 29.407C31.4877 28.7547 31.6535 28.129 31.6427 27.4568C30.9615 26.8264 30.0225 26.4826 29.0938 26.533ZM31.9728 37.698C31.9734 37.949 31.8655 38.2303 31.6925 38.449C31.5406 38.6409 31.3248 38.8006 31.0645 38.8377L30.9503 38.8465L28.0645 38.8572C27.4312 38.8599 26.9034 38.3408 26.9063 37.6805L26.9278 31.5027L25.8839 28.4051L25.836 28.2283C25.7956 28.0361 25.7769 27.8031 25.7843 27.5789C25.7892 27.4282 25.8066 27.2767 25.839 27.1394C25.871 27.004 25.9196 26.8723 25.9952 26.7703L26.1603 26.5652C27.0133 25.579 28.3212 25.1771 29.5606 25.2488C30.8795 25.3253 32.1604 25.9411 32.7579 27.0135C32.8375 27.1556 32.8818 27.3767 32.8985 27.5789C32.9154 27.783 32.9078 28.0035 32.8653 28.1551L31.9581 31.3904L31.9728 37.698Z" fill="#0F9D58"/>
<path d="M18.5676 21.6471C18.1953 25.1466 20.8532 28.0127 24.3308 27.9713C24.5558 27.9687 24.8583 28.1471 24.888 28.31C24.9307 28.5492 24.7174 28.8827 24.4575 28.8918C20.5274 29.043 17.4765 25.9533 17.6019 22.0518C17.6652 20.0648 18.5417 18.2575 19.978 17.0811C21.519 15.8181 23.6237 15.3488 25.506 15.7832C25.6288 15.8646 25.7102 16.308 25.6158 16.4114C25.5215 16.5149 25.2487 16.6596 25.1065 16.639C21.8357 16.1619 18.9257 18.3053 18.5689 21.6471H18.5676Z" fill="#0F9D58"/>
<path d="M19.8832 16.9651C21.4605 15.6726 23.6126 15.1924 25.5395 15.637L25.5658 15.6438L25.5883 15.6585C25.657 15.7041 25.7 15.7815 25.726 15.8421C25.7548 15.9092 25.7759 15.9871 25.7895 16.0628C25.803 16.1384 25.8098 16.219 25.8051 16.2913C25.801 16.3546 25.787 16.4471 25.727 16.513C25.6615 16.5847 25.5502 16.6566 25.4437 16.7073C25.3887 16.7335 25.3291 16.7566 25.2709 16.7718C25.2148 16.7864 25.1481 16.7967 25.0844 16.7874C21.8946 16.3224 19.0656 18.4097 18.7182 21.6634L18.7104 21.7288C18.3875 25.108 20.9617 27.8614 24.3285 27.8216C24.4762 27.8199 24.6361 27.8759 24.7602 27.9505C24.8234 27.9885 24.8832 28.0347 24.9311 28.0872C24.966 28.1256 24.9994 28.1727 25.0199 28.2269L25.0355 28.2835C25.0658 28.453 25.0051 28.6365 24.9086 28.7737C24.8121 28.9109 24.6555 29.0346 24.4623 29.0413L24.4633 29.0423C20.445 29.1969 17.3234 26.0344 17.4516 22.0472C17.5162 20.0193 18.4116 18.1704 19.8832 16.9651ZM25.4301 15.9212C23.6032 15.5136 21.5659 15.9737 20.0727 17.1976C18.6718 18.3451 17.8134 20.1109 17.7514 22.0569C17.6288 25.8728 20.6107 28.8903 24.4525 28.7425C24.5191 28.74 24.5991 28.6924 24.6635 28.6009C24.7276 28.5096 24.7528 28.4068 24.7406 28.3372L24.7094 28.2894C24.6852 28.2628 24.649 28.2339 24.6049 28.2073C24.5141 28.1528 24.4096 28.1205 24.3324 28.1214C20.7661 28.1638 18.0364 25.221 18.4184 21.6311L18.433 21.4974H18.4369C18.8659 18.1446 21.8207 16.0081 25.1283 16.4905C25.1359 16.4915 25.1573 16.4915 25.1947 16.4817C25.2305 16.4724 25.2723 16.4571 25.3148 16.4368C25.3592 16.4157 25.3992 16.3916 25.432 16.3694L25.4994 16.3157C25.5009 16.3106 25.5046 16.2973 25.5063 16.2718C25.509 16.2293 25.5049 16.1739 25.4945 16.1155C25.4841 16.0574 25.4686 16.0023 25.4506 15.9602C25.4427 15.9418 25.4352 15.9295 25.4301 15.9212Z" fill="#0F9D58"/>
<path d="M21.0456 23.1236C20.9279 23.2387 20.5375 23.249 20.3979 23.2413C20.2583 23.2335 20.0566 22.7991 20.182 22.6763L23.8845 19.0708C24.0526 18.9079 24.4715 18.9803 24.5956 19.1277C24.7055 19.2583 24.6473 19.606 24.4831 19.765L21.043 23.1249L21.0456 23.1236Z" fill="#0F9D58"/>
<path d="M24.2738 18.8333C24.3572 18.8429 24.4406 18.864 24.514 18.8949C24.5854 18.9249 24.6584 18.9691 24.7103 19.0306C24.7622 19.0922 24.7865 19.1696 24.7963 19.2396C24.8062 19.3111 24.8032 19.3876 24.7904 19.4613C24.7716 19.5695 24.7294 19.6863 24.6625 19.7835L24.5882 19.8724L21.1498 23.2288L21.1507 23.2308C21.0959 23.2844 21.0225 23.3158 20.9593 23.3353C20.8926 23.3558 20.8183 23.3687 20.7484 23.3773C20.609 23.3944 20.4677 23.3953 20.39 23.391C20.3356 23.3879 20.2902 23.3652 20.2582 23.3431C20.2254 23.3204 20.1972 23.2917 20.1732 23.263C20.1251 23.2055 20.0828 23.1332 20.0521 23.0599C20.0217 22.987 19.9983 22.904 19.9935 22.8245C19.9891 22.7504 19.9998 22.6448 20.0775 22.5687L23.7806 18.9632C23.9132 18.8347 24.1171 18.8154 24.2738 18.8333ZM24.2396 19.1322C24.1144 19.1179 24.0252 19.1439 23.9896 19.1781L20.2943 22.7757C20.2934 22.7799 20.2923 22.7893 20.2933 22.806C20.2955 22.8426 20.3078 22.8919 20.3295 22.9437C20.351 22.9952 20.3777 23.0407 20.4027 23.0706C20.411 23.0805 20.4183 23.0869 20.4232 23.0912C20.4889 23.0936 20.6022 23.093 20.7123 23.0794C20.772 23.0721 20.8266 23.0617 20.8705 23.0482C20.9178 23.0336 20.9369 23.0198 20.9408 23.016L24.3783 19.6576H24.3793C24.432 19.6065 24.4768 19.5117 24.4945 19.4095C24.503 19.3604 24.5043 19.3158 24.4994 19.2806C24.4943 19.2437 24.4839 19.2276 24.4808 19.224C24.4705 19.2119 24.4446 19.1919 24.3978 19.1722C24.3527 19.1532 24.2973 19.1388 24.2396 19.1322Z" fill="#0F9D58"/>
<path d="M28.3744 20.7847C28.2762 20.8816 27.9232 20.9165 27.8159 20.8687C27.6879 20.8118 27.5535 20.4434 27.6569 20.3451L29.0932 18.9838C29.1992 18.8843 29.5017 18.8675 29.6155 18.9102C29.7292 18.9528 29.7758 19.3872 29.6814 19.4816L28.3744 20.7834V20.7847Z" fill="#0F9D58"/>
<path d="M29.335 18.7446C29.447 18.7323 29.5786 18.7365 29.668 18.77C29.7191 18.7892 29.7538 18.8249 29.7754 18.854C29.7977 18.8841 29.8147 18.9179 29.8271 18.9497C29.852 19.0134 29.868 19.0881 29.876 19.1596C29.884 19.2316 29.8849 19.3084 29.876 19.3774C29.8682 19.4374 29.8481 19.5264 29.7871 19.5874L28.5244 20.8462V20.8471L28.4795 20.8911C28.4305 20.9395 28.3644 20.9692 28.3086 20.9878C28.2489 21.0076 28.1821 21.0214 28.1182 21.0298C28.054 21.0381 27.988 21.0418 27.9287 21.0395C27.9015 21.0385 27.8716 21.0358 27.8418 21.0307L27.7549 21.0053C27.6834 20.9735 27.6318 20.9108 27.5977 20.8589C27.5605 20.8023 27.5287 20.7359 27.5068 20.6694C27.4852 20.6035 27.4698 20.53 27.4697 20.4604C27.4697 20.3967 27.4832 20.3039 27.5537 20.2368V20.2358L28.9902 18.8745C29.039 18.8287 29.101 18.8 29.1563 18.7817C29.2135 18.7628 29.2756 18.7511 29.335 18.7446ZM29.3682 19.0425C29.3245 19.0472 29.2837 19.0561 29.251 19.0669C29.2167 19.0782 29.2007 19.0892 29.1963 19.0932L29.1953 19.0923L27.7715 20.4419C27.7709 20.4455 27.7705 20.4516 27.7705 20.4604C27.7706 20.4893 27.777 20.5302 27.792 20.5757C27.8067 20.6204 27.827 20.6623 27.8477 20.6938C27.8712 20.7297 27.8841 20.7351 27.877 20.7319L27.9404 20.7397C27.9806 20.7413 28.0293 20.7384 28.0791 20.7319C28.129 20.7254 28.1765 20.715 28.2139 20.7026C28.2466 20.6917 28.2617 20.6815 28.2666 20.6782L28.2686 20.6772L29.5693 19.3813C29.5709 19.3769 29.5748 19.3643 29.5781 19.3393C29.5834 19.2991 29.5831 19.2465 29.5771 19.1928C29.5711 19.1392 29.5606 19.0916 29.5479 19.0591C29.5459 19.054 29.5427 19.0499 29.541 19.0464C29.5058 19.0398 29.4427 19.0343 29.3682 19.0425Z" fill="#0F9D58"/>
<path d="M25.7285 23.3908C25.6044 23.5072 25.2127 23.4968 25.0834 23.449C24.9541 23.4012 24.9205 22.9655 25.0356 22.8621L26.6115 21.4556C27.1363 21.6249 26.9734 22.2235 26.6839 22.495L25.7272 23.3908H25.7285Z" fill="#0F9D58"/>
<path d="M26.6575 21.313C26.8165 21.3643 26.9356 21.4524 27.011 21.5698C27.0856 21.686 27.1098 21.8184 27.1028 21.9448C27.0892 22.1925 26.9558 22.4451 26.7864 22.604L26.1068 23.2407L25.8314 23.5005C25.7737 23.5546 25.6973 23.5839 25.6312 23.6011C25.562 23.6191 25.4861 23.628 25.4144 23.6313C25.2766 23.6377 25.1236 23.6233 25.0316 23.5894C24.9362 23.5541 24.8885 23.4644 24.8655 23.4067C24.8391 23.3401 24.8236 23.2622 24.8177 23.188C24.8118 23.1134 24.8153 23.0334 24.8294 22.9614C24.8424 22.8956 24.8695 22.8093 24.9349 22.7505H24.9359L26.511 21.3433L26.5755 21.2866L26.6575 21.313ZM25.1351 22.9731C25.1431 22.9659 25.1324 22.9737 25.1234 23.02C25.1155 23.0602 25.1133 23.1117 25.1175 23.1646C25.1218 23.218 25.1323 23.2648 25.1448 23.2964C25.1473 23.3026 25.1498 23.3073 25.1517 23.311C25.1983 23.3232 25.2937 23.3365 25.4007 23.3315C25.4585 23.3289 25.5128 23.3223 25.556 23.311C25.5992 23.2997 25.6185 23.2866 25.6243 23.2817L26.5814 22.3853C26.7014 22.2726 26.7941 22.0898 26.803 21.9282C26.8073 21.8503 26.7915 21.7839 26.7581 21.7319C26.7346 21.6955 26.698 21.6601 26.6409 21.6304L25.1351 22.9731Z" fill="#0F9D58"/>
</g>
<defs>
<filter id="filter0_d_6784_181866" x="0" y="0" width="55.9971" height="55.9971" filterUnits="userSpaceOnUse" color-interpolation-filters="sRGB">
<feFlood flood-opacity="0" result="BackgroundImageFix"/>
<feColorMatrix in="SourceAlpha" type="matrix" values="0 0 0 0 0 0 0 0 0 0 0 0 0 0 0 0 0 0 127 0" result="hardAlpha"/>
<feOffset dy="2"/>
<feGaussianBlur stdDeviation="2"/>
<feComposite in2="hardAlpha" operator="out"/>
<feColorMatrix type="matrix" values="0 0 0 0 0 0 0 0 0 0 0 0 0 0 0 0 0 0 0.16 0"/>
<feBlend mode="normal" in2="BackgroundImageFix" result="effect1_dropShadow_6784_181866"/>
<feBlend mode="normal" in="SourceGraphic" in2="effect1_dropShadow_6784_181866" result="shape"/>
</filter>
</defs>
</svg>
