<svg preserveAspectRatio="none" width="100%" height="100%" overflow="visible" style="display: block;" viewBox="0 0 27.8247 30.2116" fill="none" xmlns="http://www.w3.org/2000/svg">
<path id="Vector" d="M27.8247 8.80805V7.64552C26.3949 7.64768 24.9934 7.24749 23.7803 6.49069C24.8541 7.66565 26.2681 8.4759 27.8247 8.80828V8.80805ZM20.2908 1.32989C20.2544 1.12202 20.2265 0.912771 20.2071 0.702644V0H14.709V21.8213C14.7002 24.3649 12.6347 26.4247 10.0874 26.4247C9.3652 26.4258 8.65292 26.257 8.00805 25.932C8.85253 27.0397 10.1861 27.7546 11.687 27.7546C14.2341 27.7546 16.2999 25.6951 16.3088 23.1512V1.33H20.2908V1.32989ZM11.4903 13.0552V11.8174C11.0309 11.7546 10.5677 11.7231 10.104 11.7233C4.52356 11.7233 0 16.2445 0 21.8213C0 25.3177 1.77782 28.3991 4.47943 30.2116C2.69759 28.3912 1.59977 25.8994 1.59977 23.151C1.59977 17.6453 6.00828 13.1684 11.4903 13.0552Z" fill="var(--fill-0, #00F2EA)"/>
</svg>
