<svg width="40" height="40" viewBox="0 0 40 40" fill="none" xmlns="http://www.w3.org/2000/svg">
<path d="M40 0V40H0V0H40Z" fill="white" fill-opacity="0.01"/>
<path d="M5.54771 11.4709C5.69969 10.1113 6.78341 9.06267 8.14602 8.9398C10.8824 8.69304 15.621 8.3335 20 8.3335C24.379 8.3335 29.1176 8.69304 31.854 8.9398C33.2166 9.06267 34.3003 10.1113 34.4523 11.4709C34.6935 13.6292 35 16.9679 35 20.0002C35 23.0324 34.6935 26.3711 34.4523 28.5294C34.3003 29.8891 33.2166 30.9377 31.854 31.0605C29.1176 31.3073 24.379 31.6668 20 31.6668C15.621 31.6668 10.8824 31.3073 8.14602 31.0605C6.78341 30.9377 5.69969 29.8891 5.54771 28.5294C5.30648 26.3711 5 23.0324 5 20.0002C5 16.9679 5.30648 13.6292 5.54771 11.4709Z" stroke="#10161F" stroke-width="3"/>
<path d="M25.7665 19.4805C26.1665 19.7115 26.1665 20.2888 25.7665 20.5198L17.5665 25.254C17.1665 25.485 16.6665 25.1963 16.6665 24.7344L16.6665 15.2659C16.6665 14.804 17.1665 14.5153 17.5665 14.7463L25.7665 19.4805Z" fill="#10161F"/>
</svg>
