<svg width="40" height="40" viewBox="0 0 40 40" fill="none" xmlns="http://www.w3.org/2000/svg">
<path d="M40 0V40H0V0H40Z" fill="white" fill-opacity="0.01"/>
<path d="M27.5002 12.5002H27.5034M25.0002 20.0002C25.0002 22.7616 22.7616 25.0002 20.0002 25.0002C17.2387 25.0002 15.0002 22.7616 15.0002 20.0002C15.0002 17.2387 17.2387 15.0002 20.0002 15.0002C22.7616 15.0002 25.0002 17.2387 25.0002 20.0002ZM17.8335 34.1668H22.1668C27.8237 34.1668 30.6521 34.1668 32.4095 32.4095C34.1668 30.6521 34.1668 27.8237 34.1668 22.1668V17.8335C34.1668 12.1766 34.1668 9.34821 32.4095 7.59086C30.6521 5.8335 27.8237 5.8335 22.1668 5.8335H17.8335C12.1766 5.8335 9.34821 5.8335 7.59086 7.59086C5.8335 9.34821 5.8335 12.1766 5.8335 17.8335V22.1668C5.8335 27.8237 5.8335 30.6521 7.59086 32.4095C9.34821 34.1668 12.1766 34.1668 17.8335 34.1668Z" stroke="#10161F" stroke-width="3" stroke-linecap="round" stroke-linejoin="round"/>
</svg>
