<svg xmlns="http://www.w3.org/2000/svg" width="30" height="30" viewBox="0 0 30 30" fill="none">
  <path d="M6.72 4C5.22 4 4 5.22 4 6.72v16.56C4 24.78 5.22 26 6.72 26h16.56C24.78 26 26 24.78 26 23.28V6.72C26 5.22 24.78 4 23.28 4H6.72zm2.03 3.5c1.04 0 1.68.68 1.68 1.58 0 .88-.66 1.58-1.7 1.58h-.02c-1.02 0-1.68-.7-1.68-1.58 0-.9.68-1.58 1.72-1.58zM8.5 13h2.5v8.5H8.5V13zm4.5 0h2.4v1.16c.32-.5 1.02-1.36 2.52-1.36 1.84 0 3.22 1.2 3.22 3.78v4.92H18.5v-4.6c0-1.13-.4-1.9-1.42-1.9-.77 0-1.23.52-1.43 1.02-.07.18-.09.44-.09.7v4.78H13s.03-7.76 0-8.5z" fill="#0077B5"/>
</svg>
