<svg preserveAspectRatio="none" width="100%" height="100%" overflow="visible" style="display: block;" viewBox="0 0 24.9453 31.9198" fill="none" xmlns="http://www.w3.org/2000/svg">
<path id="Vector" d="M17.3277 10.6724C19.4746 12.2063 22.1047 13.1089 24.9453 13.1089V7.64563C24.4077 7.64574 23.8715 7.58966 23.3455 7.47828V11.7786C20.5052 11.7786 17.8754 10.8762 15.728 9.34241V20.4914C15.728 26.0687 11.2044 30.5897 5.6246 30.5897C3.54264 30.5897 1.60747 29.9606 0 28.8816C1.83471 30.7567 4.39333 31.9198 7.22391 31.9198C12.8041 31.9198 17.3279 27.3989 17.3279 21.8213V10.6724H17.3277ZM19.3013 5.16069C18.204 3.96264 17.4836 2.41437 17.3277 0.702644V0H15.8117C16.1933 2.17552 17.4951 4.03414 19.3013 5.16069ZM3.52919 24.6018C2.9162 23.7986 2.58483 22.8157 2.58632 21.8053C2.58632 19.2545 4.6554 17.1862 7.20816 17.1862C7.68382 17.186 8.15667 17.259 8.61011 17.4026V11.8172C8.08023 11.7447 7.54552 11.7138 7.01103 11.7252V16.0725C6.55739 15.9287 6.08428 15.8558 5.60839 15.8562C3.05575 15.8562 0.986781 17.9243 0.986781 20.4754C0.986781 22.2793 2.02092 23.841 3.52919 24.6018Z" fill="var(--fill-0, #FF004F)"/>
</svg>
