<svg preserveAspectRatio="none" width="100%" height="100%" overflow="visible" style="display: block;" viewBox="0 0 23.8095 23.8095" fill="none" xmlns="http://www.w3.org/2000/svg">
<g id="instagram">
<path d="M20.2381 5.35714C20.2381 6.34337 19.4386 7.14286 18.4524 7.14286C17.4662 7.14286 16.6667 6.34337 16.6667 5.35714C16.6667 4.37092 17.4662 3.57143 18.4524 3.57143C19.4386 3.57143 20.2381 4.37092 20.2381 5.35714Z" fill="var(--fill-0, white)"/>
<path fill-rule="evenodd" clip-rule="evenodd" d="M11.9048 17.8571C15.1922 17.8571 17.8571 15.1922 17.8571 11.9048C17.8571 8.61735 15.1922 5.95238 11.9048 5.95238C8.61735 5.95238 5.95238 8.61735 5.95238 11.9048C5.95238 15.1922 8.61735 17.8571 11.9048 17.8571ZM11.9048 15.4762C13.8772 15.4762 15.4762 13.8772 15.4762 11.9048C15.4762 9.93232 13.8772 8.33333 11.9048 8.33333C9.93232 8.33333 8.33333 9.93232 8.33333 11.9048C8.33333 13.8772 9.93232 15.4762 11.9048 15.4762Z" fill="var(--fill-0, white)"/>
<path fill-rule="evenodd" clip-rule="evenodd" d="M0 11.4286C0 7.4282 0 5.42801 0.778525 3.90007C1.46333 2.55605 2.55605 1.46333 3.90007 0.778525C5.42801 0 7.4282 0 11.4286 0H12.381C16.3813 0 18.3815 0 19.9095 0.778525C21.2535 1.46333 22.3462 2.55605 23.031 3.90007C23.8095 5.42801 23.8095 7.4282 23.8095 11.4286V12.381C23.8095 16.3813 23.8095 18.3815 23.031 19.9095C22.3462 21.2535 21.2535 22.3462 19.9095 23.031C18.3815 23.8095 16.3813 23.8095 12.381 23.8095H11.4286C7.4282 23.8095 5.42801 23.8095 3.90007 23.031C2.55605 22.3462 1.46333 21.2535 0.778525 19.9095C0 18.3815 0 16.3813 0 12.381V11.4286ZM11.4286 2.38095H12.381C14.4204 2.38095 15.8068 2.3828 16.8785 2.47036C17.9223 2.55565 18.4561 2.71023 18.8285 2.89997C19.7245 3.35651 20.453 4.08499 20.9096 4.981C21.0993 5.35338 21.2539 5.8872 21.3392 6.93104C21.4267 8.00268 21.4286 9.3891 21.4286 11.4286V12.381C21.4286 14.4204 21.4267 15.8068 21.3392 16.8785C21.2539 17.9223 21.0993 18.4561 20.9096 18.8285C20.453 19.7245 19.7245 20.453 18.8285 20.9096C18.4561 21.0993 17.9223 21.2539 16.8785 21.3392C15.8068 21.4267 14.4204 21.4286 12.381 21.4286H11.4286C9.3891 21.4286 8.00268 21.4267 6.93104 21.3392C5.8872 21.2539 5.35338 21.0993 4.981 20.9096C4.08499 20.453 3.35651 19.7245 2.89997 18.8285C2.71023 18.4561 2.55565 17.9223 2.47036 16.8785C2.3828 15.8068 2.38095 14.4204 2.38095 12.381V11.4286C2.38095 9.3891 2.3828 8.00268 2.47036 6.93104C2.55565 5.8872 2.71023 5.35338 2.89997 4.981C3.35651 4.08499 4.08499 3.35651 4.981 2.89997C5.35338 2.71023 5.8872 2.55565 6.93104 2.47036C8.00268 2.3828 9.3891 2.38095 11.4286 2.38095Z" fill="var(--fill-0, white)"/>
</g>
</svg>
