<svg preserveAspectRatio="none" width="100%" height="100%" overflow="visible" style="display: block;" viewBox="0 0 26.2251 30.5899" fill="none" xmlns="http://www.w3.org/2000/svg">
<path id="Vector" d="M18.6076 9.3423C20.7551 10.8761 23.3846 11.7785 26.2251 11.7785V7.47816C24.6395 7.14057 23.236 6.31253 22.1807 5.16069C20.3744 4.03402 19.0729 2.1754 18.6913 0H14.7093V21.821C14.7002 24.3649 12.6347 26.4247 10.0875 26.4247C8.58655 26.4247 7.25299 25.7097 6.40851 24.6017C4.90046 23.841 3.86621 22.2792 3.86621 20.4755C3.86621 17.9246 5.93517 15.8563 8.48782 15.8563C8.9769 15.8563 9.44828 15.9324 9.89046 16.0726V11.7253C4.40862 11.8385 0 16.3153 0 21.8212C0 24.5697 1.09782 27.0613 2.87966 28.8818C4.48713 29.9606 6.42218 30.5899 8.50425 30.5899C14.0841 30.5899 18.6077 26.0686 18.6077 20.4914V9.34241L18.6076 9.3423Z" fill="var(--fill-0, black)"/>
</svg>
