<svg preserveAspectRatio="none" width="100%" height="100%" overflow="visible" style="display: block;" viewBox="0 0 33 26.3333" fill="none" xmlns="http://www.w3.org/2000/svg">
<path id="Rectangle" d="M2.04771 4.63745C2.19969 3.27778 3.28341 2.22917 4.64602 2.1063C7.38244 1.85954 12.121 1.5 16.5 1.5C20.879 1.5 25.6176 1.85954 28.354 2.1063C29.7166 2.22917 30.8003 3.27778 30.9523 4.63745C31.1935 6.79573 31.5 10.1344 31.5 13.1667C31.5 16.1989 31.1935 19.5376 30.9523 21.6959C30.8003 23.0556 29.7166 24.1042 28.354 24.227C25.6176 24.4738 20.879 24.8333 16.5 24.8333C12.121 24.8333 7.38244 24.4738 4.64602 24.227C3.28341 24.1042 2.19969 23.0556 2.04771 21.6959C1.80648 19.5376 1.5 16.1989 1.5 13.1667C1.5 10.1344 1.80648 6.79573 2.04771 4.63745Z" stroke="var(--stroke-0, black)" stroke-opacity="0.5" stroke-width="3"/>
</svg>
