<svg preserveAspectRatio="none" width="100%" height="100%" overflow="visible" style="display: block;" viewBox="0 0 33.3267 23.3398" fill="none" xmlns="http://www.w3.org/2000/svg">
<path id="Subtract" d="M16.6469 0C16.7001 4.64275e-06 27.0625 0.00155904 29.642 0.705078C30.3483 0.896292 30.9919 1.26972 31.5092 1.78711C32.0267 2.30461 32.4001 2.94884 32.5913 3.65527C33.6918 8.0858 33.4378 15.083 32.6127 19.6846C32.4216 20.391 32.0482 21.0352 31.5307 21.5527C31.0132 22.0702 30.369 22.4436 29.6626 22.6348C27.086 23.3373 16.7486 23.3398 16.6684 23.3398C16.6684 23.3398 6.26035 23.34 3.67329 22.6348C2.96688 22.4436 2.3226 22.0702 1.80513 21.5527C1.28766 21.0352 0.914257 20.391 0.7231 19.6846C-0.383942 15.2733 -0.0805736 8.27181 0.701615 3.67676C0.892751 2.97031 1.26618 2.32611 1.78365 1.80859C2.30112 1.29107 2.94537 0.917762 3.65181 0.726562C6.23881 0.0213557 16.6469 0 16.6469 0ZM13.3335 16.6709L21.9682 11.6699L13.3335 6.66797V16.6709Z" fill="var(--fill-0, #FF0000)"/>
</svg>
