<svg preserveAspectRatio="none" width="100%" height="100%" overflow="visible" style="display: block;" viewBox="0 0 33.333 33.2119" fill="none" xmlns="http://www.w3.org/2000/svg">
<path id="Subtract" d="M16.667 0C25.8715 0.000176153 33.333 7.46247 33.333 16.667C33.3328 25.1867 26.9395 32.2122 18.6875 33.2119V21.7588H23.1934L24.127 16.666H18.6797V14.8652C18.6797 12.1718 19.7335 11.1387 22.4668 11.1387C23.313 11.1387 24 11.1584 24.3936 11.1982V6.58496C23.6464 6.3785 21.8272 6.17191 20.7734 6.17188C15.2068 6.17188 12.6397 8.79867 12.6396 14.4717V16.666H9.2002V21.7598H12.6396V32.8428H12.6406C5.38068 31.0418 0.000149558 24.4834 0 16.667C0 7.46236 7.46236 0 16.667 0Z" fill="var(--fill-0, #0866FF)"/>
</svg>
