<svg preserveAspectRatio="none" width="100%" height="100%" overflow="visible" style="display: block;" viewBox="0 0 23.9937 23.9937" fill="none" xmlns="http://www.w3.org/2000/svg">
<g id="Icon">
<path id="Vector" d="M8.99764 2.99922H4.99869C3.89441 2.99922 2.99922 3.89441 2.99922 4.99869V8.99764C2.99922 10.1019 3.89441 10.9971 4.99869 10.9971H8.99764C10.1019 10.9971 10.9971 10.1019 10.9971 8.99764V4.99869C10.9971 3.89441 10.1019 2.99922 8.99764 2.99922Z" stroke="var(--stroke-0, white)" stroke-width="1.99948" stroke-linecap="round" stroke-linejoin="round"/>
<path id="Vector_2" d="M6.99817 10.9971V14.9961C6.99817 15.5264 7.20883 16.0349 7.5838 16.4099C7.95878 16.7849 8.46735 16.9956 8.99764 16.9956H12.9966" stroke="var(--stroke-0, white)" stroke-width="1.99948" stroke-linecap="round" stroke-linejoin="round"/>
<path id="Vector_3" d="M18.995 12.9966H14.9961C13.8918 12.9966 12.9966 13.8918 12.9966 14.9961V18.995C12.9966 20.0993 13.8918 20.9945 14.9961 20.9945H18.995C20.0993 20.9945 20.9945 20.0993 20.9945 18.995V14.9961C20.9945 13.8918 20.0993 12.9966 18.995 12.9966Z" stroke="var(--stroke-0, white)" stroke-width="1.99948" stroke-linecap="round" stroke-linejoin="round"/>
</g>
</svg>
