<svg preserveAspectRatio="none" width="100%" height="100%" overflow="visible" style="display: block;" viewBox="0 0 23.9937 23.9937" fill="none" xmlns="http://www.w3.org/2000/svg">
<g id="Icon">
<path id="Vector" d="M1.99948 6.99817L6.40832 2.58932C6.59433 2.4022 6.81554 2.25375 7.05918 2.15251C7.30283 2.05128 7.56411 1.99927 7.82795 1.99948H16.1658C16.4296 1.99927 16.6909 2.05128 16.9345 2.15251C17.1782 2.25375 17.3994 2.4022 17.5854 2.58932L21.9942 6.99817" stroke="var(--stroke-0, white)" stroke-width="1.99948" stroke-linecap="round" stroke-linejoin="round"/>
<path id="Vector_2" d="M3.99895 11.9969V19.9948C3.99895 20.5251 4.20961 21.0336 4.58459 21.4086C4.95956 21.7836 5.46814 21.9942 5.99843 21.9942H17.9953C18.5256 21.9942 19.0342 21.7836 19.4091 21.4086C19.7841 21.0336 19.9948 20.5251 19.9948 19.9948V11.9969" stroke="var(--stroke-0, white)" stroke-width="1.99948" stroke-linecap="round" stroke-linejoin="round"/>
<path id="Vector_3" d="M14.9961 21.9942V17.9953C14.9961 17.465 14.7854 16.9564 14.4104 16.5814C14.0355 16.2065 13.5269 15.9958 12.9966 15.9958H10.9971C10.4668 15.9958 9.95825 16.2065 9.58328 16.5814C9.2083 16.9564 8.99764 17.465 8.99764 17.9953V21.9942" stroke="var(--stroke-0, white)" stroke-width="1.99948" stroke-linecap="round" stroke-linejoin="round"/>
<path id="Vector_4" d="M1.99948 6.99817H21.9942" stroke="var(--stroke-0, white)" stroke-width="1.99948" stroke-linecap="round" stroke-linejoin="round"/>
<path id="Vector_5" d="M21.9942 6.99817V9.99738C21.9942 10.5277 21.7836 11.0363 21.4086 11.4112C21.0336 11.7862 20.5251 11.9969 19.9948 11.9969C19.4107 11.9647 18.8528 11.7437 18.4052 11.367C18.2859 11.2808 18.1425 11.2344 17.9953 11.2344C17.8481 11.2344 17.7047 11.2808 17.5854 11.367C17.1378 11.7437 16.5799 11.9647 15.9958 11.9969C15.4117 11.9647 14.8538 11.7437 14.4062 11.367C14.2869 11.2808 14.1435 11.2344 13.9963 11.2344C13.8492 11.2344 13.7057 11.2808 13.5864 11.367C13.1388 11.7437 12.581 11.9647 11.9969 11.9969C11.4127 11.9647 10.8549 11.7437 10.4073 11.367C10.288 11.2808 10.1446 11.2344 9.99738 11.2344C9.85021 11.2344 9.70678 11.2808 9.58749 11.367C9.13988 11.7437 8.58202 11.9647 7.99791 11.9969C7.41379 11.9647 6.85594 11.7437 6.40832 11.367C6.28903 11.2808 6.14561 11.2344 5.99843 11.2344C5.85125 11.2344 5.70783 11.2808 5.58854 11.367C5.14092 11.7437 4.58307 11.9647 3.99895 11.9969C3.46866 11.9969 2.96008 11.7862 2.58511 11.4112C2.21014 11.0363 1.99948 10.5277 1.99948 9.99738V6.99817" stroke="var(--stroke-0, white)" stroke-width="1.99948" stroke-linecap="round" stroke-linejoin="round"/>
</g>
</svg>
