<svg preserveAspectRatio="none" width="100%" height="100%" overflow="visible" style="display: block;" viewBox="0 0 23.9937 23.9937" fill="none" xmlns="http://www.w3.org/2000/svg">
<g id="Icon">
<path id="Vector" d="M11.9969 21.9942C17.5183 21.9942 21.9942 17.5183 21.9942 11.9969C21.9942 6.47546 17.5183 1.99948 11.9969 1.99948C6.47546 1.99948 1.99948 6.47546 1.99948 11.9969C1.99948 17.5183 6.47546 21.9942 11.9969 21.9942Z" stroke="var(--stroke-0, white)" stroke-width="1.99948" stroke-linecap="round" stroke-linejoin="round"/>
<path id="Vector_2" d="M11.9969 17.9953C15.3097 17.9953 17.9953 15.3097 17.9953 11.9969C17.9953 8.68402 15.3097 5.99843 11.9969 5.99843C8.68402 5.99843 5.99843 8.68402 5.99843 11.9969C5.99843 15.3097 8.68402 17.9953 11.9969 17.9953Z" stroke="var(--stroke-0, white)" stroke-width="1.99948" stroke-linecap="round" stroke-linejoin="round"/>
<path id="Vector_3" d="M11.9969 13.9963C13.1011 13.9963 13.9963 13.1011 13.9963 11.9969C13.9963 10.8926 13.1011 9.99738 11.9969 9.99738C10.8926 9.99738 9.99738 10.8926 9.99738 11.9969C9.99738 13.1011 10.8926 13.9963 11.9969 13.9963Z" stroke="var(--stroke-0, white)" stroke-width="1.99948" stroke-linecap="round" stroke-linejoin="round"/>
</g>
</svg>
