<svg xmlns="http://www.w3.org/2000/svg" viewBox="0 0 64 64">
  <defs>
    <linearGradient id="g" x1="0" y1="0" x2="1" y2="1">
      <stop offset="0%" stop-color="#4caf50"/>
      <stop offset="100%" stop-color="#1b5e20"/>
    </linearGradient>
  </defs>
  <ellipse cx="32" cy="32" rx="29" ry="22" transform="rotate(-14 32 32)" fill="url(#g)"/>
  <path d="M22 41V23h10.8c4.3 0 6.8 2.1 6.8 5.7 0 2.7-1.5 4.6-4 5.3L40 41h-5.3l-3.8-6.2h-3.7V41H22Zm5.2-10.1h5.1c1.6 0 2.5-.7 2.5-1.9s-.9-1.9-2.5-1.9h-5.1v3.8Z" fill="#fff"/>
  <path d="M42.9 41c-1.2 0-2.2-.3-3-.9l1.6-3.2c.4.3.9.5 1.4.5.8 0 1.2-.4 1.2-1.1 0-.6-.4-1-1.1-1h-1.1v-3.2h.8c.7 0 1.1-.3 1.1-.9 0-.5-.4-.8-1-.8-.5 0-1 .2-1.4.5l-1.5-3.1c.9-.6 1.9-.9 3.1-.9 2.8 0 4.7 1.5 4.7 3.8 0 1.2-.6 2.2-1.7 2.8 1.3.6 2 1.7 2 3.1 0 2.7-2 4.4-5.1 4.4Z" fill="#fff"/>
</svg>
